<?xml version="1.0" encoding="iso-8859-1"?>
<!-- Generator: Adobe Illustrator 18.0.0, SVG Export Plug-In . SVG Version: 6.00 Build 0)  -->
<!DOCTYPE svg PUBLIC "-//W3C//DTD SVG 1.1//EN" "http://www.w3.org/Graphics/SVG/1.1/DTD/svg11.dtd">
<svg version="1.1" id="Capa_1" xmlns="http://www.w3.org/2000/svg" xmlns:xlink="http://www.w3.org/1999/xlink" x="0px" y="0px"
	 viewBox="0 0 176.991 176.991" style="enable-background:new 0 0 176.991 176.991;" xml:space="preserve">
<g>
	<g>
		<defs>
			<circle id="SVGID_1_" cx="88.496" cy="88.496" r="88.496"/>
		</defs>
		<use xlink:href="#SVGID_1_"  style="overflow:visible;fill:#F5F5F5;"/>
		<clipPath id="SVGID_2_">
			<use xlink:href="#SVGID_1_"  style="overflow:visible;"/>
		</clipPath>
		<g style="clip-path:url(#SVGID_2_);">
			<g>
				<g>
					<g>
						<path style="fill:#E9D2BB;" d="M147.188,169.083H30.668v-0.896c0-2.432-0.112-5.216-0.23-8.161
							c-0.499-12.417-1.123-27.87,5.871-34.863c4.125-4.127,15.904-12.334,33.881-16.931l0.439-0.113l0.193,0.159
							c3.651-3.991,5.499-8.806,5.499-14.323v-2.069h25.212v2.069c0,5.463,1.864,10.271,5.542,14.289l0.154-0.124l0.438,0.113
							c17.979,4.597,29.758,12.808,33.878,16.931c6.996,6.993,6.37,22.447,5.872,34.867c-0.119,2.944-0.23,5.725-0.23,8.157V169.083
							z"/>
					</g>
					<g>
						<g>
							<path style="fill:#E87A66;" d="M147.188,180.723H30.668v-12.535c0-2.432-0.112-5.216-0.23-8.161
								c-0.499-12.417-1.123-27.87,5.871-34.863c4.125-4.127,15.904-12.334,33.881-16.931l0.439-0.113l17.788,20.685l18.812-20.685
								l0.438,0.113c17.979,4.597,29.758,12.808,33.878,16.931c6.996,6.993,6.37,22.447,5.872,34.867
								c-0.119,2.944-0.23,5.725-0.23,8.157V180.723z"/>
						</g>
					</g>
					<g>
						<path style="fill:#FFE5CB;" d="M88.92,108.903c-13.563,0-24.084-13.061-28.324-25.488c-2.984,0.326-5.353-2.912-5.353-7.026
							c0-2.8,1.153-5.275,2.929-6.393c-0.004-0.232-0.01-0.433-0.01-0.631c0-17.345,12.361-29.002,30.758-29.002
							c18.397,0,30.758,11.658,30.758,29.002c0,0.205-0.003,0.411-0.008,0.619c1.783,1.111,2.945,3.59,2.945,6.406
							c0,4.126-2.378,7.392-5.367,7.022C113.004,95.841,102.484,108.903,88.92,108.903z"/>
					</g>
					<g>
						<path style="fill:#414144;" d="M122.3,62.074c-3.249-23.935-11.038-33.698-33.946-33.698
							c-18.887,0-29.557,9.764-32.807,33.698C51.47,92.076,70.665,42.065,88.333,40.899C109.999,41.732,126.373,92.076,122.3,62.074
							z"/>
					</g>
					
						<ellipse transform="matrix(0.9679 -0.2515 0.2515 0.9679 -17.0001 17.1886)" style="fill:#FFE5CB;" cx="58.741" cy="75.098" rx="4.418" ry="8.75"/>
					
						<ellipse transform="matrix(-0.9781 -0.2081 0.2081 -0.9781 220.8853 173.0783)" style="fill:#FFE5CB;" cx="119.546" cy="74.921" rx="4.418" ry="8.75"/>
				</g>
			</g>
		</g>
	</g>
	<g>
		<path style="fill:#414144;" d="M65.446,58.051c0,0,25.042-1.587,23.067-15.349c-1.969-13.768-12.559-16.292-6.535-25.976
			c0,0-9.686,5.673-15.041,20.233C61.149,52.695,65.446,58.051,65.446,58.051z"/>
	</g>
	<g>
		<path style="fill:#414144;" d="M73.447,56.218c0,0,25.042-1.587,23.067-15.349c-1.969-13.768-12.559-16.292-6.535-25.976
			c0,0-9.687,5.673-15.041,20.233C69.15,50.862,73.447,56.218,73.447,56.218z"/>
	</g>
	<g>
		<path style="fill:#414144;" d="M88.614,57.217c0,0,25.042-1.587,23.067-15.349c-1.969-13.768-12.559-16.292-6.535-25.976
			c0,0-9.687,5.673-15.041,20.233C84.317,51.862,88.614,57.217,88.614,57.217z"/>
	</g>
	<g>
		<path style="fill:#414144;" d="M83.28,54.384c0,0,25.042-1.587,23.067-15.349c-1.969-13.768-12.559-16.292-6.535-25.976
			c0,0-9.687,5.673-15.041,20.233C78.983,49.028,83.28,54.384,83.28,54.384z"/>
	</g>
	<path style="fill:#414144;" d="M60.665,67.398c0,0,10.167-17.5,17.167-7.167c6.226,9.19,16.166,9.667,21.5-0.167
		c4.213-7.767,12.667-1.333,15,1.667c2.333,3,4.833,10.333,3.333,1.333c-0.615-3.689-0.273-17.727-12-20.333
		c-7.5-1.666-24.666-2.166-28.833,0c-4.167,2.167-10.333,5-12,7.667c-1.667,2.667-3.667,10.667-3.667,10.667L60.665,67.398z"/>
</g>
<g>
</g>
<g>
</g>
<g>
</g>
<g>
</g>
<g>
</g>
<g>
</g>
<g>
</g>
<g>
</g>
<g>
</g>
<g>
</g>
<g>
</g>
<g>
</g>
<g>
</g>
<g>
</g>
<g>
</g>
</svg>
