<?xml version="1.0" encoding="iso-8859-1"?>
<!-- Generator: Adobe Illustrator 18.0.0, SVG Export Plug-In . SVG Version: 6.00 Build 0)  -->
<!DOCTYPE svg PUBLIC "-//W3C//DTD SVG 1.1//EN" "http://www.w3.org/Graphics/SVG/1.1/DTD/svg11.dtd">
<svg version="1.1" id="Capa_1" xmlns="http://www.w3.org/2000/svg" xmlns:xlink="http://www.w3.org/1999/xlink" x="0px" y="0px"
	 viewBox="0 0 176.992 176.992" style="enable-background:new 0 0 176.992 176.992;" xml:space="preserve">
<g>
	<g>
		<defs>
			<circle id="SVGID_1_" cx="88.496" cy="88.496" r="88.495"/>
		</defs>
		<use xlink:href="#SVGID_1_"  style="overflow:visible;fill:#F5F5F5;"/>
		<clipPath id="SVGID_2_">
			<use xlink:href="#SVGID_1_"  style="overflow:visible;"/>
		</clipPath>
		<g style="clip-path:url(#SVGID_2_);">
			<g>
				<g>
					<g>
						<path style="fill:#E9D2BB;" d="M147.189,169.084H30.668v-0.896c0-2.432-0.112-5.216-0.23-8.161
							c-0.499-12.417-1.123-27.869,5.871-34.862c4.125-4.128,15.904-12.334,33.882-16.931l0.439-0.113l0.194,0.158
							c3.651-3.991,5.499-8.807,5.499-14.323v-2.069h25.212v2.069c0,5.464,1.864,10.271,5.542,14.288l0.154-0.123l0.438,0.113
							c17.979,4.597,29.758,12.807,33.878,16.931c6.996,6.993,6.37,22.446,5.872,34.866c-0.119,2.944-0.23,5.726-0.23,8.157V169.084
							z"/>
					</g>
					<g>
						<g>
							<path style="fill:#F6E887;" d="M147.189,180.724H30.668v-12.535c0-2.432-0.112-5.216-0.23-8.161
								c-0.499-12.417-1.123-27.869,5.871-34.862c4.125-4.128,15.904-12.334,33.882-16.931l0.439-0.113l17.788,20.685l18.812-20.685
								l0.438,0.113c17.979,4.597,29.758,12.807,33.878,16.931c6.996,6.993,6.37,22.446,5.872,34.866
								c-0.119,2.944-0.23,5.726-0.23,8.157V180.724z"/>
						</g>
					</g>
					<g>
						<path style="fill:#FFE5CB;" d="M88.92,108.903c-13.563,0-24.085-13.062-28.324-25.488c-2.985,0.326-5.353-2.911-5.353-7.026
							c0-2.801,1.153-5.275,2.929-6.393c-0.004-0.232-0.01-0.434-0.01-0.632c0-17.345,12.362-29.003,30.758-29.003
							c18.397,0,30.758,11.658,30.758,29.003c0,0.205-0.003,0.411-0.008,0.618c1.783,1.111,2.945,3.591,2.945,6.406
							c0,4.126-2.378,7.392-5.367,7.023C113.004,95.842,102.485,108.903,88.92,108.903z"/>
					</g>
					<g>
						<path style="fill:#FF8B26;" d="M59.675,57.768c0,0,27.261,1.703,48.56-21.298c0,0-1.457-3.406-22.202-3.406
							C59.933,33.063,59.675,57.768,59.675,57.768z"/>
					</g>
					<g>
						<path style="fill:#414144;" d="M122.3,62.074c-3.249-23.935-11.038-33.698-33.946-33.698
							c-18.886,0-29.557,9.764-32.807,33.698c-4.077,30.002,18.102-8.638,33.375-8.638C104.891,53.437,126.373,92.076,122.3,62.074z
							"/>
					</g>
					<line style="fill:none;stroke:#414144;stroke-miterlimit:10;" x1="62.666" y1="71.735" x2="117.499" y2="71.735"/>
					<g>
						<path style="fill:#414144;" d="M78.899,31.659c0,0,20.712,21.108,8.854,30.522c-11.859,9.423-22.97,3.045-24.838,15.544
							c0,0-4.287-12.201,1.756-28.058C71.201,32.527,78.899,31.659,78.899,31.659z"/>
					</g>
					
						<ellipse transform="matrix(0.9679 -0.2515 0.2515 0.9679 -17 17.1885)" style="fill:#FFE5CB;" cx="58.742" cy="75.099" rx="4.419" ry="8.749"/>
					
						<ellipse transform="matrix(-0.9781 -0.2081 0.2081 -0.9781 220.8856 173.0795)" style="fill:#FFE5CB;" cx="119.547" cy="74.921" rx="4.418" ry="8.75"/>
				</g>
			</g>
		</g>
	</g>
	<g>
		<path style="fill:#414144;" d="M100.46,98.557c-0.665,4.989-5.026,8.845-10.318,8.845c-5.048,0-9.255-3.505-10.211-8.156
			c-0.058,0.434-0.098,0.873-0.098,1.322c0,5.615,4.664,10.167,10.417,10.167c5.753,0,10.417-4.552,10.417-10.167
			C100.666,99.879,100.595,99.207,100.46,98.557z"/>
	</g>
	<path style="fill:#414144;" d="M86.666,73.068c0,2.394-1.493,4.333-3.334,4.333h-7.833c-1.841,0-3.334-1.939-3.334-4.333l0,0
		c0-2.394,1.493-4.334,3.334-4.334h7.833C85.173,68.734,86.666,70.674,86.666,73.068L86.666,73.068z"/>
	<path style="fill:#414144;" d="M106,72.734c0,2.394-1.493,4.333-3.334,4.333h-7.833c-1.841,0-3.333-1.939-3.333-4.333l0,0
		c0-2.394,1.492-4.334,3.333-4.334h7.833C104.507,68.4,106,70.34,106,72.734L106,72.734z"/>
</g>
<g>
</g>
<g>
</g>
<g>
</g>
<g>
</g>
<g>
</g>
<g>
</g>
<g>
</g>
<g>
</g>
<g>
</g>
<g>
</g>
<g>
</g>
<g>
</g>
<g>
</g>
<g>
</g>
<g>
</g>
</svg>
