<?xml version="1.0" encoding="iso-8859-1"?>
<!-- Generator: Adobe Illustrator 18.0.0, SVG Export Plug-In . SVG Version: 6.00 Build 0)  -->
<!DOCTYPE svg PUBLIC "-//W3C//DTD SVG 1.1//EN" "http://www.w3.org/Graphics/SVG/1.1/DTD/svg11.dtd">
<svg version="1.1" id="Capa_1" xmlns="http://www.w3.org/2000/svg" xmlns:xlink="http://www.w3.org/1999/xlink" x="0px" y="0px"
	 viewBox="0 0 176.992 176.992" style="enable-background:new 0 0 176.992 176.992;" xml:space="preserve">
<g>
	<g>
		<defs>
			<circle id="SVGID_1_" cx="88.496" cy="88.496" r="88.495"/>
		</defs>
		<use xlink:href="#SVGID_1_"  style="overflow:visible;fill:#F5F5F5;"/>
		<clipPath id="SVGID_2_">
			<use xlink:href="#SVGID_1_"  style="overflow:visible;"/>
		</clipPath>
		<g style="clip-path:url(#SVGID_2_);">
			<g>
				<g>
					<g>
						<path style="fill:#E9D2BB;" d="M147.189,169.084H30.668v-0.896c0-2.432-0.112-5.216-0.23-8.161
							c-0.499-12.417-1.123-27.869,5.871-34.862c4.125-4.128,15.904-12.334,33.882-16.931l0.439-0.113l0.194,0.158
							c3.651-3.991,5.499-8.807,5.499-14.323v-2.069h25.212v2.069c0,5.464,1.864,10.271,5.542,14.288l0.154-0.123l0.438,0.113
							c17.979,4.597,29.758,12.807,33.878,16.931c6.996,6.993,6.37,22.446,5.872,34.866c-0.119,2.944-0.23,5.726-0.23,8.157V169.084
							z"/>
					</g>
					<g>
						<g>
							<path style="fill:#414144;" d="M147.189,180.724H30.668v-12.535c0-2.432-0.112-5.216-0.23-8.161
								c-0.499-12.417-1.123-27.869,5.871-34.862c4.125-4.128,15.904-12.334,33.882-16.931l0.439-0.113l17.788,20.685l18.812-20.685
								l0.438,0.113c17.979,4.597,29.758,12.807,33.878,16.931c6.996,6.993,6.37,22.446,5.872,34.866
								c-0.119,2.944-0.23,5.726-0.23,8.157V180.724z"/>
						</g>
					</g>
					<g>
						<path style="fill:#FFE5CB;" d="M88.92,108.903c-13.563,0-24.085-13.062-28.324-25.488c-2.985,0.326-5.353-2.911-5.353-7.026
							c0-2.801,1.153-5.275,2.929-6.393c-0.004-0.232-0.01-0.434-0.01-0.632c0-17.345,12.362-29.003,30.758-29.003
							c18.397,0,30.758,11.658,30.758,29.003c0,0.205-0.003,0.411-0.008,0.618c1.783,1.111,2.945,3.591,2.945,6.406
							c0,4.126-2.378,7.392-5.367,7.023C113.004,95.842,102.485,108.903,88.92,108.903z"/>
					</g>
					
						<ellipse transform="matrix(0.9679 -0.2515 0.2515 0.9679 -17 17.1885)" style="fill:#FFE5CB;" cx="58.742" cy="75.099" rx="4.419" ry="8.749"/>
					
						<ellipse transform="matrix(-0.9781 -0.2081 0.2081 -0.9781 220.8856 173.0795)" style="fill:#FFE5CB;" cx="119.547" cy="74.921" rx="4.418" ry="8.75"/>
				</g>
			</g>
		</g>
	</g>
	<path style="fill:#615E57;" d="M84.331,17.567c-1.357,2.625-2.317,5.147-2.98,7.553c-12.65,8.832-13.115,24.864,3.951,25.743
		c0.018,0.023,0.029,0.038,0.029,0.038c0.095-0.003,0.18-0.016,0.273-0.019c0.108,0.004,0.207,0.017,0.316,0.019
		c0,0,0.016-0.018,0.04-0.045C105.249,49.699,102.135,26.14,84.331,17.567z"/>
	<path style="fill:none;stroke:#414144;stroke-miterlimit:10;" d="M121.501,81.392c0.955,0.911,1.331,1.586,1.331,3.01
		c0,2.762-2.238,5-5,5c-2.762,0-5-2.238-5-5c0-2.762,2.238-5,5-5"/>
	<circle style="fill:#414144;" cx="117.832" cy="79.401" r="0.768"/>
	<circle style="fill:#414144;" cx="118.123" cy="89.501" r="1.931"/>
</g>
<g>
</g>
<g>
</g>
<g>
</g>
<g>
</g>
<g>
</g>
<g>
</g>
<g>
</g>
<g>
</g>
<g>
</g>
<g>
</g>
<g>
</g>
<g>
</g>
<g>
</g>
<g>
</g>
<g>
</g>
</svg>
