<?xml version="1.0" encoding="iso-8859-1"?>
<!-- Generator: Adobe Illustrator 18.0.0, SVG Export Plug-In . SVG Version: 6.00 Build 0)  -->
<!DOCTYPE svg PUBLIC "-//W3C//DTD SVG 1.1//EN" "http://www.w3.org/Graphics/SVG/1.1/DTD/svg11.dtd">
<svg version="1.1" id="Capa_1" xmlns="http://www.w3.org/2000/svg" xmlns:xlink="http://www.w3.org/1999/xlink" x="0px" y="0px"
	 viewBox="0 0 176.992 176.992" style="enable-background:new 0 0 176.992 176.992;" xml:space="preserve">
<g>
	<g>
		<defs>
			<circle id="SVGID_1_" cx="88.496" cy="88.496" r="88.496"/>
		</defs>
		<use xlink:href="#SVGID_1_"  style="overflow:visible;fill:#F5F5F5;"/>
		<clipPath id="SVGID_2_">
			<use xlink:href="#SVGID_1_"  style="overflow:visible;"/>
		</clipPath>
		<g style="clip-path:url(#SVGID_2_);">
			<g>
				<g>
					<polygon style="fill:#414144;" points="55.332,74.066 54.334,129.066 124.333,127.399 119.666,56.733 					"/>
					<g>
						<path style="fill:#E9D2BB;" d="M147.189,169.083H30.668v-0.896c0-2.432-0.112-5.216-0.23-8.161
							c-0.499-12.417-1.123-27.869,5.871-34.862c4.125-4.128,15.904-12.334,33.881-16.931l0.439-0.113l0.193,0.158
							c3.651-3.991,5.499-8.807,5.499-14.323v-2.069h25.212v2.069c0,5.464,1.864,10.27,5.542,14.288l0.154-0.123l0.438,0.113
							c17.979,4.597,29.758,12.807,33.878,16.931c6.996,6.993,6.37,22.446,5.872,34.866c-0.119,2.944-0.229,5.726-0.229,8.157
							V169.083z"/>
					</g>
					<g>
						<g>
							<path style="fill:#6D8CAC;" d="M147.189,180.723H30.668v-12.535c0-2.432-0.112-5.216-0.23-8.161
								c-0.499-12.417-1.123-27.869,5.871-34.862c4.125-4.128,15.904-12.334,33.881-16.931l0.439-0.113l17.788,20.685l18.812-20.685
								l0.438,0.113c17.979,4.597,29.758,12.807,33.878,16.931c6.996,6.993,6.37,22.446,5.872,34.866
								c-0.119,2.944-0.229,5.726-0.229,8.157V180.723z"/>
						</g>
					</g>
					<polygon style="fill:#355B72;" points="78.665,182.725 70.19,108.234 88.665,127.058 107.668,108.234 102.665,183.058 					"/>
					<g>
						<path style="fill:#FFE5CB;" d="M88.92,108.903c-13.563,0-24.084-13.061-28.324-25.488c-2.984,0.326-5.353-2.911-5.353-7.026
							c0-2.8,1.153-5.275,2.929-6.393c-0.004-0.232-0.01-0.433-0.01-0.631c0-17.345,12.361-29.003,30.758-29.003
							c18.397,0,30.758,11.658,30.758,29.003c0,0.205-0.003,0.411-0.008,0.619c1.783,1.111,2.945,3.59,2.945,6.406
							c0,4.126-2.378,7.392-5.367,7.022C113.004,95.841,102.485,108.903,88.92,108.903z"/>
					</g>
					<g>
						<path style="fill:#414144;" d="M122.3,62.074c-3.249-23.935-11.038-33.698-33.946-33.698
							c-18.887,0-29.557,9.764-32.807,33.698C51.47,92.076,73.06,40.899,88.333,40.899C104.302,40.899,126.373,92.076,122.3,62.074z
							"/>
					</g>
					
						<ellipse transform="matrix(0.9679 -0.2515 0.2515 0.9679 -17.0007 17.1895)" style="fill:#FFE5CB;" cx="58.741" cy="75.098" rx="4.418" ry="8.749"/>
					
						<ellipse transform="matrix(-0.9781 -0.2081 0.2081 -0.9781 220.8869 173.0773)" style="fill:#FFE5CB;" cx="119.547" cy="74.921" rx="4.418" ry="8.75"/>
				</g>
			</g>
		</g>
	</g>
	<path style="fill:#414144;" d="M61.166,66.399c0,0,25.501-16,27.667-23.5c3.666,13.833,26.666,21,26.666,21l-10.666-22l-16.5-6.5
		c0,0-9.168,2-9.834,2.667s-9.666,12.833-9.666,12.833L61.166,66.399z"/>
	<polygon style="fill:#414144;" points="89.116,90.726 98.976,93.558 89.325,92.405 	"/>
	<polygon style="fill:#414144;" points="88.383,90.726 78.524,93.558 88.173,92.405 	"/>
</g>
<g>
</g>
<g>
</g>
<g>
</g>
<g>
</g>
<g>
</g>
<g>
</g>
<g>
</g>
<g>
</g>
<g>
</g>
<g>
</g>
<g>
</g>
<g>
</g>
<g>
</g>
<g>
</g>
<g>
</g>
</svg>
