<?xml version="1.0" encoding="iso-8859-1"?>
<!-- Generator: Adobe Illustrator 18.0.0, SVG Export Plug-In . SVG Version: 6.00 Build 0)  -->
<!DOCTYPE svg PUBLIC "-//W3C//DTD SVG 1.1//EN" "http://www.w3.org/Graphics/SVG/1.1/DTD/svg11.dtd">
<svg version="1.1" id="Capa_1" xmlns="http://www.w3.org/2000/svg" xmlns:xlink="http://www.w3.org/1999/xlink" x="0px" y="0px"
	 viewBox="0 0 176.992 176.992" style="enable-background:new 0 0 176.992 176.992;" xml:space="preserve">
<g>
	<g>
		<defs>
			<circle id="SVGID_1_" cx="88.496" cy="88.496" r="88.495"/>
		</defs>
		<use xlink:href="#SVGID_1_"  style="overflow:visible;fill:#F5F5F5;"/>
		<clipPath id="SVGID_2_">
			<use xlink:href="#SVGID_1_"  style="overflow:visible;"/>
		</clipPath>
		<g style="clip-path:url(#SVGID_2_);">
			<g>
				<g>
					<path style="fill:#414144;" d="M43.665,104.236l39.333,9.668l-11-56.335l-16.666,9.003
						C55.333,66.572,62.665,93.236,43.665,104.236z"/>
					<path style="fill:#414144;" d="M134.665,104.236l-39.333,9.668l11-56.335l16.666,9.003
						C122.997,66.572,115.665,93.236,134.665,104.236z"/>
					<path style="fill:#414144;" d="M44.665,112.236l39.333,9.668l-11-56.335l-16.666,9.003
						C56.333,74.572,63.665,101.236,44.665,112.236z"/>
					<path style="fill:#414144;" d="M135.665,112.236l-39.333,9.668l11-56.335l16.666,9.003
						C123.997,74.572,116.665,101.236,135.665,112.236z"/>
					<g>
						<path style="fill:#E9D2BB;" d="M147.189,169.084H30.668v-0.896c0-2.432-0.112-5.215-0.23-8.16
							c-0.499-12.418-1.123-27.869,5.871-34.863c4.125-4.127,15.904-12.334,33.882-16.93l0.439-0.113l0.194,0.158
							c3.651-3.992,5.499-8.807,5.499-14.324v-2.068h25.212v2.068c0,5.465,1.864,10.271,5.542,14.289l0.154-0.123l0.438,0.113
							c17.979,4.596,29.758,12.807,33.878,16.93c6.996,6.994,6.37,22.447,5.872,34.867c-0.119,2.943-0.23,5.725-0.23,8.156V169.084z
							"/>
					</g>
					<g>
						<g>
							<path style="fill:#E6635F;" d="M147.189,180.723H30.668v-12.535c0-2.432-0.112-5.215-0.23-8.16
								c-0.499-12.418-1.123-27.869,5.871-34.863c4.125-4.127,15.904-12.334,33.882-16.93l0.439-0.113l17.37,12.448l19.23-12.448
								l0.438,0.113c17.979,4.596,29.758,12.807,33.878,16.93c6.996,6.994,6.37,22.447,5.872,34.867
								c-0.119,2.943-0.23,5.725-0.23,8.156V180.723z"/>
						</g>
					</g>
					<polygon style="fill:#F5F5F5;" points="88.665,137.85 95.113,157.695 115.98,157.695 99.098,169.96 105.547,189.806 
						88.665,177.54 71.784,189.806 78.232,169.96 61.35,157.695 82.217,157.695 					"/>
					<g>
						<path style="fill:#FFE5CB;" d="M88.92,108.902c-5.789,0-11.024-2.38-15.454-6.074c-5.947-4.961-10.44-12.292-12.87-19.414
							c-2.985,0.326-5.353-2.91-5.353-7.025c0-2.801,1.153-5.275,2.929-6.393c-0.004-0.232-0.01-0.433-0.01-0.632
							c0-17.345,12.362-29.003,30.758-29.003c18.397,0,30.758,11.658,30.758,29.003c0,0.205-0.003,0.411-0.008,0.618
							c1.783,1.111,2.945,3.591,2.945,6.406c0,4.125-2.378,7.391-5.367,7.021C113.004,95.842,102.485,108.902,88.92,108.902z"/>
					</g>
					<g>
						<path style="fill:#414144;" d="M122.3,62.074c-3.249-23.935-11.038-33.698-33.946-33.698
							c-18.886,0-29.557,9.764-32.807,33.698C51.47,92.076,73.142,42.152,88.415,42.152C104.384,42.152,126.373,92.076,122.3,62.074
							z"/>
					</g>
					
						<ellipse transform="matrix(0.9679 -0.2515 0.2515 0.9679 -16.9994 17.1877)" style="fill:#FFE5CB;" cx="58.742" cy="75.099" rx="4.419" ry="8.749"/>
					
						<ellipse transform="matrix(-0.9781 -0.2081 0.2081 -0.9781 220.8857 173.0793)" style="fill:#FFE5CB;" cx="119.547" cy="74.921" rx="4.418" ry="8.75"/>
				</g>
			</g>
		</g>
	</g>
	<path style="fill:#414144;" d="M61.165,67.902c0,0,27.25-12.75,28.25-24.25c1,10.25,25.5,24,27.5,24s-15.5-27.25-15.5-27.25
		l-14.25-5.5l-6.5,1l-11.5,7.75L61.165,67.902z"/>
	<path style="fill:#E6635F;" d="M55.165,61.402h67.25c0,0-1.25-9-2.25-10.75l-62.75,0.25C57.415,50.902,55.915,55.402,55.165,61.402
		z"/>
	<path style="fill:#414144;" d="M60.332,65.235c0,0-0.667,6.668,2.5,10.334c0.833-5.167-0.5-11.334-0.5-11.334L60.332,65.235z"/>
	<path style="fill:#414144;" d="M62.499,63.735c0,0-0.667,6.668,2.5,10.334c0.833-5.167-0.5-11.334-0.5-11.334L62.499,63.735z"/>
	<path style="fill:#414144;" d="M117.549,64.235c0,0,0.666,6.668-2.5,10.334c-0.833-5.167,0.5-11.334,0.5-11.334L117.549,64.235z"/>
	<path style="fill:#414144;" d="M115.549,63.402c0,0,0.666,6.668-2.5,10.334c-0.833-5.167,0.5-11.334,0.5-11.334L115.549,63.402z"/>
</g>
<g>
</g>
<g>
</g>
<g>
</g>
<g>
</g>
<g>
</g>
<g>
</g>
<g>
</g>
<g>
</g>
<g>
</g>
<g>
</g>
<g>
</g>
<g>
</g>
<g>
</g>
<g>
</g>
<g>
</g>
</svg>
