<?xml version="1.0" encoding="iso-8859-1"?>
<!-- Generator: Adobe Illustrator 19.0.0, SVG Export Plug-In . SVG Version: 6.00 Build 0)  -->
<svg version="1.1" id="Capa_1" xmlns="http://www.w3.org/2000/svg" xmlns:xlink="http://www.w3.org/1999/xlink" x="0px" y="0px"
	 viewBox="0 0 512 512" style="enable-background:new 0 0 512 512;" xml:space="preserve">
<g>
	<g>
		<path d="M195.254,312.407v28.281c0.035,4.382-3.211,8.114-7.585,8.678l-69.337,9.364c-30.382,3.775-53.274,29.722-53.248,60.329
			V512h17.347v-92.95c-0.017-21.877,16.332-40.396,38.131-43.112l69.389-9.372c13.034-1.692,22.771-12.887,22.658-25.956v-28.203
			H195.254z"/>
	</g>
</g>
<g>
	<g>
		<path d="M393.754,358.738l-69.458-9.372c-4.348-0.573-7.593-4.296-7.55-8.756v-28.203H299.39v28.125
			c-0.113,13.147,9.624,24.342,22.615,26.034l69.519,9.381c21.704,2.708,38.053,21.235,38.036,43.112V512h17.356v-92.932
			C446.941,388.452,424.049,362.513,393.754,358.738z"/>
	</g>
</g>
<g>
	<g>
		<path d="M351.458,147.525h-8.678v17.356h8.678c9.572,0,17.356,7.784,17.356,17.356c0,9.572-7.784,17.356-17.356,17.356h-8.678
			v17.356h8.678c19.144,0,34.712-15.568,34.712-34.712C386.169,163.094,370.601,147.525,351.458,147.525z"/>
	</g>
</g>
<g>
	<g>
		<path d="M160.542,164.881h8.678v-17.356h-8.678c-19.144,0-34.712,15.568-34.712,34.712c0,19.144,15.568,34.712,34.712,34.712
			h8.678v-17.356h-8.678c-9.572,0-17.356-7.784-17.356-17.356C143.186,172.665,150.971,164.881,160.542,164.881z"/>
	</g>
</g>
<g>
	<g>
		<path d="M326.135,352.378l-5.554,12.93c-11.09,25.852-36.421,42.557-64.547,42.557c-0.026,0-0.052,0-0.078,0
			c-28.125,0-53.448-16.705-64.529-42.557l-5.554-12.93l-15.95,6.847l5.554,12.921c13.815,32.247,45.394,53.074,80.471,53.074
			c0.026,0,0.061,0,0.095,0c35.068,0,66.664-20.827,80.488-53.066l5.554-12.93L326.135,352.378z"/>
	</g>
</g>
<g>
	<g>
		<path d="M241.091,208.271l14.64-58.281l-16.827-4.226l-17.356,69.077c-0.651,2.586-0.069,5.337,1.571,7.446
			c1.649,2.109,4.174,3.341,6.847,3.341h34.712v-17.356H241.091z"/>
	</g>
</g>
<g>
	<g>
		<path d="M278.181,235.208c-10.188,5.059-21.591,7.749-32.942,7.775h-15.273v17.356h15.291c14.024-0.035,28.073-3.35,40.639-9.581
			L278.181,235.208z"/>
	</g>
</g>
<g>
	<g>
		<path d="M359.181,143.221l-34.712-60.746c-2.057-3.593-6.352-5.224-10.283-3.931l-78.102,26.034
			c-24.385,8.131-74.856,8.235-75.359,8.235c-4.79,0-8.678,3.888-8.678,8.678v119.166c-0.13,14.891,5.189,29.271,14.987,40.5
			l37.497,42.878c8.218,9.355,20.072,14.735,32.551,14.753h38.027c12.453-0.017,24.316-5.398,32.516-14.735l37.515-42.479
			c9.797-11.212,15.126-25.574,14.996-40.448l0.191-93.583C360.327,146.024,359.936,144.531,359.181,143.221z M342.771,241.135
			c0,0.035,0,0.061,0,0.095c0.104,10.63-3.697,20.905-10.665,28.889l-37.497,42.453c-4.938,5.623-12.062,8.852-19.517,8.86h-38.001
			c-7.48-0.009-14.596-3.237-19.517-8.843l-37.48-42.852c-6.994-8.018-10.795-18.293-10.7-29.01V130.039
			c16.28-0.408,51.426-2.083,72.166-8.999l71.342-23.786l30.043,52.562L342.771,241.135z"/>
	</g>
</g>
<g>
	<g>
		<path d="M358.478,54.602C345.982,21.834,314.594,0.035,279.257,0H134.508c-2.786,0-5.406,1.336-7.047,3.61
			c-1.631,2.265-2.083,5.172-1.198,7.819l15.143,45.412c-19.43,13.277-28.75,37.801-22.285,61.31l15.794,49.378l16.54-5.294
			l-15.69-49.031c-4.868-17.712,3.532-36.5,19.968-44.692c3.87-1.926,5.736-6.404,4.365-10.509l-13.555-40.648h132.703
			c29.063,0.026,54.775,18.571,63.991,46.141c0.712,2.143,2.23,3.914,4.226,4.955l2.473,1.284
			c15.594,7.749,24.064,25.071,20.61,42.158l-10.24,51.287l17.018,3.402l10.24-51.269C392.522,90.806,380.52,65.935,358.478,54.602z
			"/>
	</g>
</g>
<g>
	<g>
		<path d="M238.644,138.847h-78.102c-4.79,0-8.678,3.888-8.678,8.678v26.034c0,19.144,15.568,34.712,34.712,34.712h26.034
			c19.144,0,34.712-15.568,34.712-34.712v-26.034C247.322,142.735,243.434,138.847,238.644,138.847z M229.966,173.559
			c0,9.572-7.784,17.356-17.356,17.356h-26.034c-9.572,0-17.356-7.784-17.356-17.356v-17.356h60.746V173.559z"/>
	</g>
</g>
<g>
	<g>
		<path d="M351.458,138.847h-78.102c-4.79,0-8.678,3.888-8.678,8.678v26.034c0,19.144,15.568,34.712,34.712,34.712h26.034
			c19.144,0,34.712-15.568,34.712-34.712v-26.034C360.136,142.735,356.257,138.847,351.458,138.847z M342.78,173.559
			c0,9.572-7.784,17.356-17.356,17.356H299.39c-9.572,0-17.356-7.784-17.356-17.356v-17.356h60.746V173.559z"/>
	</g>
</g>
<g>
	<g>
		<rect x="238.644" y="138.847" width="34.712" height="17.356"/>
	</g>
</g>
<g>
</g>
<g>
</g>
<g>
</g>
<g>
</g>
<g>
</g>
<g>
</g>
<g>
</g>
<g>
</g>
<g>
</g>
<g>
</g>
<g>
</g>
<g>
</g>
<g>
</g>
<g>
</g>
<g>
</g>
</svg>
