<?xml version="1.0" encoding="iso-8859-1"?>
<!-- Generator: Adobe Illustrator 19.0.0, SVG Export Plug-In . SVG Version: 6.00 Build 0)  -->
<svg version="1.1" id="Capa_1" xmlns="http://www.w3.org/2000/svg" xmlns:xlink="http://www.w3.org/1999/xlink" x="0px" y="0px"
	 viewBox="0 0 512 512" style="enable-background:new 0 0 512 512;" xml:space="preserve">
<g>
	<g>
		<path d="M241.195,190.874l14.37-43.102l-16.188-5.402l-17.067,51.2c-1.493,4.471,0.922,9.301,5.393,10.795l25.6,8.533
			l5.393-16.188L241.195,190.874z"/>
	</g>
</g>
<g>
	<g>
		<path d="M358.4,136.533h-8.533V153.6h8.533c9.412,0,17.067,7.654,17.067,17.067c0,9.412-7.654,17.067-17.067,17.067h-8.533V204.8
			h8.533c18.825,0,34.133-15.309,34.133-34.133S377.225,136.533,358.4,136.533z"/>
	</g>
</g>
<g>
	<g>
		<path d="M341.35,136.013l-4.702,76.945c-1.903,43.273-37.333,77.175-80.649,77.175c-43.315,0-78.746-33.903-80.657-77.321
			l-4.693-76.8l-17.033,1.041l4.685,76.655c2.313,52.42,45.227,93.491,97.698,93.491c52.471,0,95.394-41.062,97.69-93.346
			l4.693-76.8L341.35,136.013z"/>
	</g>
</g>
<g>
	<g>
		<path d="M277.786,222.763c-9.984,5-21.171,7.637-32.341,7.637c-0.009,0-0.017,0-0.026,0h-6.485v17.067h6.485
			c0.008,0,0.017,0,0.026,0c13.807,0,27.631-3.26,39.979-9.438L277.786,222.763z"/>
	</g>
</g>
<g>
	<g>
		<path d="M296.567,71.177c-2.611-2.987-6.955-3.763-10.445-1.911l-128,68.267l8.03,15.061l122.027-65.084l55.27,63.172
			l12.851-11.238L296.567,71.177z"/>
	</g>
</g>
<g>
	<g>
		<path d="M153.6,153.6h8.533v-17.067H153.6c-18.825,0-34.133,15.309-34.133,34.133S134.775,204.8,153.6,204.8h8.533v-17.067H153.6
			c-9.412,0-17.067-7.654-17.067-17.067C136.533,161.254,144.188,153.6,153.6,153.6z"/>
	</g>
</g>
<g id="SVGCleanerId_0">
	<g>
		<path d="M256,0c-70.579,0-128,57.421-128,128v25.6h17.067V128c0-61.167,49.766-110.933,110.933-110.933
			S366.933,66.833,366.933,128v25.6H384V128C384,57.421,326.579,0,256,0z"/>
	</g>
</g>
<g>
	<g>
		<rect x="281.6" y="17.067" width="17.067" height="59.733"/>
	</g>
</g>
<g id="SVGCleanerId_1">
	<g>
		<path d="M145.067,273.067v-85.333H128V281.6c0,4.719,3.823,8.533,8.533,8.533H204.8v-17.067H145.067z"/>
	</g>
</g>
<g id="SVGCleanerId_2">
	<g>
		<path d="M366.933,187.733v85.333H307.2v17.067h68.267c4.719,0,8.533-3.814,8.533-8.533v-93.867H366.933z"/>
	</g>
</g>
<g>
	<g>
		<path d="M204.8,119.467c-23.526,0-42.667,19.14-42.667,42.667c0,23.526,19.14,42.667,42.667,42.667
			c23.526,0,42.667-19.14,42.667-42.667C247.467,138.607,228.326,119.467,204.8,119.467z M204.8,187.733
			c-14.114,0-25.6-11.486-25.6-25.6s11.486-25.6,25.6-25.6s25.6,11.486,25.6,25.6S218.914,187.733,204.8,187.733z"/>
	</g>
</g>
<g>
	<g>
		<path d="M307.2,119.467c-23.526,0-42.667,19.14-42.667,42.667c0,23.526,19.14,42.667,42.667,42.667
			c23.526,0,42.667-19.14,42.667-42.667C349.867,138.607,330.726,119.467,307.2,119.467z M307.2,187.733
			c-14.114,0-25.6-11.486-25.6-25.6s11.486-25.6,25.6-25.6s25.6,11.486,25.6,25.6S321.314,187.733,307.2,187.733z"/>
	</g>
</g>
<g>
	<g>
		<rect x="230.4" y="136.533" width="42.667" height="17.067"/>
	</g>
</g>
<g>
	<g>
		<path d="M316.467,329.335L256,465.391l-60.476-136.064l-15.59,6.938l68.267,153.6c1.374,3.089,4.429,5.069,7.799,5.069
			s6.426-1.98,7.799-5.06l68.267-153.6L316.467,329.335z"/>
	</g>
</g>
<g>
	<g>
		<path d="M204.723,290.133v27.546c0.026,4.326-3.183,7.996-7.458,8.533l-61.798,7.68c-38.323,4.83-67.209,37.598-67.2,76.22V512
			h17.067V410.112c-0.008-30.046,22.46-55.535,52.267-59.29l61.79-7.68c12.868-1.604,22.502-12.612,22.4-25.532v-27.477H204.723z"/>
	</g>
</g>
<g>
	<g>
		<path d="M376.516,333.892l-61.773-7.68c-4.284-0.538-7.492-4.207-7.458-8.602v-27.477h-17.067v27.418
			c-0.102,12.979,9.532,23.996,22.417,25.6l61.764,7.68c29.807,3.746,52.275,29.235,52.267,59.281V512h17.067V410.112
			C443.742,371.482,414.848,338.714,376.516,333.892z"/>
	</g>
</g>
<g>
	<g>
		<path d="M197.666,447.693l6.878-27.494c0.64-2.543,0.06-5.248-1.553-7.313c-1.613-2.074-4.096-3.285-6.724-3.285h-46.601
			l28.8-64.794l-15.59-6.938l-34.133,76.8c-1.178,2.637-0.93,5.692,0.64,8.115s4.267,3.883,7.151,3.883h48.802l-5.879,23.535
			c-0.973,3.874,0.887,7.91,4.463,9.702l68.267,34.133l7.629-15.266L197.666,447.693z"/>
	</g>
</g>
<g>
	<g>
		<rect x="247.467" y="486.4" width="17.067" height="25.6"/>
	</g>
</g>
<g>
	<g>
		<path d="M383.266,414.66l-34.133-76.8l-15.599,6.938l28.8,64.802h-46.601c-2.628,0-5.111,1.212-6.733,3.285
			c-1.621,2.065-2.193,4.762-1.553,7.313l6.869,27.494l-62.14,31.078l7.637,15.266l68.267-34.133
			c3.567-1.792,5.427-5.828,4.454-9.702l-5.871-23.535h48.802c2.893,0,5.589-1.468,7.159-3.891
			C384.196,420.352,384.444,417.306,383.266,414.66z"/>
	</g>
</g>
<g>
	<g>
		<rect x="221.867" y="401.067" width="68.267" height="17.067"/>
	</g>
</g>
<g>
	<g>
		<path d="M256,0c-70.579,0-128,57.421-128,128v25.6h17.067V128c0-61.167,49.766-110.933,110.933-110.933
			S366.933,66.833,366.933,128v25.6H384V128C384,57.421,326.579,0,256,0z"/>
	</g>
</g>
<g>
	<g>
		<path d="M145.067,273.067v-85.333H128V281.6c0,4.719,3.823,8.533,8.533,8.533H204.8v-17.067H145.067z"/>
	</g>
</g>
<g>
	<g>
		<path d="M366.933,187.733v85.333H307.2v17.067h68.267c4.719,0,8.533-3.814,8.533-8.533v-93.867H366.933z"/>
	</g>
</g>
<g>
</g>
<g>
</g>
<g>
</g>
<g>
</g>
<g>
</g>
<g>
</g>
<g>
</g>
<g>
</g>
<g>
</g>
<g>
</g>
<g>
</g>
<g>
</g>
<g>
</g>
<g>
</g>
<g>
</g>
</svg>
