<?xml version="1.0" encoding="iso-8859-1"?>
<!-- Generator: Adobe Illustrator 19.0.0, SVG Export Plug-In . SVG Version: 6.00 Build 0)  -->
<svg version="1.1" id="Capa_1" xmlns="http://www.w3.org/2000/svg" xmlns:xlink="http://www.w3.org/1999/xlink" x="0px" y="0px"
	 viewBox="0 0 512 512" style="enable-background:new 0 0 512 512;" xml:space="preserve">
<g>
	<g>
		<circle cx="307.157" cy="162.133" r="17.067"/>
	</g>
</g>
<g>
	<g>
		<path d="M263.595,157.423l-15.266-7.637l-25.6,51.2c-1.101,2.21-1.195,4.796-0.247,7.083c0.939,2.287,2.833,4.045,5.18,4.83
			l25.6,8.533l5.402-16.188l-16.265-5.419L263.595,157.423z"/>
	</g>
</g>
<g>
	<g>
		<circle cx="196.224" cy="162.133" r="17.067"/>
	</g>
</g>
<g>
	<g>
		<polygon points="324.224,256 324.224,273.067 324.745,273.067 		"/>
	</g>
</g>
<g>
	<g>
		<path d="M255.957,0C190.08,0,136.491,53.589,136.491,119.467v25.6h17.067v-25.6c0-56.465,45.935-102.4,102.4-102.4
			c56.465,0,102.4,45.935,102.4,102.4v17.067h17.067v-17.067C375.424,53.589,321.835,0,255.957,0z"/>
	</g>
</g>
<g>
	<g>
		<path d="M358.349,128h-8.533c-4.634,0-8.414,3.703-8.533,8.329l-1.613,66.654c0.213,32.375-18.466,62.438-47.684,76.621
			l-0.196,0.102c-0.247,0.102-0.504,0.205-0.751,0.333l-16.119,8.098c-11.921,5.939-26.18,5.948-38.101,0l-17.161-8.576
			c-29.124-14.14-47.804-44.203-47.582-76.826l-1.451-66.389c-0.102-4.634-3.891-8.346-8.533-8.346h-8.533
			c-18.825,0-34.133,15.309-34.133,34.133s15.309,34.133,34.133,34.133h1.306l0.154,6.596c-0.273,38.92,22.178,75.051,57.105,92.006
			l17.075,8.533c8.346,4.164,17.502,6.246,26.667,6.246c9.148,0,18.295-2.074,26.633-6.229c0.017-0.009,0.034-0.017,0.051-0.026
			l16.973-8.491c35.012-16.99,57.463-53.12,57.207-91.776l0.171-6.861h1.451c18.825,0,34.133-15.309,34.133-34.133
			C392.482,143.309,377.173,128,358.349,128z M153.557,179.2c-9.412,0-17.067-7.654-17.067-17.067
			c0-9.412,7.654-17.067,17.067-17.067l0.93,34.133H153.557z M358.357,179.2h-1.033l0.828-34.133h0.205
			c9.412,0,17.067,7.654,17.067,17.067C375.424,171.546,367.77,179.2,358.357,179.2z"/>
	</g>
</g>
<g>
	<g>
		<path d="M227.866,45.167l-12.083,12.058c4.053,4.087,14.575,17.101,14.575,28.109h17.067
			C247.424,65.306,229.862,47.164,227.866,45.167z"/>
	</g>
</g>
<g>
	<g>
		<path d="M284.058,45.167c-1.997,1.997-19.567,20.139-19.567,40.166h17.067c0-11.008,10.53-24.021,14.575-28.109L284.058,45.167z"
			/>
	</g>
</g>
<g>
	<g>
		<path d="M331.947,68.301c-8.678,0.819-16.7,4.83-22.571,11.281l12.621,11.494c3.021-3.302,7.125-5.359,11.563-5.786
			L331.947,68.301z"/>
	</g>
</g>
<g>
	<g>
		<path d="M188.493,68.309l-1.604,16.99c4.446,0.418,8.542,2.475,11.554,5.777l12.629-11.477
			C205.193,73.139,197.18,69.129,188.493,68.309z"/>
	</g>
</g>
<g>
	<g>
		<rect x="147.65" y="115.208" transform="matrix(0.3715 -0.9284 0.9284 0.3715 -7.649 236.1831)" width="45.951" height="17.066"/>
	</g>
</g>
<g>
	<g>
		
			<rect x="332.743" y="100.385" transform="matrix(0.8944 -0.4472 0.4472 0.8944 -17.397 165.2357)" width="17.066" height="38.16"/>
	</g>
</g>
<g>
	<g>
		<path d="M358.357,17.067h-42.667v17.067h42.667c23.526,0,42.667,19.14,42.667,42.667v219.324
			c-20.258-7.578-34.125-26.965-34.133-49.34v-59.051h-17.067v59.051c0.008,34.244,24.542,63.198,58.334,68.83
			c0.469,0.077,0.93,0.119,1.4,0.119c2.005,0,3.968-0.708,5.513-2.022c1.92-1.621,3.021-4.002,3.021-6.511V76.8
			C418.091,43.861,391.287,17.067,358.357,17.067z"/>
	</g>
</g>
<g>
	<g>
		<path d="M275.516,224.367c-3.823,3.831-9.122,6.033-14.524,6.033h-22.101v17.067h22.11c9.907,0,19.601-4.028,26.598-11.042
			L275.516,224.367z"/>
	</g>
</g>
<g>
	<g>
		<path d="M204.851,290.133v35.738c0.026,4.326-3.183,7.996-7.458,8.533l-76.8,9.557c-30.089,3.738-52.599,29.414-52.369,59.665V512
			h17.067h0.009V403.558c-0.162-21.649,15.915-39.996,37.41-42.667l76.809-9.557c12.868-1.604,22.502-12.612,22.4-25.532v-35.669
			H204.851z"/>
	</g>
</g>
<g>
	<g>
		<path d="M391.407,344.38l-76.783-9.549c-4.292-0.546-7.501-4.207-7.467-8.602v-36.096h-17.067v36.036
			c-0.102,12.971,9.532,23.979,22.417,25.6l76.8,9.549c21.487,2.679,37.572,21.018,37.402,42.735V512h17.067V404.113
			C444.006,373.803,421.496,348.117,391.407,344.38z"/>
	</g>
</g>
<g>
	<g>
		<path d="M324.924,337.971l-5.461,12.723c-10.897,25.421-35.806,41.839-63.471,41.839c-0.026,0-0.051,0-0.077,0
			c-27.648,0-52.557-16.427-63.454-41.847l-5.461-12.715l-15.684,6.733l5.461,12.706c13.585,31.71,44.646,52.19,79.13,52.19
			c0.026,0,0.06,0,0.094,0c34.492,0,65.562-20.48,79.147-52.181l5.461-12.715L324.924,337.971z"/>
	</g>
</g>
<g>
	<g>
		<path d="M136.491,418.133v23.586l-0.887,1.783c-10.59,21.154-16.179,44.843-16.179,68.497h17.067
			c0-21.018,4.966-42.069,14.379-60.868l1.792-3.584c0.589-1.178,0.896-2.492,0.896-3.814v-25.6H136.491z"/>
	</g>
</g>
<g>
	<g>
		<rect x="76.757" y="435.2" width="68.267" height="17.067"/>
	</g>
</g>
<g>
	<g>
		<rect x="366.891" y="435.2" width="68.267" height="17.067"/>
	</g>
</g>
<g>
	<g>
		<path d="M376.311,443.503l-0.887-1.783v-23.586h-17.067v25.6c0,1.323,0.307,2.628,0.896,3.814l1.792,3.584
			c9.421,18.807,14.387,39.851,14.379,60.868h17.067C392.499,488.354,386.91,464.666,376.311,443.503z"/>
	</g>
</g>
<g>
</g>
<g>
</g>
<g>
</g>
<g>
</g>
<g>
</g>
<g>
</g>
<g>
</g>
<g>
</g>
<g>
</g>
<g>
</g>
<g>
</g>
<g>
</g>
<g>
</g>
<g>
</g>
<g>
</g>
</svg>
