<?xml version="1.0" encoding="iso-8859-1"?>
<!-- Generator: Adobe Illustrator 19.0.0, SVG Export Plug-In . SVG Version: 6.00 Build 0)  -->
<svg version="1.1" id="Capa_1" xmlns="http://www.w3.org/2000/svg" xmlns:xlink="http://www.w3.org/1999/xlink" x="0px" y="0px"
	 viewBox="0 0 512 512" style="enable-background:new 0 0 512 512;" xml:space="preserve">
<g>
	<g>
		<circle cx="307.204" cy="162.133" r="17.067"/>
	</g>
</g>
<g>
	<g>
		<path d="M253.504,185.233l-12.066-12.066l-17.067,17.067c-3.337,3.336-3.337,8.73,0,12.066l17.067,17.067l12.066-12.066
			l-11.034-11.034L253.504,185.233z"/>
	</g>
</g>
<g>
	<g>
		<path d="M204.813,290.133v36.079c0.034,4.326-3.174,7.996-7.458,8.533l-19.2,2.389l2.108,16.93l19.209-2.389
			c12.885-1.604,22.511-12.612,22.409-25.532v-36.011H204.813z"/>
	</g>
</g>
<g>
	<g>
		<path d="M135.087,341.461l-14.447,2.5c-30.089,3.738-52.599,29.414-52.369,59.665V512h17.067V403.567
			c-0.162-21.649,15.915-39.996,37.803-42.726l14.848-2.56L135.087,341.461z"/>
	</g>
</g>
<g>
	<g>
		<path d="M391.949,344.388l-14.848-2.901l-3.268,16.751l15.437,2.995c21.487,2.679,37.572,21.018,37.402,42.735V512h17.058V404.028
			C443.968,373.726,421.457,348.041,391.949,344.388z"/>
	</g>
</g>
<g>
	<g>
		<path d="M314.671,334.831c-4.292-0.546-7.501-4.207-7.467-8.602v-36.096h-17.067v36.028c-0.102,12.971,9.532,23.979,22.451,25.609
			l19.2,2.304l2.031-16.947L314.671,334.831z"/>
	</g>
</g>
<g>
	<g>
		<path d="M277.79,222.763c-9.993,5-21.171,7.637-32.341,7.637c-0.009,0-0.017,0-0.026,0h-6.485v17.067h6.485
			c0.008,0,0.017,0,0.026,0c13.807,0,27.631-3.26,39.979-9.438L277.79,222.763z"/>
	</g>
</g>
<g>
	<g>
		<circle cx="204.804" cy="162.133" r="17.067"/>
	</g>
</g>
<g>
	<g>
		<polygon points="324.271,256 324.271,273.067 324.791,273.067 		"/>
	</g>
</g>
<g>
	<g>
		<path d="M256.004,0c-70.579,0-128,57.421-128,128v210.039c0.102,31.343,18.944,59.187,48,70.938
			c1.033,0.418,2.116,0.623,3.2,0.623c1.673,0,3.345-0.495,4.77-1.459c2.355-1.579,3.763-4.241,3.763-7.074V141.03
			c14.097-9.771,27.563-20.693,40.337-32.777c9.984-10.573,19.354-21.854,27.93-33.647c8.576,11.776,17.929,23.057,27.896,33.613
			c11.136,11.93,24.994,20.873,40.371,26.103v266.744c0,2.833,1.408,5.495,3.763,7.066c2.355,1.596,5.333,1.894,7.97,0.836
			c29.056-11.75,47.898-39.586,48-70.963V128C384.004,57.421,326.583,0,256.004,0z M366.938,337.98
			c-0.068,19.849-9.788,37.896-25.6,48.845V128c0-3.866-2.603-7.245-6.332-8.252c-14.805-3.951-28.169-11.972-38.656-23.211
			c-12.186-12.902-23.373-26.889-33.263-41.574c-1.587-2.347-4.241-3.763-7.083-3.763s-5.495,1.417-7.083,3.763
			c-9.899,14.711-21.094,28.698-32.913,41.233c-12.885,12.16-26.871,23.356-41.574,33.254c-2.347,1.587-3.763,4.241-3.763,7.083
			v250.291c-15.812-10.948-25.532-28.996-25.6-48.819V128c0-61.167,49.766-110.933,110.933-110.933S366.938,66.833,366.938,128
			V337.98z"/>
	</g>
</g>
<g>
	<g>
		<path d="M325.704,249.924c-8.405,12.638-20.036,22.904-33.655,29.688l-0.196,0.102c-0.247,0.102-0.503,0.205-0.751,0.333
			l-16.119,8.098c-11.921,5.939-26.18,5.948-38.101,0l-16.683-8.346c-12.843-8.166-24.482-18.082-34.611-29.466l-12.749,11.341
			c11.273,12.681,24.26,23.706,38.588,32.768c0.239,0.162,0.486,0.299,0.742,0.427l17.075,8.533
			c8.346,4.164,17.502,6.246,26.667,6.246c9.148,0,18.295-2.074,26.65-6.212c0.017-0.009,0.034-0.017,0.051-0.026l17.058-8.525
			c16.265-8.107,30.182-20.386,40.252-35.516L325.704,249.924z"/>
	</g>
</g>
<g>
	<g>
		<path d="M136.538,418.133v23.586l-0.887,1.783c-10.59,21.154-16.179,44.843-16.179,68.497h17.067
			c0-21.018,4.966-42.069,14.379-60.868l1.792-3.584c0.589-1.178,0.896-2.492,0.896-3.814v-25.6H136.538z"/>
	</g>
</g>
<g>
	<g>
		<path d="M376.358,443.503l-0.887-1.783v-23.586h-17.067v25.6c0,1.323,0.307,2.637,0.896,3.814l1.792,3.584
			c9.421,18.807,14.387,39.851,14.379,60.868h17.067C392.546,488.354,386.957,464.666,376.358,443.503z"/>
	</g>
</g>
<g>
	<g>
		<path d="M293.534,319.42c-22.101,16.648-52.966,16.648-75.068,0L208.2,333.056c14.08,10.598,30.942,15.898,47.804,15.898
			c16.87,0,33.732-5.308,47.795-15.898L293.534,319.42z"/>
	</g>
</g>
<g>
	<g>
		<rect x="76.804" y="435.2" width="68.267" height="17.067"/>
	</g>
</g>
<g>
	<g>
		<rect x="366.938" y="435.2" width="68.267" height="17.067"/>
	</g>
</g>
<g>
</g>
<g>
</g>
<g>
</g>
<g>
</g>
<g>
</g>
<g>
</g>
<g>
</g>
<g>
</g>
<g>
</g>
<g>
</g>
<g>
</g>
<g>
</g>
<g>
</g>
<g>
</g>
<g>
</g>
</svg>
