<?xml version="1.0" encoding="iso-8859-1"?>
<!-- Generator: Adobe Illustrator 19.0.0, SVG Export Plug-In . SVG Version: 6.00 Build 0)  -->
<svg version="1.1" id="Capa_1" xmlns="http://www.w3.org/2000/svg" xmlns:xlink="http://www.w3.org/1999/xlink" x="0px" y="0px"
	 viewBox="0 0 512 512" style="enable-background:new 0 0 512 512;" xml:space="preserve">
<g>
	<g>
		<circle cx="307.157" cy="162.133" r="17.067"/>
	</g>
</g>
<g>
	<g>
		<path d="M249.685,190.874l14.37-43.102l-16.188-5.402l-17.067,51.2c-1.493,4.471,0.922,9.301,5.393,10.795l25.6,8.533
			l5.393-16.188L249.685,190.874z"/>
	</g>
</g>
<g>
	<g>
		<path d="M204.851,290.133v35.738c0.026,4.326-3.183,7.996-7.458,8.533l-76.8,9.557c-30.089,3.738-52.599,29.414-52.369,59.665V512
			h17.067h0.009V403.558c-0.162-21.649,15.915-39.996,37.41-42.667l76.809-9.557c12.868-1.604,22.502-12.612,22.4-25.532v-35.669
			H204.851z"/>
	</g>
</g>
<g>
	<g>
		<path d="M391.407,344.38l-76.783-9.549c-4.292-0.546-7.501-4.207-7.467-8.602v-36.096h-17.067v36.036
			c-0.102,12.971,9.532,23.979,22.417,25.6l76.8,9.549c21.487,2.679,37.572,21.018,37.402,42.735V512h17.067V404.113
			C444.006,373.803,421.496,348.117,391.407,344.38z"/>
	</g>
</g>
<g>
	<g>
		<path d="M358.357,136.533h-8.533V153.6h8.533c9.412,0,17.067,7.654,17.067,17.067c0,9.412-7.654,17.067-17.067,17.067h-8.533
			V204.8h8.533c18.825,0,34.133-15.309,34.133-34.133S377.182,136.533,358.357,136.533z"/>
	</g>
</g>
<g>
	<g>
		<path d="M324.924,337.971l-5.461,12.723c-10.897,25.421-35.806,41.839-63.471,41.839c-0.026,0-0.051,0-0.077,0
			c-27.648,0-52.557-16.427-63.454-41.847l-5.461-12.715l-15.684,6.733l5.461,12.706c13.585,31.71,44.646,52.19,79.13,52.19
			c0.026,0,0.06,0,0.094,0c34.492,0,65.562-20.48,79.147-52.181l5.461-12.715L324.924,337.971z"/>
	</g>
</g>
<g>
	<g>
		<path d="M341.316,136.013l-4.702,76.945c-1.911,43.273-37.333,77.175-80.648,77.175c-27.076-0.017-52.582-13.218-68.224-35.302
			l-13.926,9.865c18.833,26.598,49.536,42.487,82.142,42.505c52.48,0,95.394-41.062,97.698-93.346l4.693-76.8L341.316,136.013z"/>
	</g>
</g>
<g>
	<g>
		<path d="M277.743,222.763c-9.993,5-21.171,7.637-32.341,7.637c-0.009,0-0.017,0-0.026,0h-6.485v17.067h6.485
			c0.009,0,0.017,0,0.026,0c13.807,0,27.631-3.26,39.979-9.438L277.743,222.763z"/>
	</g>
</g>
<g>
	<g>
		<circle cx="204.757" cy="162.133" r="17.067"/>
	</g>
</g>
<g>
	<g>
		<path d="M255.957,0c-70.579,0-128,57.421-128,128v25.6h17.067V128c0-61.167,49.766-110.933,110.933-110.933
			S366.891,66.833,366.891,128v25.6h17.067V128C383.957,57.421,326.537,0,255.957,0z"/>
	</g>
</g>
<g>
	<g>
		<path d="M336.392,84.907c-3.738-10.001-13.44-16.708-24.03-16.64h-55.825c-23.808-3.14-69.658,5.069-77.295,58.522
			c-6.426,44.962-8.013,113.092-4.864,156.57c-13.517-24.516-29.355-68.207-29.355-138.291h-17.067
			c0,130.5,52.053,175.377,54.272,177.229c1.57,1.306,3.516,1.971,5.461,1.971c1.673,0,3.354-0.495,4.796-1.468
			c3.149-2.15,4.489-6.135,3.285-9.754c-7.492-22.477-8.576-121.344,0.35-183.825c7.083-49.545,53.41-44.672,58.615-43.964
			c0.401,0.06,0.811,0.085,1.212,0.085h56.439c0.009,0,0.017,0,0.026,0c3.55,0,6.75,2.219,7.996,5.547l21.419,57.173l15.983-5.982
			L336.392,84.907z"/>
	</g>
</g>
<g>
	<g>
		<path d="M366.891,187.733c0,1.169-0.29,117.589-24.38,157.747l14.635,8.781c26.505-44.186,26.812-161.553,26.812-166.528H366.891z
			"/>
	</g>
</g>
<g>
	<g>
		<path d="M145.024,153.6h-17.067c0,5.982,0.205,147.046,17.502,198.963l16.196-5.393C145.22,297.865,145.024,155.034,145.024,153.6
			z"/>
	</g>
</g>
<g>
</g>
<g>
</g>
<g>
</g>
<g>
</g>
<g>
</g>
<g>
</g>
<g>
</g>
<g>
</g>
<g>
</g>
<g>
</g>
<g>
</g>
<g>
</g>
<g>
</g>
<g>
</g>
<g>
</g>
</svg>
