<?xml version="1.0" encoding="iso-8859-1"?>
<!-- Generator: Adobe Illustrator 19.0.0, SVG Export Plug-In . SVG Version: 6.00 Build 0)  -->
<svg version="1.1" id="Capa_1" xmlns="http://www.w3.org/2000/svg" xmlns:xlink="http://www.w3.org/1999/xlink" x="0px" y="0px"
	 viewBox="0 0 512 512" style="enable-background:new 0 0 512 512;" xml:space="preserve">
<g>
	<g>
		<circle cx="307.157" cy="162.133" r="17.067"/>
	</g>
</g>
<g>
	<g>
		<path d="M243.661,200.243l10.871-16.307l-14.199-9.463l-17.067,25.6c-1.476,2.21-1.835,4.984-0.973,7.501
			c0.862,2.509,2.85,4.48,5.367,5.325l25.6,8.533l5.402-16.188L243.661,200.243z"/>
	</g>
</g>
<g>
	<g>
		<path d="M204.851,290.133v35.738c0.026,4.326-3.183,7.996-7.458,8.533l-76.8,9.557c-30.089,3.738-52.599,29.414-52.369,59.665V512
			h17.067h0.009V403.558c-0.162-21.649,15.915-39.996,37.41-42.667l76.809-9.557c12.868-1.604,22.502-12.612,22.4-25.532v-35.669
			H204.851z"/>
	</g>
</g>
<g>
	<g>
		<path d="M391.407,344.38l-76.783-9.549c-4.292-0.546-7.501-4.207-7.467-8.602v-36.096h-17.067v36.036
			c-0.102,12.971,9.532,23.979,22.417,25.6l76.8,9.549c21.487,2.679,37.572,21.018,37.402,42.735V512h17.067V404.113
			C444.006,373.803,421.496,348.117,391.407,344.38z"/>
	</g>
</g>
<g>
	<g>
		<path d="M358.357,136.533h-8.533V153.6h8.533c9.412,0,17.067,7.654,17.067,17.067c0,9.412-7.654,17.067-17.067,17.067h-8.533
			V204.8h8.533c18.825,0,34.133-15.309,34.133-34.133S377.182,136.533,358.357,136.533z"/>
	</g>
</g>
<g>
	<g>
		<path d="M324.924,337.971l-5.461,12.723c-10.897,25.421-35.806,41.839-63.471,41.839c-0.026,0-0.051,0-0.077,0
			c-27.648,0-52.557-16.427-63.454-41.847l-5.461-12.715l-15.684,6.733l5.461,12.706c13.585,31.71,44.646,52.19,79.13,52.19
			c0.026,0,0.06,0,0.094,0c34.492,0,65.562-20.48,79.147-52.181l5.461-12.715L324.924,337.971z"/>
	</g>
</g>
<g>
	<g>
		<path d="M277.743,222.763c-9.993,5-21.171,7.637-32.341,7.637c-0.009,0-0.017,0-0.026,0h-6.485v17.067h6.485
			c0.009,0,0.017,0,0.026,0c13.807,0,27.631-3.26,39.979-9.438L277.743,222.763z"/>
	</g>
</g>
<g>
	<g>
		<path d="M255.957,0c-62.089,0-103.253,25.643-119.031,74.104c-16.162,48.486-27.648,180.19,17.399,279.296l15.531-7.066
			c-43.085-94.788-32.162-220.561-16.717-266.889c13.474-41.395,48.06-62.379,102.818-62.379
			c79.829,0,110.933,38.281,110.933,136.533h17.067C383.957,45.935,345.677,0,255.957,0z"/>
	</g>
</g>
<g>
	<g>
		<path d="M351.744,136.747c-106.675-24.61-149.086-65.587-149.487-65.98c-1.988-1.988-4.821-2.876-7.595-2.355
			c-2.765,0.512-5.094,2.355-6.238,4.924l-34.133,76.8c-0.572,1.297-0.819,2.722-0.708,4.139l4.676,59.435
			c2.313,52.42,45.227,93.491,97.698,93.491c52.48,0,95.394-41.062,97.69-93.286l4.693-68.267
			C358.63,141.466,355.831,137.694,351.744,136.747z M336.606,212.958c-1.903,43.273-37.333,77.175-80.649,77.175
			S177.22,256.23,175.3,212.659l-4.531-57.574l28.638-64.435c17.545,13.508,61.227,41.54,141.406,61.047L336.606,212.958z"/>
	</g>
</g>
<g>
	<g>
		<circle cx="204.757" cy="162.133" r="17.067"/>
	</g>
</g>
<g>
	<g>
		<path d="M366.891,187.725c0,1.015-0.205,101.914-16.742,159.795l16.418,4.685c17.195-60.186,17.391-160.239,17.391-164.48H366.891
			z"/>
	</g>
</g>
<g>
	<g>
		<path d="M136.491,418.133v23.586l-0.887,1.783c-10.59,21.154-16.179,44.843-16.179,68.497h17.067
			c0-21.018,4.966-42.069,14.379-60.868l1.792-3.584c0.589-1.178,0.896-2.492,0.896-3.814v-25.6H136.491z"/>
	</g>
</g>
<g>
	<g>
		<rect x="76.757" y="435.2" width="68.267" height="17.067"/>
	</g>
</g>
<g>
	<g>
		<rect x="366.891" y="435.2" width="68.267" height="17.067"/>
	</g>
</g>
<g>
	<g>
		<path d="M376.311,443.503l-0.887-1.783v-23.586h-17.067v25.6c0,1.323,0.307,2.628,0.896,3.814l1.792,3.584
			c9.421,18.807,14.387,39.851,14.379,60.868h17.067C392.499,488.354,386.91,464.666,376.311,443.503z"/>
	</g>
</g>
<g>
</g>
<g>
</g>
<g>
</g>
<g>
</g>
<g>
</g>
<g>
</g>
<g>
</g>
<g>
</g>
<g>
</g>
<g>
</g>
<g>
</g>
<g>
</g>
<g>
</g>
<g>
</g>
<g>
</g>
</svg>
