<?xml version="1.0" encoding="iso-8859-1"?>
<!-- Generator: Adobe Illustrator 19.0.0, SVG Export Plug-In . SVG Version: 6.00 Build 0)  -->
<svg version="1.1" id="Capa_1" xmlns="http://www.w3.org/2000/svg" xmlns:xlink="http://www.w3.org/1999/xlink" x="0px" y="0px"
	 viewBox="0 0 512 512" style="enable-background:new 0 0 512 512;" xml:space="preserve">
<g>
	<g>
		<circle cx="307.157" cy="162.133" r="17.067"/>
	</g>
</g>
<g>
	<g>
		<path d="M263.595,157.423l-15.266-7.637l-25.6,51.2c-1.101,2.21-1.195,4.796-0.247,7.083c0.939,2.287,2.833,4.045,5.18,4.83
			l25.6,8.533l5.402-16.188l-16.265-5.419L263.595,157.423z"/>
	</g>
</g>
<g>
	<g>
		<path d="M204.851,290.133v35.738c0.026,4.326-3.183,7.996-7.458,8.533l-76.8,9.557c-30.089,3.738-52.599,29.414-52.369,59.665V512
			h17.067h0.009V403.558c-0.162-21.649,15.915-39.996,37.41-42.667l76.809-9.557c12.868-1.604,22.502-12.612,22.4-25.532v-35.669
			H204.851z"/>
	</g>
</g>
<g>
	<g>
		<path d="M391.407,344.38l-76.783-9.549c-4.292-0.546-7.501-4.207-7.467-8.602v-36.096h-17.067v36.036
			c-0.102,12.971,9.532,23.979,22.417,25.6l76.8,9.549c21.487,2.679,37.572,21.018,37.402,42.735V512h17.067V404.113
			C444.006,373.803,421.496,348.117,391.407,344.38z"/>
	</g>
</g>
<g>
	<g>
		<path d="M277.743,222.763c-9.993,5-21.171,7.637-32.341,7.637c-0.009,0-0.017,0-0.026,0h-6.485v17.067h6.485
			c0.009,0,0.017,0,0.026,0c13.807,0,27.631-3.26,39.979-9.438L277.743,222.763z"/>
	</g>
</g>
<g>
	<g>
		<path d="M215.603,42.991l-4.625,16.427c12.151,3.413,22.519,11.196,29.21,21.905l14.473-9.037
			C245.717,57.967,231.851,47.565,215.603,42.991z"/>
	</g>
</g>
<g>
	<g>
		<path d="M170.624,59.733V76.8c11.008,0,24.03,10.522,28.117,14.575L210.79,79.3C208.794,77.295,190.652,59.733,170.624,59.733z"/>
	</g>
</g>
<g>
	<g>
		<circle cx="196.224" cy="162.133" r="17.067"/>
	</g>
</g>
<g>
	<g>
		<path d="M330.65,154.257c2.927-27.315,5.239-48.905,1.852-62.464c-2.714-10.88-8.832-19.021-17.69-23.552
			c-18.483-9.446-42.3-0.427-44.954,0.631l6.323,15.855c5.248-2.074,21.06-6.349,30.891-1.271c4.446,2.278,7.347,6.366,8.883,12.476
			c2.645,10.624,0.256,32.913-2.278,56.508c-5.222,48.777-11.742,109.483,11.674,150.46l14.814-8.474
			C319.488,258.253,325.675,200.593,330.65,154.257z"/>
	</g>
</g>
<g>
	<g>
		<polygon points="324.224,256 324.224,273.067 324.745,273.067 		"/>
	</g>
</g>
<g>
	<g>
		<path d="M318.31,258.961c-7.62,8.806-16.742,15.906-27.162,21.077l-16.102,8.098c-11.947,5.948-26.197,5.948-38.118,0
			l-17.075-8.533c-25.813-12.877-43.546-37.555-47.514-66.099l-1.698-68.437V102.4h-17.067v42.88l1.707,69.12
			c0,0.307,0.026,0.614,0.068,0.922c4.599,34.347,25.856,64.085,56.866,79.548l17.075,8.533c8.346,4.164,17.502,6.246,26.667,6.246
			s18.347-2.082,26.735-6.255l16.094-8.09c12.424-6.17,23.347-14.652,32.444-25.19L318.31,258.961z"/>
	</g>
</g>
<g>
	<g>
		<path d="M127.957,187.733v51.2c0,7.902-4.471,19.123-9.634,32.12c-9.617,24.183-21.589,54.272-15.846,88.747l16.828-2.799
			c-4.966-29.781,6.033-57.421,14.874-79.642c5.82-14.626,10.846-27.255,10.846-38.426v-51.2H127.957z"/>
	</g>
</g>
<g>
	<g>
		<path d="M398.473,261.18c-2.697-9.199-5.035-17.143-6.059-23.373c-5.572-41.907-8.414-84.591-8.457-126.874
			C383.957,46.652,340.89,0,281.557,0h-51.2c-59.332,0-102.4,46.652-102.4,110.933V153.6h17.067v-42.667
			c0-54.391,35.891-93.867,85.333-93.867h51.2c49.442,0,85.333,39.475,85.333,93.875c0.043,43.025,2.944,86.468,8.636,129.365
			c1.237,7.526,3.712,15.94,6.579,25.694c7.287,24.823,16.367,55.731,10.496,90.999l16.836,2.799
			C415.966,320.674,405.862,286.293,398.473,261.18z"/>
	</g>
</g>
<g>
	<g>
		<path d="M153.557,153.6h8.533v-17.067h-8.533c-18.825,0-34.133,15.309-34.133,34.133s15.309,34.133,34.133,34.133h8.533v-17.067
			h-8.533c-9.412,0-17.067-7.654-17.067-17.067C136.491,161.254,144.145,153.6,153.557,153.6z"/>
	</g>
</g>
<g>
	<g>
		<path d="M324.25,349.141l-2.91,34.185c-2.688,33.869-31.42,60.399-65.391,60.407c-33.971-0.009-62.694-26.539-65.391-60.459
			l-2.901-34.133l-17.007,1.451l2.901,34.082c3.396,42.675,39.595,76.117,82.406,76.126c42.82-0.009,79.01-33.451,82.389-76.075
			l2.901-34.133L324.25,349.141z"/>
	</g>
</g>
<g>
	<g>
		<path d="M153.515,442.889l-8.533-85.333L128,359.253l8.209,82.022l-3.123,4.164c-14.319,19.081-22.195,42.709-22.195,66.56h17.067
			c0-20.173,6.665-40.183,18.773-56.32l5.12-6.827C153.131,447.147,153.728,445.013,153.515,442.889z"/>
	</g>
</g>
<g>
	<g>
		<path d="M378.837,445.423l-3.123-4.164l8.201-82.014l-16.981-1.698L358.4,442.88c-0.213,2.133,0.384,4.258,1.664,5.973
			l5.129,6.818c12.1,16.145,18.765,36.147,18.765,56.328h17.067C401.024,488.149,393.148,464.521,378.837,445.423z"/>
	</g>
</g>
<g>
</g>
<g>
</g>
<g>
</g>
<g>
</g>
<g>
</g>
<g>
</g>
<g>
</g>
<g>
</g>
<g>
</g>
<g>
</g>
<g>
</g>
<g>
</g>
<g>
</g>
<g>
</g>
<g>
</g>
</svg>
