<?xml version="1.0" encoding="iso-8859-1"?>
<!-- Generator: Adobe Illustrator 19.0.0, SVG Export Plug-In . SVG Version: 6.00 Build 0)  -->
<svg version="1.1" id="Capa_1" xmlns="http://www.w3.org/2000/svg" xmlns:xlink="http://www.w3.org/1999/xlink" x="0px" y="0px"
	 viewBox="0 0 512 512" style="enable-background:new 0 0 512 512;" xml:space="preserve">
<g>
	<g>
		<path d="M240.853,199.287l14.822-51.874l-16.41-4.693l-17.067,59.733c-1.254,4.403,1.169,9.003,5.504,10.445l25.6,8.533
			l5.402-16.196L240.853,199.287z"/>
	</g>
</g>
<g>
	<g>
		<path d="M358.4,136.533h-8.533V153.6h8.533c9.412,0,17.067,7.654,17.067,17.067c0,9.412-7.654,17.067-17.067,17.067h-8.533V204.8
			h8.533c18.825,0,34.133-15.309,34.133-34.133S377.225,136.533,358.4,136.533z"/>
	</g>
</g>
<g>
	<g>
		<path d="M341.35,136.013l-4.702,76.945c-1.903,43.273-37.333,77.175-80.649,77.175c-43.315,0-78.746-33.903-80.674-77.585
			l-4.693-51.2l-16.99,1.562l4.659,50.799c2.313,52.42,45.227,93.491,97.698,93.491c52.471,0,95.394-41.062,97.69-93.346l4.693-76.8
			L341.35,136.013z"/>
	</g>
</g>
<g>
	<g>
		<path d="M277.786,222.763c-9.984,5-21.171,7.637-32.341,7.637c-0.009,0-0.017,0-0.026,0h-6.485v17.067h6.485
			c0.008,0,0.017,0,0.026,0c13.807,0,27.631-3.26,39.979-9.438L277.786,222.763z"/>
	</g>
</g>
<g>
	<g>
		<path d="M256,0c-54.741,0-93.508,23.851-118.528,72.9c-15.283,29.79-13.739,143.411-10.197,250.633
			c0.41,12.766,0.725,22.093,0.725,26.334h17.067c0-4.326-0.316-13.858-0.742-26.897c-1.911-58.095-6.989-212.412,8.346-242.295
			C174.498,37.871,208.299,17.067,256,17.067c76.715,0,110.933,42.112,110.933,136.533H384C384,50.244,342.135,0,256,0z"/>
	</g>
</g>
<g>
	<g>
		<path d="M306.867,48.853c-0.922-3.251-3.695-5.623-7.049-6.084c-3.388-0.478-6.673,1.118-8.439,4.002
			c-0.256,0.41-26.359,41.583-124.535,90.667l7.637,15.266c70.673-35.345,105.651-66.876,121.071-83.891
			c7.544,20.608,23.484,57.489,48.282,82.287l12.066-12.066C323.772,106.906,307.038,49.425,306.867,48.853z"/>
	</g>
</g>
<g>
	<g>
		<rect x="366.933" y="187.733" width="17.067" height="153.6"/>
	</g>
</g>
<g>
	<g>
		<path d="M204.723,290.133v27.546c0.026,4.326-3.183,7.996-7.458,8.533l-61.798,7.68c-38.323,4.83-67.209,37.598-67.2,76.22V512
			h17.067V410.112c-0.008-30.046,22.46-55.535,52.267-59.29l61.79-7.68c12.868-1.604,22.502-12.612,22.4-25.532v-27.477H204.723z"/>
	</g>
</g>
<g>
	<g>
		<path d="M376.516,333.892l-61.773-7.68c-4.284-0.538-7.492-4.207-7.458-8.602v-27.477h-17.067v27.418
			c-0.102,12.979,9.532,23.996,22.417,25.6l61.764,7.68c29.807,3.746,52.275,29.235,52.267,59.281V512h17.067V410.112
			C443.742,371.482,414.848,338.714,376.516,333.892z"/>
	</g>
</g>
<g>
	<g>
		<rect x="170.667" y="332.8" width="17.067" height="179.2"/>
	</g>
</g>
<g>
	<g>
		<rect x="324.267" y="332.8" width="17.067" height="179.2"/>
	</g>
</g>
<g>
	<g>
		<path d="M329.318,418.876c-46.592,20.753-100.053,20.753-146.654,0l-6.938,15.582c25.515,11.358,52.898,17.041,80.273,17.041
			c27.383,0,54.767-5.683,80.265-17.041L329.318,418.876z"/>
	</g>
</g>
<g>
	<g>
		<path d="M238.933,136.533h-68.267c-9.412,0-17.067,7.654-17.067,17.067v17.067c0,18.825,15.309,34.133,34.133,34.133h25.6
			c18.825,0,34.133-15.309,34.133-34.133v-25.6C247.467,140.356,243.644,136.533,238.933,136.533z M230.4,170.667
			c0,9.412-7.654,17.067-17.067,17.067h-25.6c-9.412,0-17.067-7.654-17.067-17.067V153.6H230.4V170.667z"/>
	</g>
</g>
<g>
	<g>
		<path d="M332.8,136.533h-68.267c-4.71,0-8.533,3.823-8.533,8.533v25.6c0,18.825,15.309,34.133,34.133,34.133h25.6
			c18.825,0,34.133-15.309,34.133-34.133V153.6C349.867,144.188,342.212,136.533,332.8,136.533z M332.8,170.667
			c0,9.412-7.654,17.067-17.067,17.067h-25.6c-9.412,0-17.067-7.654-17.067-17.067V153.6H332.8V170.667z"/>
	</g>
</g>
<g>
	<g>
		<rect x="238.933" y="136.533" width="25.6" height="17.067"/>
	</g>
</g>
<g>
	<g>
		<circle cx="204.8" cy="162.133" r="17.067"/>
	</g>
</g>
<g>
	<g>
		<circle cx="307.2" cy="162.133" r="17.067"/>
	</g>
</g>
<g>
</g>
<g>
</g>
<g>
</g>
<g>
</g>
<g>
</g>
<g>
</g>
<g>
</g>
<g>
</g>
<g>
</g>
<g>
</g>
<g>
</g>
<g>
</g>
<g>
</g>
<g>
</g>
<g>
</g>
</svg>
