<?xml version="1.0" encoding="iso-8859-1"?>
<!-- Generator: Adobe Illustrator 19.0.0, SVG Export Plug-In . SVG Version: 6.00 Build 0)  -->
<svg version="1.1" id="Capa_1" xmlns="http://www.w3.org/2000/svg" xmlns:xlink="http://www.w3.org/1999/xlink" x="0px" y="0px"
	 viewBox="0 0 512 512" style="enable-background:new 0 0 512 512;" xml:space="preserve">
<g>
	<g>
		<circle cx="307.157" cy="162.133" r="17.067"/>
	</g>
</g>
<g>
	<g>
		<path d="M262.793,175.795l-13.653-10.24l-25.6,34.133c-1.647,2.193-2.142,5.043-1.323,7.663c0.819,2.611,2.842,4.676,5.444,5.547
			l25.6,8.533l5.41-16.188l-14.37-4.787L262.793,175.795z"/>
	</g>
</g>
<g>
	<g>
		<path d="M204.851,290.133v35.738c0.026,4.326-3.183,7.996-7.458,8.533l-76.8,9.557c-30.089,3.738-52.599,29.414-52.369,59.665V512
			h17.067h0.009V403.558c-0.162-21.649,15.915-39.996,37.41-42.667l76.809-9.557c12.868-1.604,22.502-12.612,22.4-25.532v-35.669
			H204.851z"/>
	</g>
</g>
<g>
	<g>
		<path d="M391.407,344.38l-76.783-9.549c-4.292-0.546-7.501-4.207-7.467-8.602v-36.096h-17.067v36.036
			c-0.102,12.971,9.532,23.979,22.417,25.6l76.8,9.549c21.487,2.679,37.572,21.018,37.402,42.735V512h17.067V404.113
			C444.006,373.803,421.496,348.117,391.407,344.38z"/>
	</g>
</g>
<g>
	<g>
		<path d="M358.357,136.533h-8.533V153.6h8.533c9.412,0,17.067,7.654,17.067,17.067c0,9.412-7.654,17.067-17.067,17.067h-8.533
			V204.8h8.533c18.825,0,34.133-15.309,34.133-34.133S377.182,136.533,358.357,136.533z"/>
	</g>
</g>
<g>
	<g>
		<path d="M324.924,337.971l-5.461,12.723c-10.897,25.421-35.806,41.839-63.471,41.839c-0.026,0-0.051,0-0.077,0
			c-27.648,0-52.557-16.427-63.454-41.847l-5.461-12.715l-15.684,6.733l5.461,12.706c13.585,31.71,44.646,52.19,79.13,52.19
			c0.026,0,0.06,0,0.094,0c34.492,0,65.562-20.48,79.147-52.181l5.461-12.715L324.924,337.971z"/>
	</g>
</g>
<g>
	<g>
		<path d="M341.308,136.013l-4.702,76.945c-1.903,43.273-37.333,77.175-80.649,77.175s-78.737-33.903-80.648-77.013l-0.427-17.067
			l-17.058,0.427l0.435,17.229c2.313,52.42,45.227,93.491,97.698,93.491c52.48,0,95.394-41.062,97.69-93.346l4.693-76.8
			L341.308,136.013z"/>
	</g>
</g>
<g>
	<g>
		<path d="M277.743,222.763c-9.993,5-21.171,7.637-32.341,7.637c-0.009,0-0.017,0-0.026,0h-6.485v17.067h6.485
			c0.009,0,0.017,0,0.026,0c13.807,0,27.631-3.26,39.979-9.438L277.743,222.763z"/>
	</g>
</g>
<g>
	<g>
		<path d="M375.424,153.6l-0.009-17.357C373.265,72.815,357.751,0,255.957,0c-49.28,0-83.081,10.547-110.029,64.452
			c-17.92,35.84-9.771,144.913-9.412,149.538c0.222,2.859,1.869,5.419,4.378,6.81c1.28,0.708,2.705,1.067,4.13,1.067
			c1.357,0,2.714-0.324,3.977-0.964c60.305-31.582,111.386-78.003,148.557-134.818c12.023,23.825,27.494,45.602,46.14,64.913
			l12.279-11.853c-20.915-21.666-37.572-46.652-49.51-74.266c-1.271-2.935-4.079-4.915-7.279-5.128
			c-3.234-0.222-6.246,1.382-7.876,4.13c-33.826,56.457-81.57,103.1-138.633,135.552c-1.988-36.608-3.021-104.286,8.516-127.352
			c23.253-46.507,50.15-55.014,94.763-55.014c69.854,0,99.516,34.697,102.4,119.467V153.6H375.424z"/>
	</g>
</g>
<g>
	<g>
		<rect x="358.357" y="196.267" width="17.067" height="153.6"/>
	</g>
</g>
<g>
	<g>
		<rect x="136.491" y="204.8" width="17.067" height="145.067"/>
	</g>
</g>
<g>
	<g>
		<path d="M136.491,349.867v91.853l-0.887,1.783c-10.59,21.154-16.179,44.843-16.179,68.497h17.067
			c0-21.018,4.966-42.069,14.379-60.868l1.792-3.584c0.589-1.178,0.896-2.492,0.896-3.814v-93.867H136.491z"/>
	</g>
</g>
<g>
	<g>
		<path d="M376.311,443.503l-0.887-1.783v-91.853h-17.067v93.867c0,1.323,0.307,2.628,0.896,3.814l1.792,3.584
			c9.421,18.807,14.387,39.851,14.379,60.868h17.067C392.499,488.354,386.91,464.666,376.311,443.503z"/>
	</g>
</g>
<g>
</g>
<g>
</g>
<g>
</g>
<g>
</g>
<g>
</g>
<g>
</g>
<g>
</g>
<g>
</g>
<g>
</g>
<g>
</g>
<g>
</g>
<g>
</g>
<g>
</g>
<g>
</g>
<g>
</g>
</svg>
