<?xml version="1.0" encoding="iso-8859-1"?>
<!-- Generator: Adobe Illustrator 19.0.0, SVG Export Plug-In . SVG Version: 6.00 Build 0)  -->
<svg version="1.1" id="Capa_1" xmlns="http://www.w3.org/2000/svg" xmlns:xlink="http://www.w3.org/1999/xlink" x="0px" y="0px"
	 viewBox="0 0 512 512" style="enable-background:new 0 0 512 512;" xml:space="preserve">
<g>
	<g>
		<path d="M229.308,55.552c-1.451-2.586-4.19-4.284-7.245-4.352c-3.814-0.29-7.108,2.287-8.294,5.837
			c-7.893,23.689-41.515,57.301-57.668,73.464l12.066,12.066c15.718-15.71,42.991-42.982,56.32-67.746
			c24.32,23.774,84.164,70.246,125.38,70.246V128C307.524,128,235.87,63.65,229.308,55.552z"/>
	</g>
</g>
<g>
	<g>
		<rect x="238.933" y="128" width="25.6" height="17.067"/>
	</g>
</g>
<g>
	<g>
		<path d="M334.345,34.202C312.277,12.143,282.948,0,251.75,0c-0.009,0-0.017,0-0.017,0c-5.171,0-10.385,0.35-15.479,1.015
			c-30.925,4.13-58.394,20.053-77.346,44.851c-18.953,24.798-27.11,55.484-22.989,86.357l0.683,5.376l16.93-2.15l-0.691-5.427
			c-3.524-26.411,3.447-52.617,19.627-73.779c16.179-21.171,39.637-34.773,66.048-38.298c4.352-0.58,8.798-0.879,13.218-0.879
			c0.009,0,0.009,0,0.017,0c54.989,0,99.738,44.74,99.755,99.738c0,4.412-0.299,8.858-0.888,13.278l-0.683,5.376l16.93,2.15
			l0.683-5.333c0.683-5.103,1.024-10.308,1.024-15.471C368.563,85.598,356.412,56.26,334.345,34.202z"/>
	</g>
</g>
<g>
	<g>
		<path d="M240.853,190.754l14.822-51.874l-16.41-4.693l-17.067,59.733c-1.254,4.403,1.169,9.003,5.504,10.445l25.6,8.533
			l5.402-16.196L240.853,190.754z"/>
	</g>
</g>
<g>
	<g>
		<path d="M358.4,128h-8.533v17.067h8.533c9.412,0,17.067,7.654,17.067,17.067c0,9.412-7.654,17.067-17.067,17.067h-8.533v17.067
			h8.533c18.825,0,34.133-15.309,34.133-34.133S377.225,128,358.4,128z"/>
	</g>
</g>
<g>
	<g>
		<path d="M341.35,127.479l-4.702,76.945C334.746,247.697,299.315,281.6,256,281.6c-43.315,0-78.746-33.903-80.657-77.389
			l-4.693-68.267l-17.024,1.169l4.676,68.062c2.313,52.42,45.227,93.491,97.698,93.491c52.471,0,95.394-41.062,97.69-93.346
			l4.693-76.8L341.35,127.479z"/>
	</g>
</g>
<g>
	<g>
		<path d="M153.6,145.067h8.533V128H153.6c-18.825,0-34.133,15.309-34.133,34.133s15.309,34.133,34.133,34.133h8.533V179.2H153.6
			c-9.412,0-17.067-7.654-17.067-17.067C136.533,152.721,144.188,145.067,153.6,145.067z"/>
	</g>
</g>
<g>
	<g>
		<path d="M277.786,214.229c-9.984,5-21.171,7.637-32.341,7.637c-0.009,0-0.017,0-0.026,0h-6.485v17.067h6.485
			c0.008,0,0.017,0,0.026,0c13.807,0,27.631-3.26,39.979-9.438L277.786,214.229z"/>
	</g>
</g>
<g>
	<g>
		<path d="M358.4,76.8v17.067c28.834,0,51.2,32.111,51.2,59.733v127.394c-28.911-4.156-51.2-29.082-51.2-59.127v-34.133h-17.067
			v34.133c0,42.351,34.449,76.8,76.8,76.8c4.719,0,8.533-3.814,8.533-8.533V153.6C426.667,117.342,397.474,76.8,358.4,76.8z"/>
	</g>
</g>
<g>
	<g>
		<path d="M238.933,128h-76.8c-4.71,0-8.533,3.823-8.533,8.533v25.6c0,18.825,15.309,34.133,34.133,34.133h25.6
			c18.825,0,34.133-15.309,34.133-34.133v-25.6C247.467,131.823,243.644,128,238.933,128z M230.4,162.133
			c0,9.412-7.654,17.067-17.067,17.067h-25.6c-9.412,0-17.067-7.654-17.067-17.067v-17.067H230.4V162.133z"/>
	</g>
</g>
<g>
	<g>
		<path d="M341.333,128h-76.8c-4.71,0-8.533,3.823-8.533,8.533v25.6c0,18.825,15.309,34.133,34.133,34.133h25.6
			c18.825,0,34.133-15.309,34.133-34.133v-25.6C349.867,131.823,346.052,128,341.333,128z M332.8,162.133
			c0,9.412-7.654,17.067-17.067,17.067h-25.6c-9.412,0-17.067-7.654-17.067-17.067v-17.067H332.8V162.133z"/>
	</g>
</g>
<g>
	<g>
		<path d="M351.582,336.213c-6.801,9.062-14.831,17.092-23.893,23.893c-25.532,19.149-57.011,27.187-88.576,22.69
			c-31.59-4.514-59.537-21.06-78.686-46.583l-13.653,10.232c26.795,35.729,67.849,54.571,109.397,54.571
			c28.501,0,57.25-8.875,81.758-27.264c10.359-7.765,19.541-16.947,27.307-27.307L351.582,336.213z"/>
	</g>
</g>
<g>
	<g>
		<path d="M204.723,281.6v36.079c0.026,4.326-3.183,7.996-7.458,8.533l-61.798,7.68c-38.323,4.83-67.209,37.598-67.2,76.22V512
			h17.067V410.112c-0.008-30.046,22.46-55.535,52.267-59.29l61.79-7.68c12.868-1.604,22.502-12.612,22.4-25.532V281.6H204.723z"/>
	</g>
</g>
<g>
	<g>
		<path d="M376.516,333.892l-61.773-7.68c-4.284-0.538-7.492-4.207-7.458-8.602V281.6h-17.067v35.951
			c-0.102,12.979,9.532,23.996,22.417,25.6l61.764,7.68c29.807,3.746,52.275,29.235,52.267,59.281V512h17.067V410.112
			C443.742,371.482,414.848,338.714,376.516,333.892z"/>
	</g>
</g>
<g>
	<g>
		<circle cx="204.8" cy="153.6" r="17.067"/>
	</g>
</g>
<g>
	<g>
		<circle cx="307.2" cy="153.6" r="17.067"/>
	</g>
</g>
<g>
</g>
<g>
</g>
<g>
</g>
<g>
</g>
<g>
</g>
<g>
</g>
<g>
</g>
<g>
</g>
<g>
</g>
<g>
</g>
<g>
</g>
<g>
</g>
<g>
</g>
<g>
</g>
<g>
</g>
</svg>
