<?xml version="1.0" encoding="iso-8859-1"?>
<!-- Generator: Adobe Illustrator 19.0.0, SVG Export Plug-In . SVG Version: 6.00 Build 0)  -->
<svg version="1.1" id="Capa_1" xmlns="http://www.w3.org/2000/svg" xmlns:xlink="http://www.w3.org/1999/xlink" x="0px" y="0px"
	 viewBox="0 0 512.006 512.006" style="enable-background:new 0 0 512.006 512.006;" xml:space="preserve">
<g>
	<g>
		<path d="M253.46,185.239l-12.066-12.066l-17.067,17.067c-3.337,3.336-3.337,8.73,0,12.066l17.067,17.067l12.066-12.066
			l-11.034-11.034L253.46,185.239z"/>
	</g>
</g>
<g>
	<g>
		<path d="M204.854,290.139v35.746c0.026,4.326-3.183,7.996-7.458,8.533l-76.8,9.549c-30.089,3.738-52.599,29.414-52.369,59.665
			v108.373h17.067h0.009V403.564c-0.162-21.649,15.915-39.996,37.41-42.667l76.809-9.549c12.868-1.621,22.502-12.629,22.4-25.532
			v-35.678H204.854z"/>
	</g>
</g>
<g>
	<g>
		<path d="M391.41,344.394l-76.783-9.557c-4.292-0.546-7.501-4.207-7.467-8.602v-36.096h-17.067v36.028
			c-0.102,12.971,9.532,23.979,22.417,25.6l76.8,9.557c21.495,2.671,37.572,21.009,37.402,42.735v107.947h17.067V404.127
			C444.009,373.8,421.49,348.132,391.41,344.394z"/>
	</g>
</g>
<g>
	<g>
		<path d="M324.927,337.977l-5.461,12.723c-10.897,25.421-35.806,41.839-63.471,41.839c-0.026,0-0.051,0-0.077,0
			c-27.648,0-52.557-16.427-63.454-41.847l-5.461-12.715l-15.684,6.733l5.461,12.706c13.585,31.71,44.646,52.19,79.13,52.19
			c0.026,0,0.06,0,0.094,0c34.492,0,65.562-20.489,79.147-52.181l5.461-12.715L324.927,337.977z"/>
	</g>
</g>
<g>
	<g>
		<path d="M277.746,222.768c-9.993,5-21.171,7.637-32.341,7.637c-0.009,0-0.017,0-0.026,0h-6.485v17.067h6.485
			c0.009,0,0.017,0,0.026,0c13.807,0,27.631-3.26,39.979-9.438L277.746,222.768z"/>
	</g>
</g>
<g>
	<g>
		<polygon points="324.227,256.006 324.227,273.072 324.747,273.072 		"/>
	</g>
</g>
<g>
	<g>
		<path d="M255.96,0.006c-65.877,0-119.467,53.589-119.467,119.467v25.6h17.067v-25.6c0-56.465,45.935-102.4,102.4-102.4
			s102.4,45.935,102.4,102.4v17.067h17.067v-17.067C375.427,53.595,321.837,0.006,255.96,0.006z"/>
	</g>
</g>
<g>
	<g>
		<path d="M358.36,127.997h-8.533c-4.634,0-8.414,3.703-8.533,8.329l-1.613,66.654c0.213,32.375-18.466,62.438-47.684,76.621
			l-0.196,0.102c-0.247,0.102-0.503,0.205-0.751,0.333l-16.128,8.107c-11.93,5.956-26.172,5.956-38.093-0.009l-17.161-8.576
			c-29.133-14.14-47.804-44.194-47.59-76.843l-1.451-57.856c-0.119-4.625-3.908-8.32-8.533-8.32h-8.533
			c-18.825,0-34.133,15.309-34.133,34.133s15.309,34.133,34.133,34.133h1.459c0.478,38.178,22.758,73.387,57.114,90.069
			l17.067,8.533c8.354,4.173,17.51,6.255,26.675,6.255c9.156,0,18.313-2.082,26.667-6.263c0,0,0.009-0.009,0.017-0.009l16.973-8.491
			c35.012-16.99,57.463-53.129,57.207-91.776l0.171-6.861h1.451c18.825,0,34.133-15.309,34.133-34.133
			S377.185,127.997,358.36,127.997z M153.56,187.739c-9.412,0-17.067-7.654-17.067-17.067c0-9.412,7.654-17.067,17.067-17.067
			l1.075,34.133H153.56z M358.36,179.206h-1.033l0.828-34.133h0.205c9.412,0,17.067,7.654,17.067,17.067
			C375.427,171.551,367.772,179.206,358.36,179.206z"/>
	</g>
</g>
<g>
	<g>
		<path d="M338.947,95.69c-5.794-11.631-17.485-18.867-30.498-18.884h-103.62c-0.085,0-0.171,0-0.256,0
			c-13.687,0-25.984,8.107-31.377,20.702l-18.944,44.203l15.684,6.724l18.953-44.203c2.697-6.298,8.841-10.351,15.744-10.351
			c0.043,0,0.085,0,0.128,0h103.672c6.502,0.009,12.339,3.627,15.241,9.446l18.517,37.035l15.275-7.646L338.947,95.69z"/>
	</g>
</g>
<g>
	<g>
		<path d="M413.528,26.706c-5.402-11.315-14.882-19.84-26.709-24.021c-24.371-8.619-51.26,4.198-59.895,28.604l16.085,5.692
			c5.504-15.522,22.622-23.689,38.127-18.202c7.518,2.662,13.551,8.09,16.99,15.283c3.448,7.202,3.874,15.309,1.212,22.835
			c-4.215,11.913-15.539,19.917-28.681,19.925c-1.075,0.068-2.176,0.068-3.268,0l-0.998,17.041c0.922,0.051,1.826,0.077,2.671,0.077
			c0.785,0,1.502-0.026,2.091-0.068c0.008,0,0.017,0,0.026,0c19.857,0,37.641-12.57,44.245-31.292
			C419.604,50.762,418.93,38.022,413.528,26.706z"/>
	</g>
</g>
<g>
	<g>
		<path d="M238.893,128.006h-68.267c-9.412,0-17.067,7.654-17.067,17.067v17.067c0,18.825,15.309,34.133,34.133,34.133h25.6
			c18.825,0,34.133-15.309,34.133-34.133v-25.6C247.427,131.829,243.604,128.006,238.893,128.006z M230.36,162.139
			c0,9.412-7.654,17.067-17.067,17.067h-25.6c-9.412,0-17.067-7.654-17.067-17.067v-17.067h59.733V162.139z"/>
	</g>
</g>
<g>
	<g>
		<path d="M341.293,128.006h-68.267c-4.71,0-8.533,3.823-8.533,8.533v25.6c0,18.825,15.309,34.133,34.133,34.133h25.6
			c18.825,0,34.133-15.309,34.133-34.133v-17.067C358.36,135.66,350.706,128.006,341.293,128.006z M341.293,162.139
			c0,9.412-7.654,17.067-17.067,17.067h-25.6c-9.412,0-17.067-7.654-17.067-17.067v-17.067h59.733V162.139z"/>
	</g>
</g>
<g>
	<g>
		<rect x="238.893" y="128.006" width="34.133" height="17.067"/>
	</g>
</g>
<g>
	<g>
		<circle cx="204.76" cy="153.606" r="17.067"/>
	</g>
</g>
<g>
	<g>
		<circle cx="307.16" cy="153.606" r="17.067"/>
	</g>
</g>
<g>
</g>
<g>
</g>
<g>
</g>
<g>
</g>
<g>
</g>
<g>
</g>
<g>
</g>
<g>
</g>
<g>
</g>
<g>
</g>
<g>
</g>
<g>
</g>
<g>
</g>
<g>
</g>
<g>
</g>
</svg>
