<?xml version="1.0" encoding="iso-8859-1"?>
<!-- Generator: Adobe Illustrator 19.0.0, SVG Export Plug-In . SVG Version: 6.00 Build 0)  -->
<svg version="1.1" id="Capa_1" xmlns="http://www.w3.org/2000/svg" xmlns:xlink="http://www.w3.org/1999/xlink" x="0px" y="0px"
	 viewBox="0 0 512 512" style="enable-background:new 0 0 512 512;" xml:space="preserve">
<g>
	<g>
		<circle cx="307.201" cy="162.133" r="17.067"/>
	</g>
</g>
<g>
	<g>
		<path d="M249.738,190.874l14.37-43.102l-16.188-5.402l-17.067,51.2c-1.493,4.471,0.922,9.301,5.393,10.795l25.6,8.533
			l5.393-16.188L249.738,190.874z"/>
	</g>
</g>
<g>
	<g>
		<path d="M204.903,290.133v35.738c0.034,4.326-3.174,7.996-7.458,8.533l-76.8,9.557c-30.08,3.738-52.591,29.423-52.361,59.665V512
			h17.067h0.009V403.558c-0.171-21.649,15.906-39.996,37.402-42.667l76.8-9.557c12.885-1.604,22.511-12.612,22.409-25.532v-35.669
			H204.903z"/>
	</g>
</g>
<g>
	<g>
		<path d="M391.468,344.38l-76.783-9.549c-4.292-0.546-7.501-4.207-7.467-8.602v-36.096h-17.067v36.036
			c-0.102,12.971,9.532,23.979,22.417,25.6l76.8,9.549c21.487,2.679,37.572,21.018,37.402,42.735V512h17.067h0V404.113
			C444.067,373.803,421.556,348.117,391.468,344.38z"/>
	</g>
</g>
<g>
	<g>
		<path d="M358.418,136.533h-8.533V153.6h8.533c9.412,0,17.067,7.654,17.067,17.067c0,9.412-7.654,17.067-17.067,17.067h-8.533
			V204.8h8.533c18.825,0,34.133-15.309,34.133-34.133S377.243,136.533,358.418,136.533z"/>
	</g>
</g>
<g>
	<g>
		<path d="M324.976,337.971l-5.461,12.715c-10.897,25.421-35.806,41.847-63.462,41.847c-0.026,0-0.051,0-0.077,0
			c-27.657,0-52.557-16.427-63.454-41.847l-5.461-12.715l-15.684,6.733l5.461,12.706c13.585,31.71,44.638,52.19,79.13,52.19
			c0.026,0,0.06,0,0.094,0c34.483,0,65.545-20.48,79.138-52.181l5.461-12.715L324.976,337.971z"/>
	</g>
</g>
<g>
	<g>
		<path d="M341.369,136.013l-4.702,76.945c-1.903,43.273-37.333,77.175-80.649,77.175c-43.315,0-78.746-33.903-80.657-77.321
			l-4.693-76.8l-17.033,1.041l4.685,76.655c2.313,52.42,45.227,93.491,97.698,93.491s95.386-41.062,97.69-93.346l4.693-76.8
			L341.369,136.013z"/>
	</g>
</g>
<g>
	<g>
		<path d="M277.804,222.763c-9.984,5-21.171,7.637-32.341,7.637c-0.009,0-0.017,0-0.026,0h-6.485v17.067h6.477
			c0.009,0,0.017,0,0.026,0c13.815,0,27.639-3.26,39.987-9.438L277.804,222.763z"/>
	</g>
</g>
<g>
	<g>
		<circle cx="204.801" cy="162.133" r="17.067"/>
	</g>
</g>
<g>
	<g>
		<path d="M261.42,61.662c-3.149-2.577-7.671-2.577-10.812,0l-93.867,76.8l10.812,13.21l88.465-72.38l88.465,72.38l10.803-13.21
			L261.42,61.662z"/>
	</g>
</g>
<g>
	<g>
		<path d="M153.618,153.6h8.533v-17.067h-8.533c-18.825,0-34.133,15.309-34.133,34.133s15.309,34.133,34.133,34.133h8.533v-17.067
			h-8.533c-9.412,0-17.067-7.654-17.067-17.067C136.551,161.254,144.206,153.6,153.618,153.6z"/>
	</g>
</g>
<g>
	<g>
		<path d="M256.018,0c-70.579,0-128,57.421-128,128v25.6h17.067V128c0-61.167,49.766-110.933,110.933-110.933
			S366.952,66.833,366.952,128v25.6h17.067V128C384.018,57.421,326.597,0,256.018,0z"/>
	</g>
</g>
<g>
	<g>
		<rect x="247.468" y="8.533" width="17.067" height="59.733"/>
	</g>
</g>
<g>
	<g>
		<path d="M93.885,213.453c0.06,3.635,0.58,7.236,1.553,10.718c-22.246,7.194-37.41,29.073-35.234,53.316
			c0.802,8.909,3.917,17.382,8.951,24.627c-7.62,6.417-13.193,14.925-16.06,24.704c-3.849,13.124-2.364,26.957,4.198,38.955
			c5.47,10.001,14.225,17.988,24.687,22.485l6.75-15.693c-6.972-2.995-12.809-8.32-16.452-14.985
			c-4.369-8.004-5.359-17.22-2.799-25.975s8.38-15.974,16.384-20.343c2.389-1.306,4.011-3.686,4.369-6.383s-0.606-5.402-2.577-7.287
			c-5.999-5.709-9.711-13.389-10.453-21.641c-1.69-18.748,12.186-35.371,30.933-37.06c2.944-0.265,5.538-2.031,6.861-4.668
			c1.323-2.628,1.195-5.769-0.35-8.286c-2.355-3.84-3.635-8.243-3.695-12.612c0-14.114,11.486-25.6,25.6-25.6v-17.067
			C113.025,170.658,93.885,189.807,93.885,213.453z"/>
	</g>
</g>
<g>
	<g>
		<path d="M442.873,302.131c5.035-7.245,8.149-15.718,8.96-24.636c2.185-24.243-12.996-46.123-35.243-53.316
			c0.981-3.507,1.502-7.142,1.562-10.846c0-23.526-19.14-42.667-42.667-42.667v17.067c14.114,0,25.6,11.486,25.6,25.472
			c-0.068,4.506-1.348,8.909-3.695,12.74c-1.545,2.517-1.681,5.649-0.35,8.286c1.331,2.637,3.917,4.403,6.861,4.668
			c18.748,1.69,32.623,18.321,30.933,37.06c-0.742,8.252-4.463,15.94-10.453,21.641c-1.98,1.877-2.935,4.591-2.577,7.287
			c0.35,2.697,1.98,5.077,4.369,6.383c16.521,9.028,22.613,29.798,13.594,46.319c-3.652,6.665-9.498,11.989-16.461,14.984
			l6.75,15.684c10.445-4.489,19.208-12.476,24.687-22.477C466.587,344.098,461.057,317.508,442.873,302.131z"/>
	</g>
</g>
<g>
</g>
<g>
</g>
<g>
</g>
<g>
</g>
<g>
</g>
<g>
</g>
<g>
</g>
<g>
</g>
<g>
</g>
<g>
</g>
<g>
</g>
<g>
</g>
<g>
</g>
<g>
</g>
<g>
</g>
</svg>
