<?xml version="1.0" encoding="iso-8859-1"?>
<!-- Generator: Adobe Illustrator 19.0.0, SVG Export Plug-In . SVG Version: 6.00 Build 0)  -->
<svg version="1.1" id="Capa_1" xmlns="http://www.w3.org/2000/svg" xmlns:xlink="http://www.w3.org/1999/xlink" x="0px" y="0px"
	 viewBox="0 0 512 512" style="enable-background:new 0 0 512 512;" xml:space="preserve">
<g>
	<g>
		<path d="M242.714,213.333l21.274-56.738l-15.983-5.99l-25.6,68.267c-0.973,2.62-0.614,5.555,0.981,7.859
			c1.596,2.295,4.215,3.669,7.014,3.669h34.133v-17.067H242.714z"/>
	</g>
</g>
<g>
	<g>
		<path d="M358.4,136.533h-8.533V153.6h8.533c9.412,0,17.067,7.654,17.067,17.067c0,9.412-7.654,17.067-17.067,17.067h-8.533V204.8
			h8.533c18.825,0,34.133-15.309,34.133-34.133S377.225,136.533,358.4,136.533z"/>
	</g>
</g>
<g>
	<g>
		<path d="M153.6,153.6h8.533v-17.067H153.6c-18.825,0-34.133,15.309-34.133,34.133S134.775,204.8,153.6,204.8h8.533v-17.067H153.6
			c-9.412,0-17.067-7.654-17.067-17.067C136.533,161.254,144.188,153.6,153.6,153.6z"/>
	</g>
</g>
<g>
	<g>
		<path d="M247.467,213.333h-34.133c-28.237,0-51.2,22.963-51.2,51.2c0,4.719,3.823,8.533,8.533,8.533H204.8
			c28.237,0,51.2-22.963,51.2-51.2C256,217.156,252.177,213.333,247.467,213.333z M204.8,256h-24.525
			c3.806-14.703,17.186-25.6,33.058-25.6h24.525C234.052,245.103,220.672,256,204.8,256z"/>
	</g>
</g>
<g>
	<g>
		<path d="M281.6,213.333h-34.133c-4.71,0-8.533,3.823-8.533,8.533c0,28.237,22.963,51.2,51.2,51.2h34.133
			c4.719,0,8.533-3.814,8.533-8.533C332.8,236.297,309.837,213.333,281.6,213.333z M290.133,256
			c-15.881,0-29.261-10.897-33.058-25.6H281.6c15.872,0,29.261,10.897,33.05,25.6H290.133z"/>
	</g>
</g>
<g>
	<g>
		<circle cx="204.8" cy="170.667" r="17.067"/>
	</g>
</g>
<g>
	<g>
		<circle cx="298.667" cy="170.667" r="17.067"/>
	</g>
</g>
<g>
	<g>
		<path d="M315.733,59.733h-17.067c-2.825,0-5.47,1.399-7.057,3.738l-2.944,4.326c-7.305,10.957-19.524,17.519-32.657,17.536
			c-13.158-0.017-25.378-6.571-32.717-17.596l-2.901-4.267c-1.587-2.338-4.232-3.738-7.057-3.738h-17.067
			c-23.526,0-42.667,19.14-42.667,42.667v110.933c-0.009,14.643,3.208,29.414,9.31,42.718l15.514-7.108
			c-5.086-11.085-7.765-23.398-7.757-35.61V102.4c0-14.114,11.486-25.6,25.6-25.6h12.553l0.299,0.461
			C219.58,92.979,237.099,102.374,256,102.4c18.876-0.026,36.386-9.429,46.814-25.071l0.358-0.529h12.552
			c14.114,0,25.6,11.486,25.6,25.6v110.933c0,47.053-38.281,85.333-85.333,85.333c-0.009,0-0.009,0-0.017,0
			c-27.742,0-53.837-13.542-69.786-36.224l-13.961,9.813c19.157,27.23,50.458,43.477,83.746,43.477c0.008,0,0.017,0,0.026,0
			c56.465,0,102.4-45.935,102.4-102.4V102.4C358.4,78.874,339.26,59.733,315.733,59.733z"/>
	</g>
</g>
<g>
	<g>
		<path d="M338.014,35.456C320.307,13.21,293.043,0,264.533,0h-17.067c-28.51,0-55.774,13.21-73.489,35.456
			c-32.418,12.083-52.719,44.1-49.613,78.814l3.669,40.107l17.007-1.553l-3.669-40.09c-2.483-27.674,14.191-53.163,40.542-61.978
			c1.638-0.546,3.072-1.587,4.113-2.97c14.43-19.234,37.393-30.72,61.44-30.72h17.067c24.038,0,47.01,11.486,61.44,30.72
			c1.041,1.382,2.475,2.423,4.113,2.97c26.351,8.815,43.025,34.304,40.542,61.961l-3.669,40.107l16.998,1.553l3.669-40.124
			C390.741,79.556,370.441,47.539,338.014,35.456z"/>
	</g>
</g>
<g>
	<g>
		<rect x="187.733" y="119.467" width="136.533" height="17.067"/>
	</g>
</g>
<g>
	<g>
		<path d="M196.275,290.133v31.898c-0.017,6.733-5.069,12.493-11.708,13.397l-49.673,6.579
			c-37.99,5.086-66.628,37.811-66.628,76.126V512h17.067v-93.867c0-29.807,22.272-55.262,51.814-59.204l49.698-6.579
			c15.07-2.057,26.462-15.078,26.496-30.302v-31.915H196.275z"/>
	</g>
</g>
<g>
	<g>
		<path d="M377.097,342.008l-49.621-6.579c-6.673-0.904-11.716-6.665-11.733-13.38v-31.915h-17.067v31.932
			c0.034,15.206,11.418,28.228,26.53,30.285l49.638,6.579c29.551,3.942,51.823,29.397,51.823,59.204V512h17.067v-93.867
			C443.733,379.819,415.096,347.085,377.097,342.008z"/>
	</g>
</g>
<g>
	<g>
		<rect x="136.533" y="443.733" width="17.067" height="68.267"/>
	</g>
</g>
<g>
	<g>
		<rect x="358.4" y="443.733" width="17.067" height="68.267"/>
	</g>
</g>
<g>
	<g>
		<path d="M309.308,335.71L256,396.638l-53.308-60.919l-12.843,11.23l59.733,68.267c1.613,1.86,3.951,2.918,6.417,2.918
			s4.804-1.058,6.426-2.927l59.733-68.267L309.308,335.71z"/>
	</g>
</g>
<g>
	<g>
		<path d="M254.601,401.178l-44.68,7.45l-31.454-70.767l-15.59,6.938l34.133,76.8c1.382,3.115,4.463,5.069,7.791,5.069
			c0.461,0,0.93-0.043,1.408-0.12l51.2-8.533L254.601,401.178z"/>
	</g>
</g>
<g>
	<g>
		<path d="M333.542,337.86l-31.454,70.767l-44.681-7.45l-2.807,16.836l51.2,8.533c0.469,0.077,0.939,0.119,1.399,0.119
			c3.337,0,6.409-1.954,7.808-5.069l34.133-76.8L333.542,337.86z"/>
	</g>
</g>
<g>
	<g>
		<rect x="247.467" y="409.6" width="17.067" height="102.4"/>
	</g>
</g>
<g>
	<g>
		<path d="M145.067,460.8H76.8c-4.71,0-8.533,3.814-8.533,8.533V512h17.067v-34.133h51.2V512H153.6v-42.667
			C153.6,464.614,149.777,460.8,145.067,460.8z"/>
	</g>
</g>
<g>
	<g>
		<path d="M435.2,460.8h-68.267c-4.719,0-8.533,3.814-8.533,8.533V512h17.067v-34.133h51.2V512h17.067v-42.667
			C443.733,464.614,439.919,460.8,435.2,460.8z"/>
	</g>
</g>
<g>
	<g>
		<path d="M226.133,435.2c-7.057,0-12.8,5.743-12.8,12.8s5.743,12.8,12.8,12.8s12.8-5.743,12.8-12.8S233.19,435.2,226.133,435.2z
			 M226.133,452.267c-2.355,0-4.267-1.92-4.267-4.267s1.911-4.267,4.267-4.267c2.355,0,4.267,1.92,4.267,4.267
			S228.489,452.267,226.133,452.267z"/>
	</g>
</g>
<g>
</g>
<g>
</g>
<g>
</g>
<g>
</g>
<g>
</g>
<g>
</g>
<g>
</g>
<g>
</g>
<g>
</g>
<g>
</g>
<g>
</g>
<g>
</g>
<g>
</g>
<g>
</g>
<g>
</g>
</svg>
