<?xml version="1.0" encoding="iso-8859-1"?>
<!-- Generator: Adobe Illustrator 19.0.0, SVG Export Plug-In . SVG Version: 6.00 Build 0)  -->
<svg version="1.1" id="Capa_1" xmlns="http://www.w3.org/2000/svg" xmlns:xlink="http://www.w3.org/1999/xlink" x="0px" y="0px"
	 viewBox="0 0 511.996 511.996" style="enable-background:new 0 0 511.996 511.996;" xml:space="preserve">
<g>
	<g>
		<path d="M349.722,133.596h-8.52v17.041h8.52c9.398,0,17.041,7.643,17.041,17.041s-7.643,17.041-17.041,17.041h-8.52v17.041h8.52
			c18.796,0,34.082-15.286,34.082-34.082S368.518,133.596,349.722,133.596z"/>
	</g>
</g>
<g>
	<g>
		<path d="M162.273,150.637h8.52v-17.041h-8.52c-18.796,0-34.082,15.286-34.082,34.082s15.286,34.082,34.082,34.082h8.52v-17.041
			h-8.52c-9.398,0-17.041-7.643-17.041-17.041S152.875,150.637,162.273,150.637z"/>
	</g>
</g>
<g>
	<g>
		<path d="M248.602,193.239l7.319-58.586l-16.905-2.113l-8.52,68.163c-0.298,2.428,0.452,4.865,2.07,6.697
			c1.619,1.832,3.945,2.88,6.39,2.88h25.553v-17.041H248.602z"/>
	</g>
</g>
<g>
	<g>
		<path d="M357.732,98.739c-3.272-18.506-20.918-30.938-39.492-27.649l-14.86,2.65c-31.321,5.726-63.085,5.709-94.449,0
			l-14.774-2.633c-2.028-0.375-4.235-0.545-6.152-0.554c-9.1,0-17.654,3.536-24.087,9.969c-6.433,6.433-9.986,14.987-9.986,24.096
			v120.078c-0.128,14.621,5.095,28.748,14.715,39.765l36.817,42.099c8.069,9.185,19.708,14.468,31.96,14.485h37.336
			c12.227-0.017,23.874-5.308,31.935-14.485l36.834-41.707c9.628-11.017,14.86-25.144,14.723-39.679V104.609
			C358.251,102.658,358.072,100.698,357.732,98.739z M341.193,225.267c0.102,10.438-3.63,20.526-10.472,28.364l-36.817,41.682
			c-4.848,5.521-11.843,8.691-19.162,8.699h-37.311c-7.345-0.008-14.331-3.178-19.162-8.682l-36.8-42.082
			c-6.867-7.873-10.599-17.961-10.506-28.484V104.626c0-4.55,1.772-8.836,4.993-12.048c3.221-3.212,7.489-4.984,12.048-4.984
			c1.031,0,2.053,0.085,3.11,0.281l14.783,2.641c33.366,6.075,67.183,6.075,100.507,0l14.808-2.641
			c9.253-1.619,18.097,4.584,19.725,13.803c0.162,0.971,0.256,1.951,0.256,2.94V225.267z"/>
	</g>
</g>
<g>
	<g>
		<circle cx="204.918" cy="150.637" r="17.041"/>
	</g>
</g>
<g>
	<g>
		<circle cx="298.643" cy="150.637" r="17.041"/>
	</g>
</g>
<g>
	<g>
		<path d="M281.559,193.239h-51.122c-23.491,0-42.602,19.111-42.602,42.602v8.52c0,4.703,3.817,8.52,8.52,8.52h119.286
			c4.712,0,8.52-3.817,8.52-8.52v-8.52C324.161,212.35,305.05,193.239,281.559,193.239z M204.875,235.841
			c0-14.101,11.468-25.561,25.561-25.561h51.122c14.093,0,25.561,11.468,25.561,25.561H204.875z"/>
	</g>
</g>
<g>
	<g>
		<rect x="239" y="269.922" width="34.082" height="17.041"/>
	</g>
</g>
<g>
	<g>
		<path d="M282.726,2.825c-17.731-3.766-35.726-3.766-53.483,0C170.692,15.358,128.192,67.92,128.192,127.802v56.916h17.041v-56.916
			c0-51.898,36.825-97.456,87.564-108.311c15.396-3.263,30.997-3.272,46.377,0c50.748,10.855,87.581,56.414,87.581,108.311v48.396
			h17.041v-48.396C383.795,67.92,341.296,15.358,282.726,2.825z"/>
	</g>
</g>
<g>
	<g>
		<rect x="247.52" y="39.871" width="17.041" height="51.122"/>
	</g>
</g>
<g>
	<g>
		<rect x="213.438" y="48.392" width="17.041" height="34.082"/>
	</g>
</g>
<g>
	<g>
		<rect x="281.602" y="48.392" width="17.041" height="34.082"/>
	</g>
</g>
<g>
	<g>
		<path d="M405.582,245.793c-13.616-9.083-21.753-24.275-21.77-40.625v-28.969h-17.041v28.978
			c0.017,19.197,8.324,37.209,22.596,49.631c-10.497,14.953-40.438,52.494-84.829,66.638l5.172,16.24
			c62.02-19.776,97.013-78.004,98.487-80.467C410.49,253.316,409.348,248.306,405.582,245.793z"/>
	</g>
</g>
<g>
	<g>
		<path d="M353.48,241.464l-16.027,5.785c6.365,17.637,17.697,32.889,32.752,44.076l10.165-13.675
			C368.007,268.457,358.711,255.949,353.48,241.464z"/>
	</g>
</g>
<g>
	<g>
		<path d="M332.094,275.333l-15.856,6.22c5.828,14.894,15.618,27.938,28.279,37.72l10.42-13.496
			C344.704,297.886,336.814,287.364,332.094,275.333z"/>
	</g>
</g>
<g>
	<g>
		<path d="M121.691,255.608c14.834-12.44,23.516-30.81,23.533-50.441v-28.969h-17.041v28.952
			c-0.017,16.359-8.154,31.551-21.77,40.634c-3.289,2.198-4.635,6.373-3.246,10.088c1.125,2.982,28.211,73.088,100.652,82.145
			l2.105-16.904C155.057,314.757,129.419,271.396,121.691,255.608z"/>
	</g>
</g>
<g>
	<g>
		<path d="M158.524,241.464c-5.232,14.485-14.527,27.001-26.89,36.186l10.165,13.675c15.056-11.187,26.379-26.43,32.752-44.076
			L158.524,241.464z"/>
	</g>
</g>
<g>
	<g>
		<path d="M179.902,275.341c-4.712,12.022-12.602,22.545-22.835,30.435l10.412,13.496c12.67-9.781,22.46-22.826,28.288-37.72
			L179.902,275.341z"/>
	</g>
</g>
<g>
	<g>
		<path d="M196.355,289.69v43.659l-61.279,8.128c-37.933,5.078-66.527,37.754-66.527,76.019v93.724H85.59v-93.733
			c-0.009-29.762,22.238-55.178,51.727-59.123l68.674-9.108c4.235-0.554,7.404-4.175,7.404-8.444V289.69H196.355z"/>
	</g>
</g>
<g>
	<g>
		<path d="M376.911,341.485l-61.27-8.128v-43.659H298.6v51.122c0,4.269,3.161,7.89,7.396,8.444l68.666,9.108
			c29.506,3.936,51.744,29.361,51.744,59.123v93.724h17.041v-93.716C443.447,379.239,414.844,346.555,376.911,341.485z"/>
	</g>
</g>
<g>
	<g>
		<rect x="136.755" y="443.057" width="17.041" height="68.163"/>
	</g>
</g>
<g>
	<g>
		<rect x="358.285" y="443.057" width="17.041" height="68.163"/>
	</g>
</g>
<g>
	<g>
		<path d="M251.269,367.813l-41.06,27.376l-14.11-56.431l-16.53,4.124l17.041,68.163c0.673,2.684,2.607,4.882,5.189,5.879
			c0.997,0.383,2.036,0.571,3.076,0.571c1.661,0,3.314-0.486,4.72-1.423l51.122-34.082L251.269,367.813z"/>
	</g>
</g>
<g>
	<g>
		<path d="M311.415,333.416l-55.417,31.67l-55.417-31.67l-8.452,14.791l59.643,34.082c1.312,0.75,2.769,1.125,4.226,1.125
			c1.466,0,2.922-0.375,4.226-1.125l59.643-34.082L311.415,333.416z"/>
	</g>
</g>
<g>
	<g>
		<path d="M315.888,338.75l-14.11,56.431l-41.06-27.376l-9.449,14.178l51.122,34.082c1.423,0.946,3.076,1.431,4.729,1.431
			c1.04,0,2.079-0.196,3.059-0.579c2.582-0.997,4.524-3.195,5.189-5.879l17.041-68.163L315.888,338.75z"/>
	</g>
</g>
<g>
	<g>
		<path d="M247.034,414.795l-8.52-25.561l-16.163,5.393l7.958,23.874l-8.359,91.944l16.973,1.551l8.512-93.733
			C247.546,417.095,247.401,415.911,247.034,414.795z"/>
	</g>
</g>
<g>
	<g>
		<path d="M281.67,418.51l7.958-23.874l-16.155-5.393l-8.52,25.561c-0.366,1.116-0.503,2.292-0.4,3.468l8.52,93.725l16.956-1.542
			L281.67,418.51z"/>
	</g>
</g>
<g>
	<g>
		<rect x="239" y="408.975" width="34.082" height="17.041"/>
	</g>
</g>
<g>
</g>
<g>
</g>
<g>
</g>
<g>
</g>
<g>
</g>
<g>
</g>
<g>
</g>
<g>
</g>
<g>
</g>
<g>
</g>
<g>
</g>
<g>
</g>
<g>
</g>
<g>
</g>
<g>
</g>
</svg>
