<?xml version="1.0" encoding="iso-8859-1"?>
<!-- Generator: Adobe Illustrator 19.0.0, SVG Export Plug-In . SVG Version: 6.00 Build 0)  -->
<svg version="1.1" id="Capa_1" xmlns="http://www.w3.org/2000/svg" xmlns:xlink="http://www.w3.org/1999/xlink" x="0px" y="0px"
	 viewBox="0 0 512 512" style="enable-background:new 0 0 512 512;" xml:space="preserve">
<g>
	<g>
		<path d="M195.254,303.729v36.959c0.035,4.382-3.211,8.114-7.585,8.678l-69.337,9.364c-30.182,3.758-53.074,29.514-53.248,59.982
			V512h17.347v-93.236c0.13-21.73,16.479-40.127,38.131-42.826l69.389-9.372c13.034-1.692,22.771-12.887,22.658-25.956v-36.881
			H195.254z"/>
	</g>
</g>
<g>
	<g>
		<path d="M393.754,358.738l-69.458-9.372c-4.348-0.573-7.593-4.296-7.55-8.756v-36.881H299.39v36.803
			c-0.113,13.147,9.624,24.342,22.615,26.034l69.519,9.381c21.556,2.69,37.905,21.087,38.036,42.765V512h17.356v-93.34
			C446.733,388.244,423.849,362.487,393.754,358.738z"/>
	</g>
</g>
<g>
	<g>
		<path d="M351.458,147.525h-8.678v17.356h8.678c9.572,0,17.356,7.784,17.356,17.356c0,9.572-7.784,17.356-17.356,17.356h-8.678
			v17.356h8.678c19.144,0,34.712-15.568,34.712-34.712C386.169,163.094,370.601,147.525,351.458,147.525z"/>
	</g>
</g>
<g>
	<g>
		<path d="M160.542,164.881h8.678v-17.356h-8.678c-19.144,0-34.712,15.568-34.712,34.712c0,19.144,15.568,34.712,34.712,34.712
			h8.678v-17.356h-8.678c-9.572,0-17.356-7.784-17.356-17.356C143.186,172.665,150.971,164.881,160.542,164.881z"/>
	</g>
</g>
<g>
	<g>
		<path d="M326.135,352.378l-5.554,12.93c-11.09,25.852-36.421,42.557-64.547,42.557c-0.026,0-0.052,0-0.078,0
			c-28.125,0-53.448-16.705-64.529-42.557l-5.554-12.93l-15.95,6.847l5.554,12.921c13.815,32.247,45.394,53.074,80.471,53.074
			c0.026,0,0.061,0,0.095,0c35.068,0,66.664-20.827,80.488-53.066l5.554-12.93L326.135,352.378z"/>
	</g>
</g>
<g>
	<g>
		<path d="M248.337,208.271l7.602-68.46l-17.243-1.918l-8.678,78.102c-0.269,2.447,0.512,4.903,2.161,6.743
			c1.64,1.84,3.992,2.89,6.465,2.89h26.034v-17.356H248.337z"/>
	</g>
</g>
<g>
	<g>
		<path d="M348.837,106.583c-1.692-1.631-3.948-2.629-6.3-2.447c-35.771,0.894-67.072-21.001-78.31-54.801
			c-1.25-3.784-4.981-6.248-8.904-5.918c-3.983,0.312-7.229,3.298-7.888,7.229c-7.602,45.629-79.386,62.212-80.106,62.377
			c-3.957,0.885-6.786,4.408-6.786,8.47v83.048c0.009,26.728,7.272,52.97,21.018,75.88l14.414,24.047
			c12.583,20.957,35.58,33.974,60.026,33.974c24.446,0,47.451-13.017,60.026-33.974l14.405-24.038
			c13.755-22.919,21.027-49.161,21.027-75.889v-91.726C351.458,110.471,350.512,108.223,348.837,106.583z M334.102,204.54
			c0,23.578-6.422,46.731-18.553,66.959l-14.405,24.038c-9.459,15.759-26.763,25.548-45.143,25.548
			c-18.389,0-35.684-9.789-45.143-25.557l-14.414-24.047c-12.123-20.22-18.545-43.372-18.545-66.951v-76.34
			c16.965-4.851,60.642-20.185,79.126-53.3c16.375,27.032,44.9,44.509,77.078,46.462V204.54z"/>
	</g>
</g>
<g>
	<g>
		<path d="M238.644,130.169H169.22c-4.79,0-8.678,3.888-8.678,8.678v26.034c0,23.925,19.465,43.39,43.39,43.39
			c23.925,0,43.39-19.465,43.39-43.39v-26.034C247.322,134.057,243.434,130.169,238.644,130.169z M229.966,164.881
			c0,14.353-11.681,26.034-26.034,26.034c-14.353,0-26.034-11.681-26.034-26.034v-17.356h52.068V164.881z"/>
	</g>
</g>
<g>
	<g>
		<path d="M342.78,130.169h-69.424c-4.799,0-8.678,3.888-8.678,8.678v26.034c0,23.925,19.465,43.39,43.39,43.39
			c23.925,0,43.39-19.465,43.39-43.39v-26.034C351.458,134.057,347.579,130.169,342.78,130.169z M334.102,164.881
			c0,14.353-11.681,26.034-26.034,26.034s-26.034-11.681-26.034-26.034v-17.356h52.068V164.881z"/>
	</g>
</g>
<g>
	<g>
		<rect x="238.644" y="130.169" width="34.712" height="17.356"/>
	</g>
</g>
<g>
	<g>
		<path d="M256,0c-66.994,0-121.492,54.498-121.492,121.492v43.39h17.356v-43.39c0-57.422,46.714-104.136,104.136-104.136
			s104.136,46.713,104.136,104.136v43.39h17.356v-43.39C377.492,54.498,322.994,0,256,0z"/>
	</g>
</g>
<g>
	<g>
		<path d="M134.508,199.593v34.721c0.026,21.07-5.875,41.646-17.087,59.531l-6.578,10.57c-12.93,20.636-19.751,44.405-19.725,68.747
			l17.356-0.017c-0.026-21.07,5.875-41.646,17.087-59.531l6.578-10.57c12.93-20.636,19.751-44.405,19.725-68.738v-34.712H134.508z"
			/>
	</g>
</g>
<g>
	<g>
		<path d="M401.174,304.44l-6.604-10.622c-11.195-17.859-17.104-38.435-17.078-59.513v-34.712h-17.356v34.703
			c-0.026,24.333,6.795,48.111,19.708,68.721l6.604,10.622c11.195,17.859,17.104,38.435,17.078,59.505l17.356,0.017
			C420.907,348.82,414.086,325.051,401.174,304.44z"/>
	</g>
</g>
<g>
	<g>
		<path d="M313.882,225.627c-7.454-5.597-16.705-8.678-26.034-8.678h-63.696c-9.32,0-18.562,3.081-26.034,8.678l-25.426,19.092
			l10.422,13.885l25.418-19.083c4.478-3.358,10.023-5.207,15.62-5.207h63.696c5.606,0,11.143,1.848,15.62,5.207l25.426,19.092
			l10.422-13.885L313.882,225.627z"/>
	</g>
</g>
<g>
	<g>
		<rect x="229.966" y="251.661" width="52.068" height="17.356"/>
	</g>
</g>
<g>
</g>
<g>
</g>
<g>
</g>
<g>
</g>
<g>
</g>
<g>
</g>
<g>
</g>
<g>
</g>
<g>
</g>
<g>
</g>
<g>
</g>
<g>
</g>
<g>
</g>
<g>
</g>
<g>
</g>
</svg>
