<?xml version="1.0" encoding="iso-8859-1"?>
<!-- Generator: Adobe Illustrator 19.0.0, SVG Export Plug-In . SVG Version: 6.00 Build 0)  -->
<svg version="1.1" id="Capa_1" xmlns="http://www.w3.org/2000/svg" xmlns:xlink="http://www.w3.org/1999/xlink" x="0px" y="0px"
	 viewBox="0 0 512 512" style="enable-background:new 0 0 512 512;" xml:space="preserve">
<g>
	<g>
		<path d="M349.862,145.067h-8.533v17.067h8.533c9.412,0,17.067,7.654,17.067,17.067s-7.654,17.067-17.067,17.067h-8.533v17.067
			h8.533c18.825,0,34.133-15.309,34.133-34.133S368.687,145.067,349.862,145.067z"/>
	</g>
</g>
<g>
	<g>
		<path d="M162.129,162.133h8.533v-17.067h-8.533c-18.825,0-34.133,15.309-34.133,34.133s15.309,34.133,34.133,34.133h8.533v-17.067
			h-8.533c-9.412,0-17.067-7.654-17.067-17.067S152.717,162.133,162.129,162.133z"/>
	</g>
</g>
<g>
	<g>
		<path d="M248.597,213.333l7.322-58.675l-16.93-2.116l-8.533,68.267c-0.299,2.432,0.452,4.873,2.074,6.707s3.951,2.884,6.4,2.884
			h25.6v-17.067H248.597z"/>
	</g>
</g>
<g>
	<g>
		<path d="M238.929,145.067h-76.8c-4.71,0-8.533,3.823-8.533,8.533v34.133c0,18.825,15.309,34.133,34.133,34.133h25.6
			c18.825,0,34.133-15.309,34.133-34.133V153.6C247.462,148.89,243.639,145.067,238.929,145.067z M230.396,187.733
			c0,9.412-7.654,17.067-17.067,17.067h-25.6c-9.412,0-17.067-7.654-17.067-17.067v-25.6h59.733V187.733z"/>
	</g>
</g>
<g>
	<g>
		<path d="M349.862,145.067h-76.8c-4.71,0-8.533,3.823-8.533,8.533v34.133c0,18.825,15.309,34.133,34.133,34.133h25.6
			c18.825,0,34.133-15.309,34.133-34.133V153.6C358.396,148.89,354.581,145.067,349.862,145.067z M341.329,187.733
			c0,9.412-7.654,17.067-17.067,17.067h-25.6c-9.412,0-17.067-7.654-17.067-17.067v-25.6h59.733V187.733z"/>
	</g>
</g>
<g>
	<g>
		<rect x="230.396" y="145.067" width="42.667" height="17.067"/>
	</g>
</g>
<g>
	<g>
		<path d="M273.062,0h-34.133c-61.167,0-110.933,49.766-110.933,110.933v8.533c0,0.563,0.051,1.118,0.171,1.673l8.533,42.667
			l16.725-3.345l-8.363-41.839v-7.689c0-51.755,42.112-93.867,93.867-93.867h34.133c51.524,0,93.491,41.737,93.867,93.175
			l-8.422,50.492l16.836,2.807l8.533-51.2c0.077-0.469,0.119-0.939,0.119-1.408C383.996,49.766,334.229,0,273.062,0z"/>
	</g>
</g>
<g>
	<g>
		<path d="M358.14,151.526l-8.533-34.133c-0.956-3.789-4.361-6.46-8.277-6.46H170.662c-3.917,0-7.33,2.671-8.269,6.46l-8.533,34.133
			c-0.171,0.683-0.256,1.374-0.256,2.074v91.23c-0.137,14.643,5.094,28.783,14.754,39.851l37.009,42.035
			c8.064,9.25,19.729,14.575,32.026,14.618h37.402c12.271-0.043,23.936-5.367,31.966-14.566l36.89-41.694
			c9.643-11.042,14.882-25.182,14.746-39.74V153.6C358.396,152.9,358.31,152.209,358.14,151.526z M341.321,245.41
			c0.102,10.453-3.635,20.557-10.487,28.399l-36.89,41.694c-4.847,5.538-11.844,8.738-19.174,8.764h-37.35
			c-7.356-0.026-14.362-3.226-19.226-8.798l-37.009-42.035c-6.878-7.893-10.615-17.997-10.522-28.527V154.65l6.665-26.65h157.338
			l6.656,26.65V245.41z"/>
	</g>
</g>
<g>
	<g>
		<rect x="230.396" y="247.467" width="51.2" height="17.067"/>
	</g>
</g>
<g>
	<g>
		<path d="M187.738,76.8v1.451c-0.009,13.286-5.188,25.788-14.575,35.191l12.075,12.058c12.604-12.629,19.55-29.406,19.567-47.249
			V76.8H187.738z"/>
	</g>
</g>
<g>
	<g>
		<path d="M230.404,76.8v1.451c-0.009,13.286-5.188,25.788-14.575,35.191l12.075,12.058c12.604-12.629,19.55-29.406,19.567-47.249
			V76.8H230.404z"/>
	</g>
</g>
<g>
	<g>
		<path d="M273.071,76.8v1.451c-0.008,13.295-5.188,25.788-14.575,35.191l12.075,12.058c12.604-12.621,19.55-29.397,19.567-47.249
			V76.8H273.071z"/>
	</g>
</g>
<g>
	<g>
		<path d="M315.729,76.8v1.451c-0.009,13.295-5.18,25.788-14.566,35.191l12.066,12.058c12.612-12.621,19.558-29.397,19.567-47.249
			V76.8H315.729z"/>
	</g>
</g>
<g>
	<g>
		<path d="M196.262,315.733v27.64c0.034,4.301-3.157,7.97-7.441,8.533l-53.931,7.168C96.9,364.16,68.262,396.885,68.262,435.2V512
			h17.067v-76.8c0-29.807,22.272-55.262,51.814-59.213l53.914-7.168c12.809-1.681,22.383-12.689,22.272-25.523v-27.563H196.262z"/>
	</g>
</g>
<g>
	<g>
		<path d="M377.101,359.245l-53.939-7.168c-4.275-0.563-7.467-4.224-7.424-8.61v-27.733h-17.067v27.657
			c-0.111,12.928,9.463,23.936,22.255,25.6l53.914,7.168c29.474,3.942,51.746,29.338,51.823,59.042V512h17.067h0.009v-76.817
			C443.644,396.954,414.997,364.314,377.101,359.245z"/>
	</g>
</g>
<g>
	<g>
		<rect x="136.529" y="443.733" width="17.067" height="68.267"/>
	</g>
</g>
<g>
	<g>
		<rect x="358.396" y="443.733" width="17.067" height="68.267"/>
	</g>
</g>
<g>
	<g>
		<path d="M315.362,355.072c-3.644,4.591-7.817,8.755-12.399,12.39c-32.725,25.882-80.427,20.335-106.325-12.382l-13.38,10.581
			c18.278,23.108,45.431,35.157,72.832,35.157c20.156,0,40.457-6.528,57.464-19.977c5.615-4.446,10.726-9.549,15.172-15.172
			L315.362,355.072z"/>
	</g>
</g>
<g>
</g>
<g>
</g>
<g>
</g>
<g>
</g>
<g>
</g>
<g>
</g>
<g>
</g>
<g>
</g>
<g>
</g>
<g>
</g>
<g>
</g>
<g>
</g>
<g>
</g>
<g>
</g>
<g>
</g>
</svg>
