<?xml version="1.0" encoding="iso-8859-1"?>
<!-- Generator: Adobe Illustrator 19.0.0, SVG Export Plug-In . SVG Version: 6.00 Build 0)  -->
<svg version="1.1" id="Capa_1" xmlns="http://www.w3.org/2000/svg" xmlns:xlink="http://www.w3.org/1999/xlink" x="0px" y="0px"
	 viewBox="0 0 512.004 512.004" style="enable-background:new 0 0 512.004 512.004;" xml:space="preserve">
<g>
	<g>
		<circle cx="204.802" cy="162.137" r="17.067"/>
	</g>
</g>
<g>
	<g>
		<circle cx="307.202" cy="162.137" r="17.067"/>
	</g>
</g>
<g>
	<g>
		<path d="M250.771,196.27l13.321-39.97l-16.188-5.402l-17.067,51.2c-0.862,2.603-0.427,5.461,1.178,7.689
			c1.604,2.236,4.181,3.55,6.921,3.55h25.6V196.27H250.771z"/>
	</g>
</g>
<g>
	<g>
		<path d="M275.569,215.829c-9.404,9.395-21.897,14.566-35.183,14.575h-1.451v17.067h1.451c17.843-0.009,34.62-6.963,47.249-19.567
			L275.569,215.829z"/>
	</g>
</g>
<g>
	<g>
		<path d="M358.402,136.537h-8.533v17.067h8.533c9.412,0,17.067,7.654,17.067,17.067c0,9.412-7.654,17.067-17.067,17.067h-8.533
			v17.067h8.533c18.825,0,34.133-15.309,34.133-34.133S377.226,136.537,358.402,136.537z"/>
	</g>
</g>
<g>
	<g>
		<path d="M153.602,153.604h8.533v-17.067h-8.533c-18.825,0-34.133,15.309-34.133,34.133s15.309,34.133,34.133,34.133h8.533v-17.067
			h-8.533c-9.412,0-17.067-7.654-17.067-17.067C136.535,161.258,144.19,153.604,153.602,153.604z"/>
	</g>
</g>
<g>
	<g>
		<path d="M298.669,17.07h-95.411c-0.009,0-0.017,0-0.017,0c-8.516,0-16.179-4.736-19.994-12.356
			c-1.016-2.031-2.79-3.567-4.941-4.284c-2.159-0.708-4.497-0.538-6.519,0.478l-19.507,9.796
			c-21.615,10.735-30.464,37.06-19.618,58.914c7.501,14.959,22.562,24.252,39.287,24.252H311.17l31.599,47.403
			c1.604,2.415,4.301,3.797,7.1,3.797c0.828,0,1.655-0.119,2.475-0.367c3.601-1.084,6.059-4.412,6.059-8.166V76.804
			C358.402,43.865,331.599,17.07,298.669,17.07z M341.335,108.351l-18.5-27.75c-1.587-2.372-4.25-3.797-7.1-3.797H171.948
			c-10.231,0-19.447-5.683-24.132-15.01c-6.545-13.193-1.143-29.252,12.083-35.823l12.732-6.391
			c7.381,9.139,18.5,14.558,30.609,14.558c0.009,0,0.017,0,0.026,0h95.403c23.526,0,42.667,19.14,42.667,42.667V108.351z"/>
	</g>
</g>
<g>
	<g>
		
			<rect x="146.768" y="106.625" transform="matrix(0.581 -0.8139 0.8139 0.581 -16.8539 197.5774)" width="73.404" height="17.067"/>
	</g>
</g>
<g>
	<g>
		<path d="M341.335,119.47v59.699c-0.102,31.036-11.469,60.954-32.026,84.267l-3.49,4.002
			c-12.587,14.345-30.754,22.613-49.826,22.69c-0.017,0-0.034,0-0.051,0c-19.183,0-37.444-8.26-49.758-22.272l-3.516-4.531
			c-20.514-23.253-31.881-53.146-32-84.122V85.337h-17.067v93.901c0.137,35.149,13.013,69.018,35.908,94.942l3.507,4.514
			c15.889,18.125,38.827,28.51,62.95,28.51c0.017,0,0.043,0,0.068,0c23.987-0.094,46.805-10.487,62.626-28.518l3.473-3.985
			c23.279-26.385,36.147-60.297,36.267-95.497V119.47H341.335z"/>
	</g>
</g>
<g>
	<g>
		<path d="M204.802,290.137v35.985c0.034,4.352-3.2,8.013-7.484,8.533l-62.421,7.356c-37.99,5.086-66.628,37.811-66.628,76.126
			v93.867h17.067v-93.867c-0.008-29.807,22.272-55.262,51.686-59.196l62.319-7.339c12.937-1.562,22.622-12.57,22.528-25.54v-35.925
			H204.802z"/>
	</g>
</g>
<g>
	<g>
		<path d="M376.979,342.079l-62.268-7.339c-4.318-0.521-7.543-4.181-7.509-8.593v-44.544h-17.067v44.476
			c-0.094,13.03,9.583,24.038,22.554,25.609l62.157,7.322c29.508,3.942,51.789,29.372,51.823,59.128v93.867h17.067v-93.875
			C443.684,379.848,415.046,347.165,376.979,342.079z"/>
	</g>
</g>
<g>
	<g>
		<path d="M324.968,337.975l-5.461,12.715c-10.906,25.421-35.814,41.847-63.471,41.847c-0.026,0-0.051,0-0.077,0
			c-27.657,0-52.557-16.427-63.454-41.847l-5.461-12.715l-15.684,6.733l5.461,12.706c13.585,31.71,44.638,52.19,79.13,52.19
			c0.026,0,0.06,0,0.094,0c34.483,0,65.545-20.489,79.147-52.181l5.461-12.715L324.968,337.975z"/>
	</g>
</g>
<g>
	<g>
		<rect x="136.535" y="443.737" width="17.067" height="68.267"/>
	</g>
</g>
<g>
	<g>
		<rect x="76.802" y="460.804" width="68.267" height="17.067"/>
	</g>
</g>
<g>
	<g>
		<rect x="358.402" y="443.737" width="17.067" height="68.267"/>
	</g>
</g>
<g>
	<g>
		<rect x="366.935" y="460.804" width="68.267" height="17.067"/>
	</g>
</g>
<g>
</g>
<g>
</g>
<g>
</g>
<g>
</g>
<g>
</g>
<g>
</g>
<g>
</g>
<g>
</g>
<g>
</g>
<g>
</g>
<g>
</g>
<g>
</g>
<g>
</g>
<g>
</g>
<g>
</g>
</svg>
