<?xml version="1.0" encoding="iso-8859-1"?>
<!-- Generator: Adobe Illustrator 19.0.0, SVG Export Plug-In . SVG Version: 6.00 Build 0)  -->
<svg version="1.1" id="Capa_1" xmlns="http://www.w3.org/2000/svg" xmlns:xlink="http://www.w3.org/1999/xlink" x="0px" y="0px"
	 viewBox="0 0 512 512" style="enable-background:new 0 0 512 512;" xml:space="preserve">
<g>
	<g>
		<circle cx="204.8" cy="136.533" r="17.067"/>
	</g>
</g>
<g>
	<g>
		<circle cx="307.2" cy="136.533" r="17.067"/>
	</g>
</g>
<g>
	<g>
		<path d="M247.526,126.942l-8.533,68.267c-0.299,2.432,0.452,4.872,2.074,6.707c1.621,1.835,3.951,2.884,6.4,2.884H256v-7.996
			l8.457-67.746L247.526,126.942z"/>
	</g>
</g>
<g>
	<g>
		<path d="M358.4,102.4h-8.533v17.067h8.533c9.412,0,17.067,7.654,17.067,17.067c0,9.412-7.654,17.067-17.067,17.067h-8.533v17.067
			h8.533c18.825,0,34.133-15.309,34.133-34.133C392.533,117.709,377.225,102.4,358.4,102.4z"/>
	</g>
</g>
<g>
	<g>
		<path d="M153.6,119.467h8.533V102.4H153.6c-18.825,0-34.133,15.309-34.133,34.133s15.309,34.133,34.133,34.133h8.533V153.6H153.6
			c-9.412,0-17.067-7.654-17.067-17.067C136.533,127.121,144.188,119.467,153.6,119.467z"/>
	</g>
</g>
<g>
	<g>
		<path d="M349.875,102.4v140.604c0.102,12.817-3.226,25.455-9.634,36.582c-12.885,22.605-37.06,36.651-63.104,36.651
			c-0.017,0-0.043,0-0.06,0h-38.98c-23.45-0.034-45.577-11.46-59.196-30.549l-3.174-4.446
			c-8.892-12.416-13.594-27.042-13.594-42.308V93.867h-17.067v145.067c0,18.85,5.811,36.915,16.768,52.224l3.166,4.446
			c16.811,23.569,44.117,37.658,73.079,37.709h38.989c0.026,0,0.051,0,0.077,0c32.145,0,61.995-17.348,77.909-45.235
			c7.893-13.73,12.006-29.355,11.887-45.133V102.4H349.875z"/>
	</g>
</g>
<g>
	<g>
		<path d="M319.309,25.728C301.491,9.122,278.426,0.009,253.952,0H230.4c-54.212,0-100.83,45.628-118.852,90.692
			c-0.956,2.389-0.777,5.077,0.469,7.322c1.246,2.253,3.448,3.814,5.973,4.258c5.803,1.024,135.893,23.245,195.183-27.93
			c7.467,14.396,22.366,37.965,42.53,44.689c0.879,0.29,1.792,0.435,2.697,0.435c1.766,0,3.516-0.546,4.992-1.613
			c2.227-1.604,3.541-4.181,3.541-6.921V76.8C366.933,49.775,345.873,27.563,319.309,25.728z M349.867,96.009
			c-12.749-11.11-22.801-30.976-26.214-39.458c-1.109-2.765-3.584-4.753-6.528-5.24c-0.469-0.077-0.93-0.111-1.391-0.111
			c-2.466,0-4.838,1.067-6.477,2.978C269.67,100.369,165.888,91.418,131.9,87.049c18.219-36.215,55.782-69.982,98.5-69.982h23.543
			c21.06,0.009,40.858,8.218,55.757,23.108c1.596,1.596,3.772,2.492,6.033,2.492c18.825,0,34.133,15.309,34.133,34.133V96.009z"/>
	</g>
</g>
<g>
	<g>
		<path d="M350.967,157.943l-29.321,51.985c-1.22,2.108-3.473,3.413-6.127,3.413c-2.671-0.051-4.463-1.067-5.777-3.072
			c-9.481-14.037-25.259-22.46-42.232-22.537h-23.006c-0.06,0-0.119,0-0.179,0c-17.024,0-32.87,8.414-42.47,22.613
			c-1.246,1.877-3.319,2.995-5.402,2.995h-0.009c-2.372-0.051-4.582-1.365-5.743-3.379l-29.696-52.053l-14.822,8.457l29.713,52.087
			c4.156,7.185,11.878,11.767,20.344,11.947c0.026,0,0.043,0,0.06,0c7.996,0,15.394-3.977,19.755-10.573
			c6.357-9.412,16.922-15.019,28.305-15.019c0.043,0,0.077,0,0.119,0h22.997c11.298,0.043,21.811,5.658,28.075,14.933
			c4.429,6.707,11.793,10.667,19.601,10.667c0.196,0,0.589-0.009,0.589-0.009c8.516,0,16.444-4.582,20.736-12.023l29.355-52.053
			L350.967,157.943z"/>
	</g>
</g>
<g>
	<g>
		<path d="M278.903,222.302c-14.771,4.932-31.036,4.932-45.798,0l-5.41,16.188c9.122,3.046,18.714,4.574,28.305,4.574
			c9.591,0,19.174-1.519,28.305-4.574L278.903,222.302z"/>
	</g>
</g>
<g>
	<g>
		<path d="M196.275,322.031c-0.017,6.733-5.069,12.493-11.708,13.397l-49.673,6.579c-37.99,5.086-66.628,37.811-66.628,76.126
			v59.733h17.067v-59.733c0-29.807,22.272-55.262,51.814-59.204l49.698-6.579c15.07-2.057,26.462-15.078,26.496-30.285
			L196.275,322.031z"/>
	</g>
</g>
<g>
	<g>
		<path d="M377.097,342.007l-49.621-6.579c-6.673-0.905-11.716-6.665-11.733-13.397l-17.067,0.034
			c0.034,15.206,11.418,28.228,26.53,30.285l49.638,6.579c29.551,3.942,51.823,29.397,51.823,59.204v59.733h17.067v-59.733
			C443.733,379.819,415.095,347.085,377.097,342.007z"/>
	</g>
</g>
<g>
	<g>
		<rect x="136.533" y="443.733" width="17.067" height="68.267"/>
	</g>
</g>
<g>
	<g>
		<rect x="358.4" y="443.733" width="17.067" height="68.267"/>
	</g>
</g>
<g>
	<g>
		<path d="M308.745,336.444L256,411.785l-52.736-75.341l-13.986,9.779l59.733,85.333c1.596,2.287,4.207,3.644,6.989,3.644
			s5.393-1.357,6.997-3.644l59.733-85.333L308.745,336.444z"/>
	</g>
</g>
<g>
	<g>
		<path d="M234.206,393.976l-40.397,26.931l-14.746-81.092l-16.794,3.046l17.067,93.867c0.512,2.825,2.415,5.205,5.06,6.332
			c1.075,0.452,2.21,0.674,3.337,0.674c1.655,0,3.311-0.486,4.736-1.425l51.2-34.133L234.206,393.976z"/>
	</g>
</g>
<g>
	<g>
		<path d="M332.937,339.806l-14.754,81.092l-40.388-26.931l-9.463,14.2l51.2,34.133c1.425,0.947,3.081,1.434,4.736,1.434
			c1.135,0,2.27-0.222,3.328-0.683c2.654-1.126,4.548-3.507,5.06-6.332l17.067-93.867L332.937,339.806z"/>
	</g>
</g>
<g>
	<g>
		<rect x="247.467" y="426.667" width="17.067" height="85.333"/>
	</g>
</g>
<g>
	<g>
		<rect x="221.867" y="375.467" width="68.267" height="17.067"/>
	</g>
</g>
<g>
	<g>
		<path d="M145.067,469.333H59.733c-4.71,0-8.533,3.814-8.533,8.533V512h17.067v-25.6h68.267V512H153.6v-34.133
			C153.6,473.148,149.777,469.333,145.067,469.333z"/>
	</g>
</g>
<g>
	<g>
		<path d="M452.267,469.333h-85.333c-4.719,0-8.533,3.814-8.533,8.533V512h17.067v-25.6h68.267V512H460.8v-34.133
			C460.8,473.148,456.986,469.333,452.267,469.333z"/>
	</g>
</g>
<g>
	<g>
		<path d="M226.133,443.733c-7.057,0-12.8,5.743-12.8,12.8c0,7.057,5.743,12.8,12.8,12.8s12.8-5.743,12.8-12.8
			C238.933,449.476,233.19,443.733,226.133,443.733z M226.133,460.8c-2.355,0-4.267-1.92-4.267-4.267s1.911-4.267,4.267-4.267
			c2.355,0,4.267,1.92,4.267,4.267S228.488,460.8,226.133,460.8z"/>
	</g>
</g>
<g>
</g>
<g>
</g>
<g>
</g>
<g>
</g>
<g>
</g>
<g>
</g>
<g>
</g>
<g>
</g>
<g>
</g>
<g>
</g>
<g>
</g>
<g>
</g>
<g>
</g>
<g>
</g>
<g>
</g>
</svg>
