<?xml version="1.0" encoding="iso-8859-1"?>
<!-- Generator: Adobe Illustrator 19.0.0, SVG Export Plug-In . SVG Version: 6.00 Build 0)  -->
<svg version="1.1" id="Capa_1" xmlns="http://www.w3.org/2000/svg" xmlns:xlink="http://www.w3.org/1999/xlink" x="0px" y="0px"
	 viewBox="0 0 512.005 512.005" style="enable-background:new 0 0 512.005 512.005;" xml:space="preserve">
<g>
	<g>
		<g>
			<path d="M162.13,145.092l-3.813-7.634c-0.006,0.003-0.025,0.013-0.027,0.014L162.13,145.092z"/>
			<polygon points="158.318,137.458 158.318,137.458 158.316,137.455 			"/>
			<path d="M187.73,93.894c0,28.08-28.683,43.185-29.412,43.564l7.636,15.263c1.587-0.794,38.851-19.873,38.842-58.827H187.73z"/>
		</g>
	</g>
</g>
<g>
	<g>
		<path d="M324.267,93.886h-17.066c0,38.962,37.264,58.042,38.851,58.835l7.654-15.257
			C353.407,137.31,324.267,122.181,324.267,93.886z"/>
	</g>
</g>
<g>
	<g>
		<rect x="170.664" y="85.336" width="170.661" height="17.066"/>
	</g>
</g>
<g>
	<g>
		<path d="M337.092,5.739c-9.864-5.7-21.35-7.219-32.374-4.267c-11.008,2.952-20.206,10.009-25.906,19.882l14.779,8.533
			c7.057-12.228,22.741-16.418,34.968-9.369c12.228,7.057,16.426,22.749,9.369,34.968c-1.391,2.406-3.149,4.565-5.231,6.408
			l11.298,12.783c3.473-3.055,6.4-6.639,8.712-10.649C364.466,43.652,357.469,17.506,337.092,5.739z"/>
	</g>
</g>
<g>
	<g>
		<circle cx="204.796" cy="162.133" r="17.066"/>
	</g>
</g>
<g>
	<g>
		<circle cx="307.192" cy="162.133" r="17.066"/>
	</g>
</g>
<g>
	<g>
		<path d="M250.763,196.282l13.329-39.969l-16.187-5.401l-17.066,51.198c-0.862,2.603-0.427,5.461,1.178,7.688
			c1.604,2.236,4.181,3.55,6.92,3.55h25.591v-17.066H250.763z"/>
	</g>
</g>
<g>
	<g>
		<path d="M275.569,224.373c-9.403,9.395-21.896,14.566-35.182,14.574h-1.451v17.066h1.451c17.843-0.009,34.619-6.954,47.247-19.566
			L275.569,224.373z"/>
	</g>
</g>
<g>
	<g>
		<path d="M358.399,136.551h-8.533v17.066h8.533c9.412,0,17.066,7.654,17.066,17.066c0,9.412-7.654,17.066-17.066,17.066h-8.533
			v17.066h8.533c18.824,0,34.132-15.308,34.132-34.132C392.531,151.859,377.223,136.551,358.399,136.551z"/>
	</g>
</g>
<g>
	<g>
		<path d="M153.606,153.617h8.533v-17.066h-8.533c-18.824,0-34.132,15.308-34.132,34.132c0,18.824,15.308,34.132,34.132,34.132
			h8.533v-17.066h-8.533c-9.412,0-17.066-7.654-17.066-17.066C136.54,161.271,144.194,153.617,153.606,153.617z"/>
	</g>
</g>
<g>
	<g>
		<path d="M342.238,158.319L313.2,215.831c-12.714-12.603-29.576-19.541-47.478-19.541h-18.867
			c-18.38,0.017-35.668,7.176-48.732,20.172l-28.586-50.004l-14.813,8.465l28.577,49.978c2.253,3.959,5.913,6.818,10.308,8.03
			c1.51,0.418,3.038,0.623,4.557,0.623c2.918,0,5.802-0.759,8.422-2.227c1.348-0.776,2.586-1.724,3.644-2.79
			c9.796-9.77,22.809-15.163,36.641-15.172h18.85c13.371,0,25.975,5.188,35.446,14.574c3.217,3.208,7.501,4.975,12.049,4.975
			c0.009,0,0.017,0,0.026,0c4.557-0.008,8.84-1.792,12.049-5.009c1.288-1.288,2.355-2.773,3.166-4.386l29.012-57.513
			L342.238,158.319z"/>
	</g>
</g>
<g>
	<g>
		<path d="M278.291,19.426c-7.33-1.579-14.847-2.372-22.305-2.338c-57.88,0.145-104.846,47.341-104.701,105.221
			c0.009,4.83,0.358,9.711,1.041,14.506c0,0.009,0,0.017,0,0.017l1.28,8.866v84.716c0,56.463,45.933,102.397,102.397,102.397
			s102.397-45.933,102.405-102.405v-84.452l0.41-1.98C370.943,87.435,334.831,31.56,278.291,19.426z M342.109,140.45l-0.597,2.901
			c-0.12,0.572-0.179,1.152-0.179,1.732v85.33c0,47.06-38.279,85.331-85.331,85.331s-85.33-38.279-85.33-85.331v-85.33
			c0-0.41-0.026-0.819-0.085-1.22l-1.365-9.446c-0.572-4.019-0.862-8.106-0.862-12.168c-0.119-48.459,39.209-87.984,87.677-88.104
			c6.272-0.043,12.535,0.64,18.67,1.954C322.04,46.271,352.281,93.049,342.109,140.45z"/>
	</g>
</g>
<g>
	<g>
		<path d="M196.271,307.212v26.657l-61.37,8.149c-37.989,5.086-66.626,37.81-66.626,76.123v93.863h17.066v-93.872
			c0-29.806,22.28-55.251,51.813-59.202l68.776-9.13c4.241-0.563,7.407-4.181,7.407-8.456v-34.132H196.271z"/>
	</g>
</g>
<g>
	<g>
		<path d="M377.095,342.027l-61.361-8.149V307.22h-17.066v34.132c0,4.275,3.166,7.893,7.407,8.456l68.768,9.13
			c29.55,3.942,51.821,29.396,51.821,59.202v93.863h17.066V418.15C443.73,379.837,415.084,347.104,377.095,342.027z"/>
	</g>
</g>
<g>
	<g>
		<path d="M301.56,375.382c-12.603,11.067-28.773,17.16-45.541,17.16c-0.017,0-0.043,0-0.06,0c-16.759,0-32.929-6.093-45.532-17.16
			l-11.255,12.817c15.718,13.807,35.89,21.409,56.787,21.409c0.026,0,0.051,0,0.077,0c20.906,0,41.07-7.603,56.787-21.409
			L301.56,375.382z"/>
	</g>
</g>
<g>
	<g>
		<rect x="196.263" y="341.327" width="17.066" height="170.661"/>
	</g>
</g>
<g>
	<g>
		<rect x="298.659" y="341.327" width="17.066" height="170.661"/>
	</g>
</g>
<g>
	<g>
		<path d="M164.776,426.666l22.664-83.086l-16.469-4.48l-25.599,93.864c-0.7,2.56-0.162,5.307,1.451,7.424
			c1.621,2.108,4.121,3.354,6.784,3.354h51.198v-17.075H164.776z"/>
	</g>
</g>
<g>
	<g>
		<path d="M366.633,432.972l-25.599-93.864l-16.469,4.48l22.655,83.086h-40.02v17.066h51.198c2.654,0,5.162-1.246,6.784-3.345
			C366.804,438.28,367.333,435.532,366.633,432.972z"/>
	</g>
</g>
<g>
	<g>
		<path d="M174.939,460.807c-7.057,0-12.8,5.743-12.8,12.8s5.743,12.8,12.8,12.8s12.8-5.743,12.8-12.8
			S181.995,460.807,174.939,460.807z M174.939,477.873c-2.355,0-4.267-1.92-4.267-4.267c0-2.347,1.911-4.267,4.267-4.267
			c2.355,0,4.267,1.92,4.267,4.267C179.205,475.953,177.294,477.873,174.939,477.873z"/>
	</g>
</g>
<g>
</g>
<g>
</g>
<g>
</g>
<g>
</g>
<g>
</g>
<g>
</g>
<g>
</g>
<g>
</g>
<g>
</g>
<g>
</g>
<g>
</g>
<g>
</g>
<g>
</g>
<g>
</g>
<g>
</g>
</svg>
