<?xml version="1.0" encoding="iso-8859-1"?>
<!-- Generator: Adobe Illustrator 19.0.0, SVG Export Plug-In . SVG Version: 6.00 Build 0)  -->
<svg version="1.1" id="Capa_1" xmlns="http://www.w3.org/2000/svg" xmlns:xlink="http://www.w3.org/1999/xlink" x="0px" y="0px"
	 viewBox="0 0 512 512" style="enable-background:new 0 0 512 512;" xml:space="preserve">
<g>
	<g>
		<path d="M248.772,204.8l7.142-49.997l-16.887-2.415l-8.533,59.733c-0.35,2.449,0.375,4.932,1.997,6.801
			c1.621,1.869,3.968,2.944,6.443,2.944h25.6V204.8H248.772z"/>
	</g>
</g>
<g>
	<g>
		<path d="M275.567,224.358c-9.404,9.395-21.897,14.566-35.183,14.575h-1.451V256h1.451c17.843-0.009,34.628-6.955,47.249-19.567
			L275.567,224.358z"/>
	</g>
</g>
<g>
	<g>
		<path d="M358.4,136.533h-8.533V153.6h8.533c9.412,0,17.067,7.654,17.067,17.067c0,9.412-7.654,17.067-17.067,17.067h-8.533V204.8
			h8.533c18.825,0,34.133-15.309,34.133-34.133S377.225,136.533,358.4,136.533z"/>
	</g>
</g>
<g>
	<g>
		<path d="M153.6,153.6h8.533v-17.067H153.6c-18.825,0-34.133,15.309-34.133,34.133S134.775,204.8,153.6,204.8h8.533v-17.067H153.6
			c-9.412,0-17.067-7.654-17.067-17.067C136.533,161.254,144.188,153.6,153.6,153.6z"/>
	</g>
</g>
<g>
	<g>
		<path d="M398.822,116.437c-2.167-5.965-5.905-11.119-10.735-14.984c2.449-4.557,3.831-9.66,4.011-14.985
			c0.299-9.114-2.97-17.801-9.199-24.457c-4.335-4.625-9.899-7.945-15.992-9.6c0.017-0.41,0.026-0.811,0.034-1.22
			c-0.026-18.807-15.334-34.099-34.142-34.099c-1.766,0.256-3.029,0.102-4.523,0.299C322.355,6.921,311.134,0.068,298.658,0
			c-7.893,0.017-15.377,2.722-21.333,7.526c-4.19-3.354-9.139-5.683-14.549-6.776c-8.926-1.818-18.039-0.034-25.643,5.009
			c-0.845,0.555-1.655,1.152-2.441,1.775c-5.965-4.804-13.466-7.518-21.41-7.535c-12.416,0.068-23.62,6.921-29.542,17.382
			c-6.016-0.811-12.177-0.009-17.92,2.441c-8.388,3.575-14.882,10.206-18.287,18.671c-1.63,4.053-2.466,8.328-2.466,12.8
			c0,0.358,0.009,0.717,0.034,1.075c-5.888,1.587-11.255,4.736-15.607,9.233c-6.34,6.545-9.754,15.181-9.6,24.294
			c0.094,5.444,1.519,10.778,4.053,15.531c-11.102,8.892-15.88,24.209-10.76,38.306c3.465,9.532,10.914,16.981,20.437,20.437
			l5.82-16.043c-4.77-1.732-8.491-5.453-10.223-10.223c-1.553-4.284-1.348-8.917,0.58-13.047c1.937-4.13,5.359-7.262,9.643-8.815
			c2.782-1.007,4.847-3.396,5.444-6.306c0.597-2.91-0.358-5.922-2.526-7.945c-3.354-3.14-5.325-7.578-5.402-12.177
			c-0.077-4.557,1.63-8.875,4.796-12.151c3.174-3.277,7.424-5.12,11.844-5.197h1.621c2.807,0,5.444-1.382,7.031-3.695
			c1.587-2.313,1.946-5.265,0.939-7.885c-0.683-1.784-1.041-3.661-1.058-5.478c0-2.185,0.418-4.326,1.229-6.349
			c1.698-4.233,4.949-7.552,9.139-9.335c4.198-1.784,8.841-1.826,13.065-0.128c2.27,0.905,4.821,0.802,6.997-0.282
			c2.185-1.092,3.797-3.063,4.437-5.419c1.988-7.39,8.721-12.587,16.316-12.629c5.751,0.017,11.068,2.884,14.225,7.68
			c1.57,2.389,4.241,3.84,7.108,3.84c0.009,0,0.017,0,0.017,0c2.859,0,5.53-1.434,7.117-3.814c1.271-1.911,2.884-3.524,4.796-4.796
			c3.797-2.509,8.363-3.388,12.817-2.5c4.471,0.905,8.32,3.499,10.837,7.296c1.579,2.381,4.25,3.814,7.108,3.814
			c0.009,0,0.009,0,0.017,0c2.867,0,5.53-1.451,7.108-3.84c3.157-4.796,8.474-7.671,14.157-7.68
			c7.663,0.043,14.404,5.24,16.384,12.629c0.64,2.355,2.253,4.326,4.437,5.419c2.185,1.092,4.727,1.195,6.989,0.282
			c2.031-0.819,4.173-1.237,6.357-1.237c0.008,0,0.008,0,0.017,0c9.404,0,17.058,7.646,17.067,16.947
			c-0.026,1.911-0.375,3.797-1.058,5.581c-1.015,2.62-0.666,5.572,0.939,7.885c1.587,2.313,4.216,3.695,7.023,3.695h1.476
			c4.591,0.077,9.037,2.048,12.177,5.402c3.115,3.328,4.753,7.671,4.599,12.228c-0.154,4.557-2.065,8.781-5.402,11.895
			c-2.167,2.031-3.123,5.035-2.526,7.945c0.597,2.901,2.662,5.291,5.444,6.306c4.762,1.724,8.499,5.453,10.223,10.214
			c3.209,8.849-1.374,18.662-10.214,21.871l5.82,16.043C396.075,153.754,405.239,134.135,398.822,116.437z"/>
	</g>
</g>
<g>
	<g>
		<circle cx="204.8" cy="170.667" r="17.067"/>
	</g>
</g>
<g>
	<g>
		<circle cx="307.2" cy="170.667" r="17.067"/>
	</g>
</g>
<g>
	<g>
		<path d="M357.965,142.379l-17.067-51.2c-0.939-2.807-3.251-4.924-6.135-5.606c-2.901-0.7-5.914,0.179-7.996,2.27
			c-10.778,10.778-28.314,10.812-39.1,0.026c-1.391-1.408-3.234-2.295-5.222-2.492c-2.594-0.256-5.077,0.657-6.886,2.466
			c-5.214,5.222-12.16,8.107-19.541,8.107c-0.009,0-0.017,0-0.017,0c-7.381,0-14.319-2.876-19.567-8.115
			c-1.596-1.604-3.772-2.5-6.033-2.5c-2.27,0-4.437,0.896-6.042,2.492c-10.761,10.786-28.297,10.812-39.125,0
			c-2.091-2.091-5.129-2.961-7.996-2.27c-2.876,0.683-5.197,2.799-6.135,5.606l-17.067,51.2c-0.358,1.067-0.495,2.193-0.418,3.311
			l7.339,102.391c0.913,12.911,6.11,25.395,14.626,35.132l31.326,35.934c12.339,14.123,30.148,22.204,48.828,22.204
			c0.145,0,0.307,0,0.461,0c18.748,0,36.557-8.081,48.913-22.178l31.514-36.053c8.431-9.737,13.551-22.187,14.421-35.012
			l7.339-102.4C358.468,144.572,358.323,143.445,357.965,142.379z M334.003,246.886c-0.614,9.182-4.275,18.065-10.274,24.994
			L292.241,307.9c-9.097,10.411-22.221,16.367-36.096,16.367c-0.06,0-0.119,0-0.171,0c-0.06,0-0.12,0-0.171,0
			c-13.824,0-26.948-5.956-36.036-16.367l-31.326-35.934c-6.093-6.963-9.813-15.881-10.462-25.114l-7.219-100.702l12.817-38.468
			c6.443,3.482,13.679,5.325,21.205,5.325c0.017,0,0.026,0,0.034,0c9.284-0.009,18.125-2.825,25.574-8.038
			c7.458,5.222,16.316,8.038,25.6,8.038c0.017,0,0.026,0,0.034,0c9.284,0,18.133-2.816,25.583-8.038
			c13.884,9.711,32.094,10.59,46.797,2.697l12.826,38.485L334.003,246.886z"/>
	</g>
</g>
<g>
	<g>
		<path d="M196.267,307.2v26.658l-61.372,8.149c-37.99,5.086-66.628,37.811-66.628,76.126V512h17.067v-93.867
			c0-29.807,22.272-55.262,51.814-59.213l68.779-9.131c4.241-0.563,7.407-4.181,7.407-8.457V307.2H196.267z"/>
	</g>
</g>
<g>
	<g>
		<path d="M377.097,342.008l-61.363-8.149V307.2h-17.067v34.133c0,4.275,3.166,7.893,7.407,8.465l68.77,9.131
			c29.551,3.942,51.823,29.397,51.823,59.204V512h17.067v-93.867C443.733,379.819,415.096,347.085,377.097,342.008z"/>
	</g>
</g>
<g>
	<g>
		<path d="M301.568,375.373c-12.604,11.068-28.783,17.161-45.568,17.161c-16.785,0-32.964-6.093-45.577-17.16l-11.255,12.817
			c15.718,13.807,35.9,21.41,56.832,21.41s41.114-7.603,56.832-21.41L301.568,375.373z"/>
	</g>
</g>
<g>
	<g>
		<rect x="136.533" y="443.733" width="17.067" height="68.267"/>
	</g>
</g>
<g>
	<g>
		<rect x="76.8" y="460.8" width="68.267" height="17.067"/>
	</g>
</g>
<g>
	<g>
		<rect x="358.4" y="443.733" width="17.067" height="68.267"/>
	</g>
</g>
<g>
	<g>
		<rect x="366.933" y="460.8" width="68.267" height="17.067"/>
	</g>
</g>
<g>
	<g>
		<rect x="196.267" y="341.333" width="17.067" height="170.667"/>
	</g>
</g>
<g>
	<g>
		<rect x="298.667" y="341.333" width="17.067" height="170.667"/>
	</g>
</g>
<g>
	<g>
		<path d="M165.436,409.6l21.854-65.562l-16.188-5.402l-25.6,76.8c-0.862,2.594-0.427,5.461,1.178,7.689
			c1.604,2.227,4.181,3.541,6.921,3.541h51.2V409.6H165.436z"/>
	</g>
</g>
<g>
	<g>
		<path d="M366.481,415.428l-25.6-76.8l-16.179,5.402l21.854,65.57H307.2v17.067h51.2c2.739,0,5.316-1.314,6.912-3.55
			C366.916,420.898,367.36,418.031,366.481,415.428z"/>
	</g>
</g>
<g>
	<g>
		<path d="M174.933,443.733c-7.057,0-12.8,5.743-12.8,12.8c0,7.057,5.743,12.8,12.8,12.8s12.8-5.743,12.8-12.8
			C187.733,449.476,181.99,443.733,174.933,443.733z M174.933,460.8c-2.355,0-4.267-1.92-4.267-4.267s1.911-4.267,4.267-4.267
			c2.355,0,4.267,1.92,4.267,4.267S177.289,460.8,174.933,460.8z"/>
	</g>
</g>
<g>
</g>
<g>
</g>
<g>
</g>
<g>
</g>
<g>
</g>
<g>
</g>
<g>
</g>
<g>
</g>
<g>
</g>
<g>
</g>
<g>
</g>
<g>
</g>
<g>
</g>
<g>
</g>
<g>
</g>
</svg>
