<?xml version="1.0" encoding="iso-8859-1"?>
<!-- Generator: Adobe Illustrator 19.0.0, SVG Export Plug-In . SVG Version: 6.00 Build 0)  -->
<svg version="1.1" id="Capa_1" xmlns="http://www.w3.org/2000/svg" xmlns:xlink="http://www.w3.org/1999/xlink" x="0px" y="0px"
	 viewBox="0 0 512 512" style="enable-background:new 0 0 512 512;" xml:space="preserve">
<g>
	<g>
		<path d="M349.862,136.533h-8.533V153.6h8.533c9.412,0,17.067,7.654,17.067,17.067c0,9.412-7.654,17.067-17.067,17.067h-8.533
			V204.8h8.533c18.825,0,34.133-15.309,34.133-34.133S368.687,136.533,349.862,136.533z"/>
	</g>
</g>
<g>
	<g>
		<path d="M162.129,162.133h8.533v-17.067h-8.533c-18.825,0-34.133,15.309-34.133,34.133s15.309,34.133,34.133,34.133h8.533v-17.067
			h-8.533c-9.412,0-17.067-7.654-17.067-17.067S152.717,162.133,162.129,162.133z"/>
	</g>
</g>
<g>
	<g>
		<path d="M249.169,204.8l9.506-51.797l-16.785-3.081l-11.349,61.867c-0.461,2.492,0.213,5.06,1.835,7.006s4.019,3.072,6.554,3.072
			h25.6V204.8H249.169z"/>
	</g>
</g>
<g>
	<g>
		<rect x="230.396" y="238.933" width="51.2" height="17.067"/>
	</g>
</g>
<g>
	<g>
		<path d="M358.14,151.526L341.073,83.26c-1.041-4.147-5.069-6.895-9.207-6.409c-50.355,5.547-101.393,5.555-151.731,0
			c-4.25-0.469-8.183,2.27-9.216,6.409l-17.067,68.267c-0.23,0.939-0.307,1.92-0.213,2.884l7.671,80.017
			c0.896,10.889,5.146,21.018,12.305,29.303l42.743,49.161c6.477,7.245,15.735,11.375,25.378,11.375c0.085,0,0.179,0,0.265,0h27.921
			c0.094,0,0.179,0,0.273,0c9.702,0,18.961-4.13,25.523-11.469l42.94-49.263c7.134-8.26,11.392-18.389,12.279-29.193l7.424-79.957
			C358.447,153.429,358.37,152.457,358.14,151.526z M333.939,232.858c-0.589,7.262-3.422,14.012-8.166,19.499l-42.846,49.152
			c-3.243,3.627-7.876,5.692-12.791,5.692c-0.043,0-0.094,0-0.137,0h-28.058c-5.009-0.094-9.591-2.031-12.783-5.598l-42.65-49.05
			c-4.762-5.513-7.595-12.262-8.201-19.635l-7.544-78.669l14.916-59.657c46.703,4.651,93.935,4.651,140.638,0l14.916,59.665
			L333.939,232.858z"/>
	</g>
</g>
<g>
	<g>
		<circle cx="204.796" cy="162.133" r="17.067"/>
	</g>
</g>
<g>
	<g>
		<circle cx="298.662" cy="162.133" r="17.067"/>
	</g>
</g>
<g>
	<g>
		
			<rect x="204.274" y="226.122" transform="matrix(0.9701 -0.2427 0.2427 0.9701 -50.3173 60.8626)" width="35.183" height="17.067"/>
	</g>
</g>
<g>
	<g>
		
			<rect x="281.581" y="217.087" transform="matrix(0.2425 -0.9701 0.9701 0.2425 -7.9136 459.219)" width="17.066" height="35.181"/>
	</g>
</g>
<g>
	<g>
		<path d="M359.778,69.734c0.256-5.939-0.998-11.87-3.712-17.331c-4.233-8.482-11.511-14.814-20.506-17.826
			c-4.548-1.527-9.395-2.082-14.157-1.715c-5.683-14.583-19.738-24.294-35.541-24.329c-10.684,0-19.891,2.773-26.761,7.808
			C253.811,7.817,243.87,0,226.129,0c-19.243,0-35.226,14.225-37.99,32.725c-5.538-0.051-11.136,1.178-16.273,3.738
			c-8.491,4.232-14.822,11.511-17.835,20.497c-1.374,4.104-1.971,8.456-1.792,12.766c-14.012,4.25-24.243,17.289-24.243,32.674
			v8.533c0,0.469,0.034,0.939,0.119,1.408l8.533,51.2l16.828-2.816l-8.414-50.5V102.4c0-9.412,7.654-17.067,17.067-17.067
			c2.748,0,5.325-1.323,6.929-3.55c1.604-2.227,2.031-5.094,1.169-7.689c-1.263-3.772-1.263-7.927,0-11.708
			c3.226-9.634,13.67-14.865,23.33-11.622c2.586,0.862,5.453,0.435,7.689-1.169c2.227-1.604,3.55-4.181,3.55-6.929V38.4
			c0-11.759,9.574-21.333,21.333-21.333c19.447,0,21.248,13.133,21.333,17.067c0,4.156,2.995,7.714,7.091,8.414
			c4.13,0.708,8.107-1.664,9.489-5.581c3.712-10.547,17.638-11.366,21.803-11.366c9.071,0.017,17.109,5.811,20.002,14.387
			l1.792,5.376c0.717,2.15,2.261,3.925,4.284,4.941c2.031,1.007,4.378,1.161,6.519,0.452c3.797-1.263,7.945-1.263,11.708,0
			c4.668,1.562,8.448,4.847,10.65,9.259c2.193,4.412,2.543,9.404,0.973,14.071c-0.879,2.603-0.444,5.47,1.161,7.697
			c1.604,2.227,4.19,3.55,6.929,3.55c9.412,0,17.067,7.654,17.067,17.067v7.689l-8.371,41.83l16.734,3.354l8.533-42.667
			c0.111-0.555,0.171-1.109,0.171-1.673V102.4C383.996,87.023,373.781,73.993,359.778,69.734z"/>
	</g>
</g>
<g>
	<g>
		<rect x="247.462" y="290.133" width="17.067" height="17.067"/>
	</g>
</g>
<g>
	<g>
		
			<rect x="212.632" y="285.883" transform="matrix(0.3164 -0.9486 0.9486 0.3164 -124.7141 415.7664)" width="26.982" height="17.066"/>
	</g>
</g>
<g>
	<g>
		
			<rect x="277.324" y="280.922" transform="matrix(0.9487 -0.3162 0.3162 0.9487 -78.427 105.4918)" width="17.058" height="26.983"/>
	</g>
</g>
<g>
	<g>
		<path d="M196.262,290.133v36.173c0.034,4.301-3.157,7.97-7.441,8.533l-53.931,7.168c-37.99,5.086-66.628,37.811-66.628,76.126V512
			h17.067v-93.867c0-29.807,22.272-55.262,51.814-59.213l53.914-7.168c12.809-1.681,22.383-12.689,22.272-25.523v-36.096H196.262z"
			/>
	</g>
</g>
<g>
	<g>
		<path d="M377.101,342.178l-53.939-7.168c-4.275-0.563-7.467-4.224-7.424-8.61v-36.267h-17.067v36.19
			c-0.111,12.928,9.463,23.936,22.255,25.6l53.914,7.168c29.474,3.942,51.746,29.338,51.823,59.042V512h17.067h0.009v-93.884
			C443.644,379.887,414.997,347.247,377.101,342.178z"/>
	</g>
</g>
<g>
	<g>
		<path d="M324.962,337.971l-5.461,12.715c-10.906,25.421-35.814,41.847-63.471,41.847c-0.026,0-0.051,0-0.077,0
			c-27.657,0-52.557-16.427-63.454-41.847l-5.461-12.715l-15.684,6.733l5.461,12.706c13.585,31.71,44.638,52.19,79.13,52.19
			c0.026,0,0.06,0,0.094,0c34.483,0,65.553-20.48,79.147-52.181l5.461-12.715L324.962,337.971z"/>
	</g>
</g>
<g>
	<g>
		<rect x="136.529" y="443.733" width="17.067" height="68.267"/>
	</g>
</g>
<g>
	<g>
		<rect x="76.796" y="460.8" width="68.267" height="17.067"/>
	</g>
</g>
<g>
	<g>
		<rect x="358.396" y="443.733" width="17.067" height="68.267"/>
	</g>
</g>
<g>
	<g>
		<rect x="366.929" y="460.8" width="68.267" height="17.067"/>
	</g>
</g>
<g>
</g>
<g>
</g>
<g>
</g>
<g>
</g>
<g>
</g>
<g>
</g>
<g>
</g>
<g>
</g>
<g>
</g>
<g>
</g>
<g>
</g>
<g>
</g>
<g>
</g>
<g>
</g>
<g>
</g>
</svg>
