<?xml version="1.0" encoding="iso-8859-1"?>
<!-- Generator: Adobe Illustrator 19.0.0, SVG Export Plug-In . SVG Version: 6.00 Build 0)  -->
<svg version="1.1" id="Capa_1" xmlns="http://www.w3.org/2000/svg" xmlns:xlink="http://www.w3.org/1999/xlink" x="0px" y="0px"
	 viewBox="0 0 512 512" style="enable-background:new 0 0 512 512;" xml:space="preserve">
<g>
	<g>
		<path d="M349.867,145.067h-8.533v17.067h8.533c9.412,0,17.067,7.654,17.067,17.067s-7.654,17.067-17.067,17.067h-8.533v17.067
			h8.533c18.825,0,34.133-15.309,34.133-34.133S368.691,145.067,349.867,145.067z"/>
	</g>
</g>
<g>
	<g>
		<path d="M162.133,162.133h8.533v-17.067h-8.533c-18.825,0-34.133,15.309-34.133,34.133s15.309,34.133,34.133,34.133h8.533v-17.067
			h-8.533c-9.412,0-17.067-7.654-17.067-17.067S152.721,162.133,162.133,162.133z"/>
	</g>
</g>
<g>
	<g>
		<circle cx="204.8" cy="170.667" r="17.067"/>
	</g>
</g>
<g>
	<g>
		<circle cx="298.667" cy="170.667" r="17.067"/>
	</g>
</g>
<g>
	<g>
		<path d="M339.985,169.284l-42.65,49.562c-1.621,1.869-3.968,2.944-6.434,2.944h-69.717c-2.5,0-4.864-1.092-6.477-2.978
			l-43.605-51.2l-12.988,11.068l43.614,51.208c4.872,5.692,11.964,8.96,19.456,8.96h69.726c7.424,0,14.473-3.226,19.345-8.849
			l42.667-49.579L339.985,169.284z"/>
	</g>
</g>
<g>
	<g>
		<path d="M286.319,248.363c-9.984,5.001-21.163,7.637-32.324,7.637c-0.009,0-0.026,0-0.043,0h-15.019v17.067h15.01
			c0.017,0,0.043,0,0.06,0c13.79,0,27.605-3.26,39.953-9.438L286.319,248.363z"/>
	</g>
</g>
<g>
	<g>
		<path d="M248.602,221.867l7.322-58.675l-16.93-2.116l-8.533,68.267c-0.299,2.432,0.452,4.872,2.074,6.707s3.951,2.884,6.4,2.884
			h25.6v-17.067H248.602z"/>
	</g>
</g>
<g>
	<g>
		<path d="M327.868,96.725c-4.736-7.117-12.689-11.375-21.265-11.392H205.372c-8.559,0.017-16.495,4.284-21.24,11.392
			l-29.099,43.605l14.191,9.472l29.107-43.605c1.579-2.372,4.233-3.797,7.066-3.797h101.188c2.85,0,5.495,1.425,7.083,3.797
			l29.099,43.605l14.199-9.481L327.868,96.725z"/>
	</g>
</g>
<g>
	<g>
		<path d="M330.897,28.698l-9.131-9.131c-2.441-2.441-6.11-3.166-9.301-1.852c-3.191,1.323-5.265,4.437-5.265,7.885v2.142
			C293.623,14.455,276.634,4.89,258.065,0.256c-1.357-0.341-2.773-0.341-4.13,0C235.366,4.89,218.368,14.455,204.8,27.733V25.6
			c0-3.234-1.826-6.187-4.719-7.637c-2.893-1.451-6.357-1.135-8.934,0.811C167.637,36.412,153.6,64.478,153.6,93.867l0.026,34.662
			l7.424,119.475c0.836,13.107,6.067,25.771,14.737,35.635l31.13,35.49c12.339,14.123,30.148,22.204,48.828,22.204
			c0.145,0,0.307,0,0.461,0c18.739,0,36.548-8.081,48.887-22.195l31.445-35.977c8.414-9.779,13.534-22.246,14.421-35.166
			l7.424-119.467c0.009-0.171,0.017-0.35,0.017-0.529V95.061C358.391,69.99,348.629,46.421,330.897,28.698z M341.333,127.735
			l-7.407,119.142c-0.631,9.216-4.301,18.15-10.283,25.097L292.241,307.9c-9.097,10.411-22.221,16.367-36.096,16.367
			c-0.06,0-0.119,0-0.171,0c-0.06,0-0.12,0-0.171,0c-13.815,0-26.948-5.956-36.062-16.375l-31.147-35.507
			c-6.187-7.049-9.933-16.094-10.522-25.446L170.667,128V93.867c0-17.638,6.178-34.697,17.067-48.23V51.2
			c0,3.669,2.347,6.929,5.82,8.098c3.465,1.143,7.313-0.026,9.523-2.944l4.548-6.016C219.614,34.304,236.732,22.656,256,17.357
			c19.277,5.299,36.395,16.956,48.41,33.024l4.523,5.973c2.21,2.927,6.059,4.105,9.515,2.935c3.482-1.169,5.82-4.42,5.82-8.09
			v-4.412c11.051,13.619,17.058,30.49,17.067,48.273V127.735z"/>
	</g>
</g>
<g>
	<g>
		<path d="M204.8,315.733v27.452c0.034,4.352-3.2,8.013-7.484,8.533l-62.421,7.356c-37.99,5.086-66.628,37.811-66.628,76.126V512
			h17.067v-76.8c0-29.807,22.272-55.253,51.686-59.196l62.319-7.339c12.937-1.562,22.622-12.57,22.528-25.54v-27.392H204.8z"/>
	</g>
</g>
<g>
	<g>
		<path d="M376.806,359.057l-62.532-7.364c-3.763-0.333-6.758-3.302-7.074-6.255v-36.019h-17.067l0.043,36.83
			c1.143,11.938,10.633,21.385,22.34,22.426l62.182,7.322c29.619,3.883,51.959,29.329,51.968,59.204V512h17.067v-76.8
			C443.725,396.783,415.002,364.058,376.806,359.057z"/>
	</g>
</g>
<g>
	<g>
		<path d="M324.966,355.038l-5.461,12.715c-10.906,25.421-35.814,41.847-63.471,41.847c-0.026,0-0.051,0-0.077,0
			c-27.648,0-52.557-16.427-63.454-41.847l-5.461-12.715l-15.684,6.733l5.461,12.706c13.585,31.71,44.638,52.19,79.13,52.19
			c0.026,0,0.06,0,0.094,0c34.483,0,65.553-20.48,79.147-52.181l5.461-12.715L324.966,355.038z"/>
	</g>
</g>
<g>
	<g>
		<rect x="136.533" y="460.8" width="17.067" height="51.2"/>
	</g>
</g>
<g>
	<g>
		<rect x="76.8" y="460.8" width="68.267" height="17.067"/>
	</g>
</g>
<g>
	<g>
		<rect x="358.4" y="460.8" width="17.067" height="51.2"/>
	</g>
</g>
<g>
	<g>
		<rect x="366.933" y="460.8" width="68.267" height="17.067"/>
	</g>
</g>
<g>
</g>
<g>
</g>
<g>
</g>
<g>
</g>
<g>
</g>
<g>
</g>
<g>
</g>
<g>
</g>
<g>
</g>
<g>
</g>
<g>
</g>
<g>
</g>
<g>
</g>
<g>
</g>
<g>
</g>
</svg>
