<?xml version="1.0" encoding="iso-8859-1"?>
<!-- Generator: Adobe Illustrator 19.0.0, SVG Export Plug-In . SVG Version: 6.00 Build 0)  -->
<svg version="1.1" id="Capa_1" xmlns="http://www.w3.org/2000/svg" xmlns:xlink="http://www.w3.org/1999/xlink" x="0px" y="0px"
	 viewBox="0 0 512 512" style="enable-background:new 0 0 512 512;" xml:space="preserve">
<g>
	<g>
		<path d="M263.838,131.362l-15.684-6.724l-25.6,59.733c-0.939,2.202-0.922,4.685,0.06,6.861c0.981,2.176,2.825,3.849,5.086,4.599
			l25.6,8.533l5.393-16.196l-16.802-5.598L263.838,131.362z"/>
	</g>
</g>
<g>
	<g>
		<path d="M358.396,110.933h-8.533V128h8.533c9.412,0,17.067,7.654,17.067,17.067c0,9.412-7.654,17.067-17.067,17.067h-8.533V179.2
			h8.533c18.825,0,34.133-15.309,34.133-34.133C392.529,126.242,377.22,110.933,358.396,110.933z"/>
	</g>
</g>
<g>
	<g>
		<path d="M153.596,128h8.533v-17.067h-8.533c-18.825,0-34.133,15.309-34.133,34.133s15.309,34.133,34.133,34.133h8.533v-17.067
			h-8.533c-9.412,0-17.067-7.654-17.067-17.067C136.529,135.654,144.183,128,153.596,128z"/>
	</g>
</g>
<g>
	<g>
		<circle cx="204.796" cy="145.067" r="17.067"/>
	</g>
</g>
<g>
	<g>
		<circle cx="298.662" cy="145.067" r="17.067"/>
	</g>
</g>
<g>
	<g>
		<path d="M269.248,222.763c-9.984,5-21.171,7.637-32.341,7.637c-0.009,0-0.017,0-0.026,0h-6.485v17.067h6.485
			c0.008,0,0.017,0,0.026,0c13.807,0,27.622-3.26,39.979-9.438L269.248,222.763z"/>
	</g>
</g>
<g>
	<g>
		<path d="M283.678,2.517C276.45,0.862,269.035,0.009,261.628,0h-11.273c-54.673,0.051-99.115,44.578-99.072,99.251
			c0,7.1,0.777,14.216,2.304,21.163v96.094c0.051,22.067,9.609,43.068,26.206,57.6l25.583,22.426
			c13.995,12.331,31.957,19.149,50.654,19.2c18.611-0.077,36.531-6.895,50.475-19.183l25.591-22.434
			c16.606-14.532,26.155-35.533,26.214-57.626v-96.085C369.941,67.447,336.644,14.694,283.678,2.517z M341.457,117.555
			c-0.137,0.631-0.213,1.271-0.213,1.911v97.007c-0.043,17.161-7.475,33.493-20.395,44.8l-25.617,22.46
			c-10.854,9.574-24.806,14.874-39.219,14.933c-14.49-0.034-28.467-5.342-39.364-14.95l-25.6-22.443
			c-12.919-11.307-20.343-27.639-20.386-44.783v-97.024c0-0.64-0.068-1.28-0.213-1.911c-1.382-6.008-2.091-12.169-2.091-18.321
			c-0.043-45.269,36.753-82.125,82.005-82.167h11.247c6.118,0.009,12.262,0.708,18.244,2.091
			C323.964,29.303,351.595,73.446,341.457,117.555z"/>
	</g>
</g>
<g>
	<g>
		<path d="M342.447,103.262c-12.74-9.566-22.127-22.588-27.162-37.692c-1.323-3.985-5.333-6.409-9.489-5.717
			c-33.05,5.495-66.56,5.495-99.601,0c-3.857-0.623-7.62,1.408-9.199,4.958l-6.391,14.421c-4.036,9.668-9.873,18.278-17.442,25.668
			l-17.067,17.067l12.066,12.066l16.99-16.998c9.148-8.926,16.273-19.439,21.12-31.061l3.669-8.269
			c30.455,4.42,61.244,4.437,91.708,0.06c6.519,15.522,16.973,28.954,30.549,39.151l12.544,9.387l10.24-13.662L342.447,103.262z"/>
	</g>
</g>
<g>
	<g>
		<path d="M273.062,196.267h-34.133c-23.526,0-42.667,19.14-42.667,42.667V281.6h17.067v-42.667c0-14.114,11.486-25.6,25.6-25.6
			h34.133c14.114,0,25.6,11.486,25.6,25.6V281.6h17.067v-42.667C315.729,215.407,296.589,196.267,273.062,196.267z"/>
	</g>
</g>
<g>
	<g>
		<rect x="247.462" y="264.533" width="17.067" height="42.667"/>
	</g>
</g>
<g>
	<g>
		<path d="M196.262,281.6v44.706c0.034,4.301-3.157,7.97-7.441,8.533l-53.931,7.168c-37.99,5.086-66.628,37.811-66.628,76.126V512
			h17.067v-93.867c0-29.807,22.272-55.262,51.814-59.213l53.914-7.168c12.809-1.681,22.383-12.689,22.272-25.523V281.6H196.262z"/>
	</g>
</g>
<g>
	<g>
		<path d="M377.101,342.178l-53.939-7.168c-4.275-0.563-7.467-4.224-7.424-8.61v-44.8h-17.067v44.723
			c-0.111,12.928,9.463,23.936,22.255,25.6l53.914,7.168c29.474,3.942,51.746,29.338,51.823,59.042V512h17.067h0.009v-93.884
			C443.644,379.887,414.997,347.247,377.101,342.178z"/>
	</g>
</g>
<g>
	<g>
		<path d="M324.962,337.971l-5.461,12.715c-10.906,25.421-35.814,41.847-63.471,41.847c-0.026,0-0.051,0-0.077,0
			c-27.657,0-52.557-16.427-63.454-41.847l-5.461-12.715l-15.684,6.733l5.461,12.706c13.585,31.71,44.638,52.19,79.13,52.19
			c0.026,0,0.06,0,0.094,0c34.483,0,65.553-20.48,79.147-52.181l5.461-12.715L324.962,337.971z"/>
	</g>
</g>
<g>
	<g>
		<rect x="136.529" y="443.733" width="17.067" height="68.267"/>
	</g>
</g>
<g>
	<g>
		<rect x="76.796" y="460.8" width="68.267" height="17.067"/>
	</g>
</g>
<g>
	<g>
		<rect x="358.396" y="443.733" width="17.067" height="68.267"/>
	</g>
</g>
<g>
	<g>
		<rect x="366.929" y="460.8" width="68.267" height="17.067"/>
	</g>
</g>
<g>
</g>
<g>
</g>
<g>
</g>
<g>
</g>
<g>
</g>
<g>
</g>
<g>
</g>
<g>
</g>
<g>
</g>
<g>
</g>
<g>
</g>
<g>
</g>
<g>
</g>
<g>
</g>
<g>
</g>
</svg>
