<?xml version="1.0" encoding="iso-8859-1"?>
<!-- Generator: Adobe Illustrator 19.0.0, SVG Export Plug-In . SVG Version: 6.00 Build 0)  -->
<svg version="1.1" id="Capa_1" xmlns="http://www.w3.org/2000/svg" xmlns:xlink="http://www.w3.org/1999/xlink" x="0px" y="0px"
	 viewBox="0 0 512 512" style="enable-background:new 0 0 512 512;" xml:space="preserve">
<g>
	<g>
		<path d="M349.867,119.467h-8.533v17.067h8.533c9.412,0,17.067,7.654,17.067,17.067c0,9.412-7.654,17.067-17.067,17.067h-8.533
			v17.067h8.533c18.825,0,34.133-15.309,34.133-34.133C384,134.775,368.691,119.467,349.867,119.467z"/>
	</g>
</g>
<g>
	<g>
		<path d="M162.133,145.067h8.533V128h-8.533C143.309,128,128,143.309,128,162.133s15.309,34.133,34.133,34.133h8.533V179.2h-8.533
			c-9.412,0-17.067-7.654-17.067-17.067C145.067,152.721,152.721,145.067,162.133,145.067z"/>
	</g>
</g>
<g>
	<g>
		<path d="M249.173,187.733l9.506-51.797l-16.785-3.081l-11.349,61.867c-0.461,2.492,0.213,5.06,1.835,7.006
			c1.621,1.946,4.019,3.072,6.554,3.072h25.6v-17.067H249.173z"/>
	</g>
</g>
<g>
	<g>
		<path d="M284.092,215.834c-3.814,3.831-9.114,6.033-14.524,6.033H230.4v17.067h39.168c10.061,0,19.499-3.925,26.607-11.042
			L284.092,215.834z"/>
	</g>
</g>
<g>
	<g>
		<path d="M335.189,51.2H176.785c-3.985,0.009-7.927,0.648-11.716,1.903c-9.54,3.157-17.289,9.839-21.803,18.816
			c-4.523,8.977-5.274,19.174-2.108,28.749l12.578,37.649l7.578,79.044c0.896,10.889,5.146,21.018,12.305,29.303l42.743,49.161
			c6.477,7.245,15.735,11.375,25.378,11.375c0.085,0,0.179,0,0.265,0h27.921c0.094,0,0.179,0,0.273,0
			c9.702,0,18.961-4.13,25.515-11.46l42.94-49.263c7.134-8.26,11.392-18.389,12.279-29.193l7.33-78.976l12.578-37.666
			c1.263-3.797,1.903-7.74,1.911-11.725C372.796,68.164,355.959,51.251,335.189,51.2z M354.662,95.258l-12.885,38.571
			c-0.213,0.623-0.341,1.263-0.41,1.92l-7.433,80.043c-0.589,7.262-3.422,14.012-8.166,19.499l-42.846,49.152
			c-3.277,3.661-8.192,5.709-12.928,5.692h-28.058c-5.009,0.051-9.591-2.031-12.783-5.598l-42.65-49.05
			c-4.762-5.513-7.595-12.262-8.201-19.635l-7.68-80.128c-0.06-0.648-0.196-1.28-0.401-1.894l-12.877-38.545
			c-1.715-5.214-1.314-10.786,1.161-15.693c2.466-4.915,6.699-8.559,11.913-10.283c2.074-0.683,4.233-1.041,6.391-1.041h158.362
			c11.332,0.026,20.548,9.276,20.523,20.608C355.686,91.051,355.336,93.21,354.662,95.258z"/>
	</g>
</g>
<g>
	<g>
		<circle cx="204.8" cy="145.067" r="17.067"/>
	</g>
</g>
<g>
	<g>
		<circle cx="298.667" cy="145.067" r="17.067"/>
	</g>
</g>
<g>
	<g>
		<rect x="134.459" y="89.607" transform="matrix(0.3164 -0.9486 0.9486 0.3164 26.4864 233.036)" width="80.954" height="17.066"/>
	</g>
</g>
<g>
	<g>
		<path d="M332.774,58.129C331.921,25.933,305.468,0,273.067,0h-128c-4.71,0-8.533,3.823-8.533,8.533
			c0,32.939,26.795,59.733,59.733,59.733h25.6V51.2h-25.6c-20.608,0-37.845-14.686-41.805-34.133h118.605
			c23.526,0,42.667,19.14,42.667,42.667c0,1.024,0.179,2.039,0.538,2.995l25.6,68.267l15.983-5.99L332.774,58.129z"/>
	</g>
</g>
<g>
	<g>
		<path d="M196.267,273.067v43.725l-61.372,8.149c-37.99,5.086-66.628,37.811-66.628,76.126V512h17.067V401.067
			c0-29.807,22.272-55.262,51.814-59.213l68.779-9.131c4.241-0.563,7.407-4.181,7.407-8.457v-51.2H196.267z"/>
	</g>
</g>
<g>
	<g>
		<path d="M377.097,324.941l-61.363-8.149v-43.725h-17.067v51.2c0,4.275,3.166,7.893,7.407,8.465l68.77,9.131
			c29.551,3.942,51.823,29.397,51.823,59.204V512h17.067V401.067C443.733,362.752,415.096,330.018,377.097,324.941z"/>
	</g>
</g>
<g>
	<g>
		<rect x="136.533" y="426.667" width="17.067" height="85.333"/>
	</g>
</g>
<g>
	<g>
		<rect x="76.8" y="443.733" width="68.267" height="17.067"/>
	</g>
</g>
<g>
	<g>
		<rect x="358.4" y="426.667" width="17.067" height="85.333"/>
	</g>
</g>
<g>
	<g>
		<rect x="366.933" y="443.733" width="68.267" height="17.067"/>
	</g>
</g>
<g>
	<g>
		<path d="M300.1,319.531l-44.1,66.15l-44.1-66.142l-14.199,9.464l51.2,76.8c1.587,2.372,4.25,3.797,7.1,3.797
			c2.85,0,5.513-1.425,7.1-3.806l51.2-76.8L300.1,319.531z"/>
	</g>
</g>
<g>
	<g>
		<path d="M253.303,392.969l-41.865,13.952l-15.309-84.181l-16.794,3.046l17.067,93.867c0.444,2.441,1.92,4.565,4.053,5.82
			c1.323,0.794,2.833,1.195,4.343,1.195c0.905,0,1.818-0.145,2.705-0.452l51.2-17.067L253.303,392.969z"/>
	</g>
</g>
<g>
	<g>
		<path d="M315.878,322.748l-15.309,84.181l-41.865-13.952l-5.402,16.179l51.2,17.067c0.879,0.299,1.792,0.444,2.697,0.444
			c1.519,0,3.021-0.401,4.352-1.186c2.125-1.263,3.601-3.388,4.045-5.82l17.067-93.867L315.878,322.748z"/>
	</g>
</g>
<g>
	<g>
		<rect x="247.467" y="401.067" width="17.067" height="68.267"/>
	</g>
</g>
<g>
	<g>
		<path d="M226.133,435.2c-7.057,0-12.8,5.743-12.8,12.8s5.743,12.8,12.8,12.8s12.8-5.743,12.8-12.8S233.19,435.2,226.133,435.2z
			 M226.133,452.267c-2.355,0-4.267-1.92-4.267-4.267s1.911-4.267,4.267-4.267c2.355,0,4.267,1.92,4.267,4.267
			S228.489,452.267,226.133,452.267z"/>
	</g>
</g>
<g>
</g>
<g>
</g>
<g>
</g>
<g>
</g>
<g>
</g>
<g>
</g>
<g>
</g>
<g>
</g>
<g>
</g>
<g>
</g>
<g>
</g>
<g>
</g>
<g>
</g>
<g>
</g>
<g>
</g>
</svg>
