<?xml version="1.0" encoding="iso-8859-1"?>
<!-- Generator: Adobe Illustrator 19.0.0, SVG Export Plug-In . SVG Version: 6.00 Build 0)  -->
<svg version="1.1" id="Capa_1" xmlns="http://www.w3.org/2000/svg" xmlns:xlink="http://www.w3.org/1999/xlink" x="0px" y="0px"
	 viewBox="0 0 512 512" style="enable-background:new 0 0 512 512;" xml:space="preserve">
<g>
	<g>
		<path d="M194.207,308.966v28.769c0.035,4.458-3.266,8.254-7.715,8.828l-70.532,9.525c-30.905,3.84-54.193,30.234-54.166,61.369
			V512h17.655v-94.552c-0.018-22.246,16.613-41.092,38.78-43.855l70.585-9.534c13.259-1.721,23.164-13.109,23.049-26.403v-28.69
			H194.207z"/>
	</g>
</g>
<g>
	<g>
		<path d="M396.129,356.096l-70.656-9.534c-4.423-0.583-7.724-4.37-7.68-8.907v-28.69h-17.655v28.61
			c-0.115,13.374,9.79,24.761,23.005,26.483l70.718,9.543c22.078,2.754,38.709,21.601,38.691,43.855V512h17.655v-94.535
			C450.233,386.322,426.946,359.936,396.129,356.096z"/>
	</g>
</g>
<g>
	<g>
		<path d="M353.103,141.241h-8.828v17.655h8.828c9.737,0,17.655,7.918,17.655,17.655c0,9.737-7.918,17.655-17.655,17.655h-8.828
			v17.655h8.828c19.474,0,35.31-15.837,35.31-35.31C388.414,157.078,372.577,141.241,353.103,141.241z"/>
	</g>
</g>
<g>
	<g>
		<path d="M158.897,158.897h8.828v-17.655h-8.828c-19.474,0-35.31,15.837-35.31,35.31c0,19.474,15.837,35.31,35.31,35.31h8.828
			v-17.655h-8.828c-9.737,0-17.655-7.918-17.655-17.655C141.241,166.815,149.16,158.897,158.897,158.897z"/>
	</g>
</g>
<g>
	<g>
		<path d="M327.345,349.625l-5.65,13.153c-11.282,26.297-37.049,43.29-65.66,43.29c-0.026,0-0.053,0-0.079,0
			c-28.61,0-54.369-16.993-65.642-43.29l-5.65-13.153l-16.225,6.965l5.65,13.144c14.054,32.803,46.177,53.99,81.858,53.99
			c0.026,0,0.062,0,0.097,0c35.672,0,67.814-21.186,81.876-53.981l5.65-13.153L327.345,349.625z"/>
	</g>
</g>
<g>
	<g>
		<path d="M248.338,203.388l7.583-60.698l-17.514-2.189l-8.828,70.621c-0.309,2.516,0.468,5.041,2.145,6.938
			c1.677,1.898,4.087,2.984,6.621,2.984h26.483v-17.655H248.338z"/>
	</g>
</g>
<g>
	<g>
		<path d="M293.941,223.232c-9.975,9.834-22.908,15.051-37.235,15.113h-27.189V256h27.127c0.159,0,0.318,0,0.477,0
			c18.547,0,36.008-7.168,49.214-20.198L293.941,223.232z"/>
	</g>
</g>
<g>
	<g>
		<path d="M343.905,79.448V236.57c0.106,10.814-3.76,21.266-10.876,29.422l-38.118,43.591c-5.023,5.72-12.27,8.995-19.853,9.004
			h-38.479c-7.601-0.009-14.839-3.284-19.844-8.987l-38.126-43.599c-7.115-8.166-10.982-18.617-10.884-29.511V79.457
			c0.009-5.217,0.662-10.443,1.933-15.51l-17.117-4.317c-1.633,6.471-2.463,13.135-2.472,19.818V236.42
			c-0.132,15.139,5.279,29.775,15.245,41.198l38.153,43.626c8.369,9.525,20.436,14.989,33.112,14.998h38.497
			c12.659-0.009,24.726-5.473,33.103-15.025l38.144-43.617c9.966-11.423,15.378-26.05,15.236-41.11V79.448H343.905z"/>
	</g>
</g>
<g>
	<g>
		<circle cx="203.034" cy="159.25" r="17.655"/>
	</g>
</g>
<g>
	<g>
		<circle cx="300.138" cy="159.25" r="17.655"/>
	</g>
</g>
<g>
	<g>
		<path d="M282.483,0H132.414c-2.534,0-4.943,1.086-6.612,2.984c-1.677,1.907-2.463,4.431-2.145,6.938
			c5.57,44.668,43.714,78.354,88.735,78.354h140.712c4.882,0,8.828-3.955,8.828-8.828C361.931,35.646,326.294,0,282.483,0z
			 M212.392,70.621c-32.715,0-60.91-22.166-69.27-52.966h139.361c31.082,0,56.867,23.058,61.166,52.966H212.392z"/>
	</g>
</g>
<g>
	<g>
		<path d="M194.331,69.199c-5.049,30.95-38.638,46.151-38.983,46.301l3.205,7.302l3.875,8.879
			c1.739-0.759,42.708-19.085,49.328-59.648L194.331,69.199z"/>
	</g>
</g>
<g>
	<g>
		<path d="M317.378,76.782l-16.834,5.297c0.503,1.633,12.915,40.068,50.282,50.035l4.555-17.064
			C327.53,107.626,317.484,77.091,317.378,76.782z"/>
	</g>
</g>
<g>
</g>
<g>
</g>
<g>
</g>
<g>
</g>
<g>
</g>
<g>
</g>
<g>
</g>
<g>
</g>
<g>
</g>
<g>
</g>
<g>
</g>
<g>
</g>
<g>
</g>
<g>
</g>
<g>
</g>
</svg>
