<?xml version="1.0" encoding="iso-8859-1"?>
<!-- Generator: Adobe Illustrator 19.0.0, SVG Export Plug-In . SVG Version: 6.00 Build 0)  -->
<svg version="1.1" id="Capa_1" xmlns="http://www.w3.org/2000/svg" xmlns:xlink="http://www.w3.org/1999/xlink" x="0px" y="0px"
	 viewBox="0 0 512 512" style="enable-background:new 0 0 512 512;" xml:space="preserve">
<g>
	<g>
		<path d="M241.331,204.8l14.413-57.668l-16.555-4.139l-17.067,68.267c-0.64,2.551-0.06,5.248,1.553,7.322
			c1.613,2.074,4.096,3.285,6.724,3.285h34.133V204.8H241.331z"/>
	</g>
</g>
<g>
	<g>
		<path d="M275.567,224.358c-9.404,9.395-21.897,14.566-35.183,14.575h-1.451V256h1.451c17.843-0.009,34.628-6.955,47.249-19.567
			L275.567,224.358z"/>
	</g>
</g>
<g>
	<g>
		<path d="M358.4,136.533h-8.533V153.6h8.533c9.412,0,17.067,7.654,17.067,17.067c0,9.412-7.654,17.067-17.067,17.067h-8.533V204.8
			h8.533c18.825,0,34.133-15.309,34.133-34.133S377.225,136.533,358.4,136.533z"/>
	</g>
</g>
<g>
	<g>
		<path d="M153.6,153.6h8.533v-17.067H153.6c-18.825,0-34.133,15.309-34.133,34.133S134.775,204.8,153.6,204.8h8.533v-17.067H153.6
			c-9.412,0-17.067-7.654-17.067-17.067C136.533,161.254,144.188,153.6,153.6,153.6z"/>
	</g>
</g>
<g>
	<g>
		<path d="M338.526,97.024c-5.376-12.629-19.695-18.739-32.521-13.952c-32.256,12.092-67.763,12.092-100.011,0
			c-12.851-4.787-27.136,1.323-32.503,13.926l-19.2,44.715l15.684,6.733l19.208-44.74c1.792-4.207,6.571-6.229,10.829-4.651
			c36.105,13.525,75.878,13.525,111.966,0c4.275-1.621,9.045,0.427,10.846,4.668l19.2,44.715l15.693-6.724L338.526,97.024z"/>
	</g>
</g>
<g>
	<g>
		<path d="M238.933,136.533h-76.8c-4.71,0-8.533,3.823-8.533,8.533v21.521c0.034,12.518,4.924,24.269,13.798,33.101
			c8.841,8.798,20.574,13.645,33.05,13.645c0.034,0,0.068,0,0.102,0h0.171c12.518-0.034,24.269-4.924,33.101-13.798
			c8.823-8.866,13.67-20.642,13.645-33.135v-21.333C247.467,140.356,243.644,136.533,238.933,136.533z M230.4,166.417
			c0.034,16.427-13.295,29.815-29.696,29.85h-0.171c-0.034,0-0.06,0-0.085,0c-16.393,0-29.747-13.321-29.781-29.867v-12.8H230.4
			V166.417z"/>
	</g>
</g>
<g>
	<g>
		<path d="M349.867,136.533h-76.8c-4.71,0-8.533,3.823-8.533,8.533v21.521c0.06,25.796,21.069,46.746,46.848,46.746
			c0.034,0,0.068,0,0.094,0h0.179c12.518-0.034,24.269-4.924,33.101-13.798c8.832-8.866,13.679-20.642,13.645-33.135v-21.333
			C358.4,140.356,354.586,136.533,349.867,136.533z M341.342,166.426c0.017,7.953-3.063,15.437-8.678,21.077
			c-5.606,5.632-13.082,8.747-21.018,8.764h-0.179c-0.009,0-0.009,0-0.017,0c-16.367-0.333-29.807-13.295-29.85-29.867v-12.8h59.742
			V166.426z"/>
	</g>
</g>
<g>
	<g>
		<rect x="238.933" y="136.533" width="34.133" height="17.067"/>
	</g>
</g>
<g>
	<g>
		<circle cx="196.267" cy="162.133" r="17.067"/>
	</g>
</g>
<g>
	<g>
		<circle cx="307.2" cy="162.133" r="17.067"/>
	</g>
</g>
<g>
	<g>
		<path d="M341.333,145.067V204.8c0,47.053-38.281,85.333-85.333,85.333s-85.333-38.281-85.333-85.333v-59.733H153.6V204.8
			c0,56.465,45.935,102.4,102.4,102.4s102.4-45.935,102.4-102.4v-59.733H341.333z"/>
	</g>
</g>
<g>
	<g>
		<path d="M256,0c-65.877,0-119.467,53.589-119.467,119.467v25.6H153.6v-25.6c0-56.465,45.935-102.4,102.4-102.4
			s102.4,45.935,102.4,102.4v25.6h17.067v-25.6C375.467,53.589,321.877,0,256,0z"/>
	</g>
</g>
<g>
	<g>
		<path d="M204.8,290.133v35.985c0.034,4.352-3.2,8.013-7.484,8.533l-62.421,7.356c-37.99,5.086-66.628,37.811-66.628,76.126V512
			h17.067v-93.867c0-29.807,22.272-55.262,51.686-59.196l62.319-7.339c12.937-1.562,22.622-12.57,22.528-25.54v-35.925H204.8z"/>
	</g>
</g>
<g>
	<g>
		<path d="M376.977,342.076l-62.268-7.339c-4.318-0.521-7.543-4.181-7.509-8.593v-36.011h-17.067v35.942
			c-0.094,13.03,9.583,24.038,22.554,25.609l62.157,7.322c29.508,3.942,51.789,29.372,51.823,59.128V512h17.067v-93.875
			C443.682,379.844,415.044,347.162,376.977,342.076z"/>
	</g>
</g>
<g>
	<g>
		<path d="M324.966,337.971l-5.461,12.715c-10.906,25.421-35.814,41.847-63.471,41.847c-0.026,0-0.051,0-0.077,0
			c-27.657,0-52.557-16.427-63.454-41.847l-5.461-12.715l-15.684,6.733l5.461,12.706c13.585,31.71,44.638,52.19,79.13,52.19
			c0.026,0,0.06,0,0.094,0c34.483,0,65.553-20.48,79.147-52.181l5.461-12.715L324.966,337.971z"/>
	</g>
</g>
<g>
	<g>
		<rect x="136.533" y="443.733" width="17.067" height="68.267"/>
	</g>
</g>
<g>
	<g>
		<rect x="76.8" y="460.8" width="68.267" height="17.067"/>
	</g>
</g>
<g>
	<g>
		<rect x="358.4" y="443.733" width="17.067" height="68.267"/>
	</g>
</g>
<g>
	<g>
		<rect x="366.933" y="460.8" width="68.267" height="17.067"/>
	</g>
</g>
<g>
</g>
<g>
</g>
<g>
</g>
<g>
</g>
<g>
</g>
<g>
</g>
<g>
</g>
<g>
</g>
<g>
</g>
<g>
</g>
<g>
</g>
<g>
</g>
<g>
</g>
<g>
</g>
<g>
</g>
</svg>
