<?xml version="1.0" encoding="iso-8859-1"?>
<!-- Generator: Adobe Illustrator 19.0.0, SVG Export Plug-In . SVG Version: 6.00 Build 0)  -->
<svg version="1.1" id="Capa_1" xmlns="http://www.w3.org/2000/svg" xmlns:xlink="http://www.w3.org/1999/xlink" x="0px" y="0px"
	 viewBox="0 0 512 512" style="enable-background:new 0 0 512 512;" xml:space="preserve">
<g>
	<g>
		<circle cx="307.2" cy="162.133" r="17.067"/>
	</g>
</g>
<g>
	<g>
		<path d="M262.033,176.7l-12.066-12.066l-25.6,25.6c-1.809,1.809-2.705,4.335-2.458,6.878c0.247,2.534,1.621,4.838,3.755,6.255
			l25.6,17.067l9.472-14.199l-16.939-11.29L262.033,176.7z"/>
	</g>
</g>
<g>
	<g>
		<path d="M358.4,136.533h-8.533V153.6h8.533c9.412,0,17.067,7.654,17.067,17.067c0,9.412-7.654,17.067-17.067,17.067h-8.533V204.8
			h8.533c18.825,0,34.133-15.309,34.133-34.133S377.225,136.533,358.4,136.533z"/>
	</g>
</g>
<g>
	<g>
		<path d="M341.35,136.013l-4.702,76.945c-1.903,43.273-37.333,77.175-80.649,77.175c-43.315,0-78.746-33.903-80.666-77.466
			l-4.693-59.733l-17.015,1.331l4.676,59.443c2.313,52.42,45.227,93.491,97.698,93.491c52.471,0,95.394-41.062,97.69-93.346
			l4.693-76.8L341.35,136.013z"/>
	</g>
</g>
<g>
	<g>
		<path d="M277.786,222.763c-9.993,5-21.163,7.637-32.324,7.637c-0.009,0-0.026,0-0.043,0h-6.485v17.067h6.477
			c0.017,0,0.043,0,0.06,0c13.79,0,27.605-3.26,39.953-9.438L277.786,222.763z"/>
	</g>
</g>
<g>
	<g>
		<path d="M337.604,26.889C319.744,9.677,295.475,0.179,270.592,0H256c-36.19,0-72.858,16.179-98.082,43.273
			c-28.902,31.044-42.189,75.307-38.426,128c0.179,2.552,1.493,4.881,3.576,6.357c1.451,1.033,3.183,1.57,4.932,1.57
			c0.751,0,1.502-0.102,2.253-0.307c76.066-20.745,150.733-78.635,179.234-102.485c3.422,15.659,11.964,41.412,33.28,73.387
			l14.199-9.463c-31.991-47.983-32.7-80.324-32.7-80.597c0-3.379-1.988-6.434-5.086-7.808c-3.089-1.357-6.69-0.785-9.19,1.493
			c-0.879,0.811-86.579,78.089-173.995,105.975c-1.067-43.119,10.743-79.078,34.406-104.499
			C192.469,31.206,224.461,17.058,256,17.058h14.635c20.514,0.068,41.37,8.337,56.141,23.108c0.811,0.811,1.775,1.451,2.833,1.877
			c22.596,9.139,37.248,30.797,37.333,55.151V153.6h17.067v-56.44C383.906,66.398,365.756,39.006,337.604,26.889z"/>
	</g>
</g>
<g>
	<g>
		<circle cx="204.8" cy="162.133" r="17.067"/>
	</g>
</g>
<g>
	<g>
		<path d="M366.933,187.733c0,0.657-0.452,59.691-29.235,100.403l-5.06-25.284l-16.734,3.354l8.533,42.667
			c0.614,3.089,2.876,5.589,5.888,6.494c0.819,0.247,1.647,0.367,2.475,0.367c2.236,0,4.412-0.879,6.033-2.5
			C383.479,268.587,384,191.01,384,187.733H366.933z"/>
	</g>
</g>
<g>
	<g>
		<path d="M179.362,262.852l-4.642,23.228c-22.477-34.679-35.61-74.385-38.204-115.951l-17.033,1.067
			c3.208,51.473,21.521,100.301,52.949,141.201c1.638,2.133,4.147,3.336,6.767,3.336c0.64,0,1.289-0.077,1.937-0.23
			c3.251-0.759,5.769-3.345,6.426-6.63l8.533-42.667L179.362,262.852z"/>
	</g>
</g>
<g>
	<g>
		<path d="M153.6,187.733c-9.412,0-17.067-7.654-17.067-17.067h-17.067c0,18.825,15.309,34.133,34.133,34.133h8.533v-17.067H153.6z"
			/>
	</g>
</g>
<g>
	<g>
		<path d="M316.467,329.335L256,465.391l-60.476-136.064l-15.59,6.938l68.267,153.6c1.374,3.089,4.429,5.069,7.799,5.069
			s6.426-1.98,7.799-5.06l68.267-153.6L316.467,329.335z"/>
	</g>
</g>
<g>
	<g>
		<path d="M204.723,281.6v36.079c0.026,4.326-3.183,7.996-7.458,8.533l-61.798,7.68c-38.323,4.83-67.209,37.606-67.2,76.228V512
			h17.067h0.009V410.112c-0.009-30.046,22.46-55.543,52.258-59.29l61.79-7.68c12.868-1.604,22.502-12.612,22.4-25.532V281.6H204.723
			z"/>
	</g>
</g>
<g>
	<g>
		<path d="M376.516,333.892l-61.773-7.68c-4.284-0.538-7.492-4.207-7.458-8.602V281.6h-17.067v35.951
			c-0.102,12.979,9.532,23.996,22.417,25.6l61.764,7.68c29.807,3.746,52.275,29.244,52.267,59.29V512h17.067V410.121
			C443.742,371.49,414.848,338.714,376.516,333.892z"/>
	</g>
</g>
<g>
	<g>
		<path d="M197.666,447.693l6.878-27.494c0.64-2.543,0.06-5.248-1.553-7.313c-1.613-2.074-4.096-3.285-6.724-3.285h-46.601
			l28.8-64.794l-15.59-6.938l-34.133,76.8c-1.178,2.637-0.93,5.692,0.64,8.115s4.267,3.883,7.151,3.883h48.802l-5.879,23.535
			c-0.973,3.874,0.887,7.91,4.463,9.702l68.267,34.133l7.629-15.266L197.666,447.693z"/>
	</g>
</g>
<g>
	<g>
		<rect x="247.467" y="486.4" width="17.067" height="25.6"/>
	</g>
</g>
<g>
	<g>
		<path d="M383.266,414.66l-34.133-76.8l-15.599,6.938l28.8,64.802h-46.601c-2.628,0-5.111,1.212-6.733,3.285
			c-1.621,2.065-2.193,4.762-1.553,7.313l6.869,27.494l-62.14,31.078l7.637,15.266l68.267-34.133
			c3.567-1.792,5.427-5.828,4.454-9.702l-5.871-23.535h48.802c2.893,0,5.589-1.468,7.159-3.891
			C384.196,420.352,384.444,417.306,383.266,414.66z"/>
	</g>
</g>
<g>
	<g>
		<rect x="221.867" y="401.067" width="68.267" height="17.067"/>
	</g>
</g>
<g>
</g>
<g>
</g>
<g>
</g>
<g>
</g>
<g>
</g>
<g>
</g>
<g>
</g>
<g>
</g>
<g>
</g>
<g>
</g>
<g>
</g>
<g>
</g>
<g>
</g>
<g>
</g>
<g>
</g>
</svg>
