<?xml version="1.0" encoding="iso-8859-1"?>
<!-- Generator: Adobe Illustrator 19.0.0, SVG Export Plug-In . SVG Version: 6.00 Build 0)  -->
<svg version="1.1" id="Capa_1" xmlns="http://www.w3.org/2000/svg" xmlns:xlink="http://www.w3.org/1999/xlink" x="0px" y="0px"
	 viewBox="0 0 512 512" style="enable-background:new 0 0 512 512;" xml:space="preserve">
<g>
	<g>
		<circle cx="307.157" cy="162.133" r="17.067"/>
	</g>
</g>
<g>
	<g>
		<path d="M250.931,191.292l12.663-25.335l-15.266-7.637l-17.067,34.133c-1.101,2.21-1.195,4.796-0.247,7.083
			c0.939,2.287,2.833,4.045,5.18,4.83l25.6,8.533l5.402-16.188L250.931,191.292z"/>
	</g>
</g>
<g>
	<g>
		<path d="M204.851,290.133v44.271c0.026,4.326-3.183,7.996-7.458,8.533l-76.8,9.557c-30.089,3.738-52.599,29.414-52.369,59.665V512
			h17.067h0.009v-99.908c-0.162-21.649,15.915-39.996,37.41-42.667l76.809-9.557c12.868-1.604,22.502-12.612,22.4-25.532v-44.203
			H204.851z"/>
	</g>
</g>
<g>
	<g>
		<path d="M391.407,352.913l-76.783-9.549c-4.292-0.546-7.501-4.207-7.467-8.602v-44.629h-17.067v44.57
			c-0.102,12.971,9.532,23.979,22.417,25.6l76.8,9.549c21.487,2.679,37.572,21.018,37.402,42.735V512h17.067v-99.354
			C444.006,382.336,421.496,356.651,391.407,352.913z"/>
	</g>
</g>
<g>
	<g>
		<path d="M358.357,136.533h-8.533V153.6h8.533c9.412,0,17.067,7.654,17.067,17.067c0,9.412-7.654,17.067-17.067,17.067h-8.533
			V204.8h8.533c18.825,0,34.133-15.309,34.133-34.133S377.182,136.533,358.357,136.533z"/>
	</g>
</g>
<g>
	<g>
		<path d="M341.308,136.013l-4.702,76.945c-1.903,43.273-37.333,77.175-80.649,77.175S177.22,256.23,175.3,212.813l-4.693-76.8
			l-17.033,1.041l4.685,76.655c2.313,52.42,45.227,93.491,97.698,93.491c52.48,0,95.394-41.062,97.69-93.346l4.693-76.8
			L341.308,136.013z"/>
	</g>
</g>
<g>
	<g>
		<path d="M277.743,222.763c-9.993,5-21.171,7.637-32.341,7.637c-0.009,0-0.017,0-0.026,0h-6.485v17.067h6.485
			c0.009,0,0.017,0,0.026,0c13.807,0,27.631-3.26,39.979-9.438L277.743,222.763z"/>
	</g>
</g>
<g>
	<g>
		<circle cx="204.757" cy="162.133" r="17.067"/>
	</g>
</g>
<g>
	<g>
		<path d="M261.359,61.662c-3.149-2.577-7.671-2.577-10.812,0l-93.867,76.8l10.812,13.21l88.465-72.38l88.465,72.38l10.803-13.21
			L261.359,61.662z"/>
	</g>
</g>
<g>
	<g>
		<path d="M153.557,153.6h8.533v-17.067h-8.533c-18.825,0-34.133,15.309-34.133,34.133s15.309,34.133,34.133,34.133h8.533v-17.067
			h-8.533c-9.412,0-17.067-7.654-17.067-17.067C136.491,161.254,144.145,153.6,153.557,153.6z"/>
	</g>
</g>
<g>
	<g>
		<path d="M255.957,0c-70.579,0-128,57.421-128,128v25.6h17.067V128c0-61.167,49.766-110.933,110.933-110.933
			S366.891,66.833,366.891,128v25.6h17.067V128C383.957,57.421,326.537,0,255.957,0z"/>
	</g>
</g>
<g>
	<g>
		<rect x="247.424" y="8.533" width="17.067" height="59.733"/>
	</g>
</g>
<g>
	<g>
		<rect x="127.957" y="187.733" width="17.067" height="170.667"/>
	</g>
</g>
<g>
	<g>
		<rect x="366.891" y="187.733" width="17.067" height="170.667"/>
	</g>
</g>
<g>
	<g>
		<rect x="179.157" y="349.867" width="17.067" height="162.133"/>
	</g>
</g>
<g>
	<g>
		<rect x="315.691" y="349.867" width="17.067" height="162.133"/>
	</g>
</g>
<g>
	<g>
		<path d="M317.858,438.067c-2.167,2.44-4.497,4.762-6.929,6.921c-34.116,30.31-86.545,27.196-116.856-6.921l-12.757,11.332
			c19.695,22.187,47.138,33.493,74.701,33.493c23.586,0,47.266-8.294,66.244-25.148c2.935-2.603,5.743-5.41,8.346-8.346
			L317.858,438.067z"/>
	</g>
</g>
<g>
</g>
<g>
</g>
<g>
</g>
<g>
</g>
<g>
</g>
<g>
</g>
<g>
</g>
<g>
</g>
<g>
</g>
<g>
</g>
<g>
</g>
<g>
</g>
<g>
</g>
<g>
</g>
<g>
</g>
</svg>
