<?xml version="1.0" encoding="iso-8859-1"?>
<!-- Generator: Adobe Illustrator 19.0.0, SVG Export Plug-In . SVG Version: 6.00 Build 0)  -->
<svg version="1.1" id="Capa_1" xmlns="http://www.w3.org/2000/svg" xmlns:xlink="http://www.w3.org/1999/xlink" x="0px" y="0px"
	 viewBox="0 0 511.988 511.988" style="enable-background:new 0 0 511.988 511.988;" xml:space="preserve">
<g>
	<g>
		<circle cx="307.149" cy="162.113" r="17.066"/>
	</g>
</g>
<g>
	<g>
		<path d="M250.926,191.287l12.663-25.334l-15.265-7.637l-17.066,34.132c-1.101,2.21-1.195,4.796-0.247,7.082
			c0.939,2.287,2.833,4.045,5.179,4.83l25.599,8.533l5.401-16.187L250.926,191.287z"/>
	</g>
</g>
<g>
	<g>
		<path d="M204.848,290.133v35.736c0.026,4.326-3.183,7.995-7.458,8.533l-76.796,9.557c-30.087,3.737-52.597,29.413-52.366,59.662
			v108.368h17.066h0.009V403.552c-0.162-21.648,15.914-39.994,37.408-42.665l76.805-9.557c12.868-1.604,22.501-12.612,22.399-25.53
			v-35.668H204.848z"/>
	</g>
</g>
<g>
	<g>
		<path d="M391.394,344.376l-76.788-9.557c-4.284-0.538-7.492-4.207-7.458-8.601v-36.086h-17.066v36.026
			c-0.102,12.979,9.531,23.995,22.416,25.599l76.796,9.557c21.486,2.679,37.57,21.017,37.4,42.733v107.941h17.066h0V404.107
			C443.991,373.798,421.481,348.114,391.394,344.376z"/>
	</g>
</g>
<g>
	<g>
		<path d="M358.346,136.54h-8.533v17.066h8.533c9.412,0,17.066,7.654,17.066,17.066c0,9.412-7.654,17.066-17.066,17.066h-8.533
			v17.066h8.533c18.824,0,34.132-15.308,34.132-34.132C392.478,151.848,377.17,136.54,358.346,136.54z"/>
	</g>
</g>
<g>
	<g>
		<path d="M277.744,222.765c-9.992,5-21.17,7.637-32.34,7.637c-0.009,0-0.017,0-0.026,0h-6.485v17.066h6.485
			c0.009,0,0.017,0,0.026,0c13.798,0,27.621-3.268,39.977-9.437L277.744,222.765z"/>
	</g>
</g>
<g>
	<g>
		<circle cx="204.754" cy="162.113" r="17.066"/>
	</g>
</g>
<g>
	<g>
		<path d="M353.628,137.445c-29.686-14.847-37.954-69.825-38.031-70.379c-0.367-2.5-1.818-4.719-3.968-6.041
			c-2.15-1.323-4.753-1.63-7.185-0.836l-17.663,5.888c-3.021-6.929-8.55-16.204-17.723-21.238
			c-7.287-4.002-15.709-4.582-24.336-1.715c-21.827,7.253-24.506,24.797-26.862,40.275c-2.133,14.003-4.147,27.237-18.226,37.792
			c-27.809,20.854-37.263,23.653-38.432,23.935c-2.048,0.213-3.959,1.169-5.376,2.696c-1.613,1.741-2.423,4.087-2.244,6.459
			l4.676,59.432c2.312,52.426,45.224,93.486,97.693,93.486c52.477,0,95.389-41.069,97.685-93.273l4.693-68.263
			C358.56,142.232,356.708,138.989,353.628,137.445z M336.604,212.961c-1.903,43.27-37.323,77.172-80.645,77.172
			c-43.322,0-78.742-33.901-80.662-77.47l-4.173-53.058c8.985-3.942,22.262-12.407,38.765-24.763
			c19.66-14.745,22.544-33.662,24.856-48.868c2.338-15.334,3.968-22.868,15.385-26.665c4.147-1.391,7.552-1.237,10.692,0.469
			c7.202,3.925,11.434,15.137,12.458,19.105c0.572,2.304,2.082,4.266,4.164,5.41c2.082,1.135,4.539,1.365,6.809,0.614l16.358-5.453
			c3.968,17.68,14.941,54.005,40.327,70.362L336.604,212.961z"/>
	</g>
</g>
<g>
	<g>
		<path d="M374.678,61.144c-11.605-26.145-37.314-43.287-65.814-44.038L285.791,7.83c-18.926-9.472-41.077-10.385-60.626-2.551
			c-63.656,24.455-103.572,86.609-99.323,154.633c1.314,22.732-2.969,45.711-12.39,66.446
			c-18.175,39.934-13.61,86.899,11.903,122.55l4.181,5.888l13.917-9.864l-4.198-5.922c-21.998-30.736-25.923-71.19-10.265-105.586
			c10.555-23.252,15.359-49.013,13.883-74.543c-3.789-60.584,31.742-115.911,88.52-137.721c15.129-6.075,32.178-5.367,47.392,2.21
			l25.172,10.154c1.007,0.41,2.073,0.623,3.157,0.623c22.459,0.085,42.852,13.397,51.974,33.935
			c10.325,23.175,13.567,48.663,9.326,73.938l-1.451,10.41l16.895,2.346l1.417-10.171
			C390.038,116.249,386.368,87.382,374.678,61.144z"/>
	</g>
</g>
<g>
	<g>
		<path d="M394.824,249.234c-7.236-19.199-10.905-39.345-10.879-59.875v-1.621h-17.066v1.613
			c-0.026,22.595,4.002,44.764,11.972,65.883c8.345,22.348,7.765,46.726-1.647,68.664l-9.642,22.612l15.701,6.698l9.625-22.595
			C404.031,304.63,404.723,275.738,394.824,249.234z"/>
	</g>
</g>
<g>
	<g>
		<path d="M394.492,352.858c-76.651,76.387-201.163,76.173-277.55-0.486l-12.091,12.048C146.397,406.112,201.042,427,255.772,427
			c54.653,0,109.392-20.837,151.28-62.572L394.492,352.858z"/>
	</g>
</g>
<g>
	<g>
		<path d="M234.423,52.244l-8.14,15.001c9.395,5.103,17.066,12.765,22.168,22.168l15.001-8.14
			C256.771,68.96,246.727,58.925,234.423,52.244z"/>
	</g>
</g>
<g>
</g>
<g>
</g>
<g>
</g>
<g>
</g>
<g>
</g>
<g>
</g>
<g>
</g>
<g>
</g>
<g>
</g>
<g>
</g>
<g>
</g>
<g>
</g>
<g>
</g>
<g>
</g>
<g>
</g>
</svg>
